<svg width="156" height="122" viewBox="0 0 156 122" fill="none" xmlns="http://www.w3.org/2000/svg">
<path d="M137.015 47.8469L128.873 45.2266L76.9342 71.5275C76.9342 71.5275 68.9799 91.5575 69.8222 91.3703C70.6646 91.183 89.662 81.9167 89.662 81.9167L109.782 65.2566L136.173 54.3989L137.015 47.8469Z" fill="#01C8A9"/>
<path d="M19.8491 73.3131C19.8491 75.6528 20.5042 75.5589 20.5042 75.5589C20.5042 75.5589 22.0016 76.4012 24.4347 77.8053V76.7758C24.4347 76.0274 25.1831 75.5589 25.8382 75.9334L45.1167 87.1656C46.4269 87.914 47.2686 89.3181 47.2686 90.9095V91.19C51.0125 93.3425 53.9134 95.1211 55.0363 95.6829C58.9668 97.9293 64.2075 93.717 64.2075 93.717L66.4533 95.4017L72.0685 92.1263C74.127 77.3375 83.5794 75.3717 86.1997 76.2146C88.82 77.0569 89.1939 80.4263 89.1939 80.4263L89.849 81.8304L116.333 66.3865C116.707 56.2779 125.317 50.007 128.967 50.2876C132.711 50.5682 133.366 53.8442 133.366 53.8442C134.301 54.4059 134.582 55.7161 134.582 55.7161C137.015 55.155 138.794 52.2534 139.823 50.3815C140.852 48.5096 140.384 45.6075 140.384 44.204C140.384 42.7999 140.852 36.6223 139.916 34.1886C138.98 31.7549 135.05 29.977 134.021 29.4152C134.021 29.5091 113.619 17.6219 108.379 14.5331C103.232 11.5383 101.36 12.3806 100.05 12.6612C98.7396 12.9417 94.8091 15.4694 94.8091 15.4694C94.8091 15.4694 94.5285 15.4694 90.4108 15.0009C86.293 14.5331 77.9642 14.1586 66.5472 20.9912C55.1296 27.9178 53.2583 31.9422 50.544 35.4994C47.9237 39.056 46.7075 43.8295 46.7075 43.8295L44.3677 44.8591L24.7153 60.8641C20.0364 64.7019 20.4102 66.2932 19.9424 67.7906C19.5685 69.288 19.8491 70.9727 19.8491 73.3131Z" fill="white"/>
<path d="M116.426 64.8986C116.145 66.6766 117.643 66.9578 121.292 69.1103C124.942 71.2634 125.597 71.0762 128.498 69.5782C131.399 68.0807 134.3 63.214 134.862 59.1889C135.423 55.1645 133.271 53.5731 133.271 53.5731L127.562 50.4844C118.672 53.0114 116.706 63.12 116.426 64.8986ZM82.4554 76.4108L88.3512 79.7808C88.3512 79.7808 90.597 80.9037 89.848 85.771C89.0996 90.6378 85.3563 94.9434 83.2038 95.7858C81.0513 96.6281 80.0217 97.2832 76.3724 95.1307C72.7225 92.9782 71.9741 92.2292 71.9741 92.2292C71.9741 92.2292 72.0674 86.5194 75.1556 82.7756C78.2438 79.0317 78.431 78.3767 82.4554 76.4108ZM59.9014 82.9628L62.1479 81.746V85.771L59.9014 86.9879C56.626 88.7659 52.6955 88.6726 49.4201 86.8006V82.7756C52.6022 84.5542 56.626 84.6475 59.9014 82.9628ZM21.4388 64.0563C21.1583 65.741 21.5328 66.6766 22.6557 67.3323V71.3568C21.1583 70.5144 20.3159 69.1103 19.9414 67.7062C20.3159 65.5537 21.4388 64.0563 21.4388 64.0563ZM47.1743 85.8644L24.3397 72.5736V68.1747L47.1743 81.4654V85.8644ZM87.6961 66.5833C86.8538 66.2088 84.514 64.6175 84.514 64.6175C84.514 64.6175 84.3268 60.8736 84.514 60.4991C84.7013 60.2185 84.9818 60.3125 86.0114 59.6568C87.041 59.0017 86.9471 59.0956 87.9767 59.4695C89.0063 59.844 91.5327 61.6226 91.5327 61.6226V64.8986C91.5327 64.8986 90.5031 65.741 90.0352 66.0216C89.5674 66.3961 88.5378 66.9578 87.6961 66.5833Z" fill="#01C8A9"/>
<path d="M15.5433 75.9503C15.6372 78.0095 15.0754 78.0095 17.4152 79.4136C19.7543 80.8177 53.2575 100.567 54.8482 101.222C56.5329 101.877 58.8727 102.813 61.2118 101.409C63.5516 100.005 66.6397 98.2268 66.6397 98.2268V95.2314L64.1133 93.7339C64.1133 93.7339 61.1185 96.1676 58.8727 96.261C56.6262 96.3549 56.439 96.6355 52.2279 94.2018C48.0168 91.7687 23.4043 77.2611 22.0941 76.6054C20.8779 75.857 19.7543 75.5758 19.7543 74.1723C19.7543 72.6743 19.9416 71.0836 19.9416 71.0836C19.9416 71.0836 17.6025 72.2065 16.6662 72.9555C15.8238 73.6106 15.45 73.8912 15.5433 75.9503ZM133.739 33.831L105.57 50.2112V37.3883C120.918 30.7423 127.937 37.201 133.739 33.831ZM128.03 57.5116C130.089 56.2948 131.867 57.3244 131.867 59.7581C131.867 62.1918 130.183 65.1866 128.03 66.4034C125.972 67.6203 124.194 66.5907 124.194 64.157C124.194 61.7233 125.972 58.7285 128.03 57.5116ZM113.338 32.5209L86.76 16.9837C94.8083 16.1414 99.7683 18.8556 104.167 16.7031L131.306 32.4276C127.001 33.5505 121.761 31.0235 113.338 32.5209ZM49.2331 43.4719C50.4499 39.9153 53.2575 34.2056 59.9956 28.4025L89.0065 45.3438C83.2973 50.3045 80.0219 55.6397 78.2439 59.7581C77.3083 61.9106 74.688 62.7529 72.6294 61.5361C72.6294 61.5361 72.6294 61.5361 72.5355 61.5361C70.7575 60.5065 57.3752 52.6443 51.2922 49.0877C49.4203 47.8708 48.578 45.5311 49.2331 43.4719ZM83.204 83.532C85.2626 82.3151 87.0412 83.3447 87.0412 85.7784C87.0412 88.2121 85.3565 91.2069 83.204 92.4238C81.1455 93.6406 79.3669 92.611 79.3669 90.1774C79.3669 87.7437 81.0515 84.7488 83.204 83.532ZM86.0116 59.7581C84.982 60.4132 84.6075 60.3198 84.5142 60.6004C84.4209 60.7877 84.4209 61.8172 84.4209 62.7529C83.9524 63.0341 83.5785 63.2213 83.2973 63.3147C81.8005 63.9698 80.1159 64.2509 80.1159 64.2509C80.1159 64.2509 80.1159 63.4086 80.1159 62.2851C80.1159 59.4769 86.0116 48.4326 99.6744 40.477C100.985 39.728 102.295 38.979 103.512 38.4179V51.428L88.9125 59.9453C88.538 59.7581 88.2574 59.5708 88.0702 59.4769C86.9473 59.1963 87.0412 59.103 86.0116 59.7581Z" fill="#035782"/>
<path d="M116.706 34.3809C113.525 34.6621 109.875 35.5044 105.57 37.3764V50.1993L111.185 46.9233L116.706 34.3809ZM103.512 38.406V51.4161L95.3699 56.1896L102.295 39.061C102.763 38.7799 103.137 38.5932 103.512 38.406ZM59.9955 28.3906L67.482 32.7896L69.3539 59.6522C66.0785 57.7803 61.0245 54.7855 56.6261 52.1645L55.2227 33.0708C56.6261 31.4794 58.1236 29.982 59.9955 28.3906Z" fill="#01C8A9"/>
<g filter="url(#filter0_d_7210_3460)">
<mask id="mask0_7210_3460" style="mask-type:luminance" maskUnits="userSpaceOnUse" x="15" y="12" width="126" height="91">
<path d="M15.0742 12.0078H140.795V102.695H15.0742V12.0078Z" fill="white"/>
</mask>
<g mask="url(#mask0_7210_3460)">
<path d="M54.8474 88.571C52.8822 88.571 51.0109 88.1031 49.2323 87.0735L49.0456 86.9802V82.1129L49.6068 82.3934C52.6949 84.172 56.5321 84.2654 59.7136 82.5807L62.4279 81.1772V85.9506L59.9948 87.2608C58.4034 88.1031 56.6254 88.571 54.8474 88.571ZM61.7728 82.3001L60.0881 83.2358C56.8127 84.9211 53.0694 84.9211 49.794 83.3297V86.6057C52.8822 88.2904 56.6254 88.3837 59.7136 86.699L61.7728 85.5761V82.3001ZM46.5186 48.6048L46.1441 49.1666L74.4066 65.6394L74.7805 65.0782L46.5186 48.6048ZM24.0586 67.6053L47.5482 81.2705V86.4185L23.9652 72.7532V67.6053H24.0586ZM24.7136 72.3787L46.8931 85.2016V81.645L24.7136 68.8221V72.3787ZM15.168 74.4379C15.168 73.7828 15.5425 73.1277 16.1042 72.7532L19.473 70.7873V69.3833C19.473 68.8221 19.5669 68.2603 19.6602 67.6986V67.6053C19.9408 65.2655 21.1576 63.8614 21.251 63.7675L21.3449 63.6741C21.906 62.9251 22.5611 62.1767 23.3101 61.615L28.9247 57.1221L43.8983 44.767L46.5186 43.2696C47.8288 38.5901 52.2271 29.0426 66.3583 20.8058C78.9922 13.5054 86.9465 14.3477 92.7489 15.0028C93.404 15.0967 94.1524 15.1901 94.7142 15.1901L98.2701 13.1309C100.797 11.6335 104.073 11.6335 106.599 13.1309L130.837 27.2646L137.575 31.1957C139.54 32.3186 140.757 34.3778 140.757 36.7175V47.2946C140.757 50.57 138.979 53.6588 136.172 55.2502L134.955 55.9053C135.142 56.467 135.235 57.1221 135.235 57.9644C135.235 62.4573 132.054 67.8858 128.217 70.1323C127.094 70.7873 125.971 71.0685 125.035 71.0685C124.286 71.0685 123.631 70.8813 123.07 70.6001L117.735 67.5113C117.361 67.3247 116.987 66.9502 116.706 66.669L90.1286 82.1129C90.3158 82.6746 90.4091 83.3297 90.4091 84.0787C90.4091 88.571 87.2271 94.0001 83.3905 96.2459C82.2676 96.9016 81.1447 97.1822 80.2084 97.1822C79.46 97.1822 78.8049 96.9949 78.2432 96.7144L72.9092 93.6256C72.5347 93.4383 72.2541 93.1572 71.9735 92.8766L67.3879 95.4975L67.0134 95.6848V98.6796L61.7728 101.675C60.6499 102.33 59.433 102.611 58.2168 102.611C56.9999 102.611 55.7831 102.33 54.6602 101.675L16.1042 79.2113C15.5425 78.8368 15.168 78.2751 15.168 77.5267V74.7185C15.168 74.5312 15.168 74.5312 15.168 74.4379ZM15.917 74.4379C15.917 74.9057 16.1042 75.2802 16.5721 75.4675L56.5321 98.7736C57.5617 99.4286 58.8719 99.4286 59.9948 98.7736L65.9838 95.3103L64.1125 94.2807L61.3049 95.872C59.1524 97.1822 56.4382 97.1822 54.2863 95.872L20.3153 75.9353C19.7535 75.6547 19.473 75.093 19.473 74.5312V71.6297L16.4781 73.4083C16.1042 73.5956 15.917 73.9701 15.917 74.4379ZM24.7136 77.7139L46.8931 90.6301C46.7992 89.32 46.0508 88.1971 44.9279 87.5414L25.6493 76.3098C25.4627 76.2165 25.2754 76.2165 25.0881 76.3098C24.9009 76.4031 24.8076 76.5904 24.8076 76.7776V77.7139H24.7136ZM20.3153 67.7925C20.5959 69.0094 21.3449 70.0389 22.2806 70.7873V67.6053C21.5322 67.1374 21.0637 66.4817 20.9704 65.5461C20.6898 66.2012 20.5026 66.9502 20.3153 67.7925ZM44.3661 45.3288L25.6493 60.5854C24.9942 61.1471 24.7136 61.8955 24.7136 62.6446C24.8076 63.4869 25.1815 64.142 25.9305 64.6098L49.6068 78.369C52.6949 80.2409 56.5321 80.2409 59.7136 78.5563L81.8931 66.8562L84.794 65.1716L84.1389 64.7971V63.1124L83.5778 63.3936C82.2676 64.142 80.8635 64.5165 79.46 64.5165C78.0559 64.5165 76.6524 64.142 75.3423 63.3936C74.1254 62.7379 46.5186 46.6389 46.1441 46.3584L45.9569 46.265V46.0778C45.9569 46.0778 46.0508 45.3288 46.3314 44.2059L44.3661 45.3288ZM90.7837 65.0782C90.9709 64.9843 91.1576 64.7971 91.1576 64.5165V61.7083L87.321 59.4619C87.2271 59.3685 87.1337 59.4619 87.1337 59.4619L85.8236 60.2109L89.7541 62.5506V65.7333L90.7837 65.0782ZM89.0057 65.7333V62.9251L85.1685 60.6787C85.0752 60.5854 84.9812 60.6787 84.9812 60.6787C84.9812 60.6787 84.8879 60.7726 84.8879 60.866V64.4226L88.1633 66.2951C88.3506 66.3884 88.6312 66.3884 88.8184 66.2951C88.9117 66.2012 89.0057 66.0139 89.0057 65.7333ZM68.5108 52.6292L67.1068 32.8804L59.9948 28.762C53.5373 34.3778 50.7297 39.9002 49.5135 43.5508C48.8584 45.516 49.7007 47.5752 51.4787 48.6048C57.5617 52.2553 70.9439 60.1175 72.8152 61.1471C73.6576 61.615 74.7805 61.8022 75.7168 61.4277C76.6524 61.1471 77.4948 60.3981 77.8693 59.4619C80.2084 54.1273 83.765 49.3538 88.3506 45.2354L67.8558 33.2549L69.2593 52.4426L68.5108 52.6292ZM106.224 13.6926C103.885 12.2885 100.984 12.2885 98.6447 13.6926L95.9304 15.284C97.7084 15.3773 99.2058 15.1901 100.797 14.4417L100.984 14.3477L124.286 28.013L132.147 32.5058L134.487 33.816L133.925 34.0972L105.195 50.8512V37.186L105.383 37.092C114.554 33.0676 120.917 33.7227 125.503 34.2845C128.404 34.565 130.837 34.8456 132.896 33.816L131.024 32.6931C130.182 32.8804 129.34 32.9737 128.404 32.9737C127.187 32.9737 125.877 32.8804 124.473 32.6931C121.479 32.4125 117.829 32.038 113.244 32.7864H113.15L85.6363 16.7814L86.6659 16.6881C90.3158 16.3136 93.2167 16.6881 95.8371 16.9687C98.738 17.3432 101.171 17.5304 103.324 16.6881L100.89 15.284C98.3635 16.5008 95.8371 16.1263 92.5617 15.8451C86.8532 15.1901 79.0855 14.3477 66.6389 21.5549C48.8584 31.9441 46.7992 44.2992 46.6119 46.0778C46.9864 46.265 48.016 46.9201 49.3262 47.6685C48.5772 46.4523 48.3905 44.8609 48.8584 43.4568C50.0746 39.713 52.9761 34.0033 59.7136 28.2002L59.9948 27.9197L89.6607 45.2354L89.2862 45.516C84.5134 49.6344 80.9574 54.5012 78.6177 59.8364C78.1498 60.9599 77.2142 61.8022 75.9973 62.1767C75.6228 62.2701 75.2489 62.364 74.8744 62.364C75.4356 62.6446 75.7168 62.8318 75.7168 62.8318C78.0559 64.142 80.9574 64.142 83.2966 62.8318L84.2328 62.2701V60.866C84.2328 60.4914 84.4201 60.2109 84.7007 60.0236L86.8532 58.8068C87.1337 58.6195 87.5082 58.7134 87.6955 58.8068L88.9117 59.5558L103.23 51.2257V38.964C103.043 39.0579 102.856 39.1512 102.668 39.2452L99.5803 47.0134L98.9252 46.7329L101.733 39.713C101.171 39.9936 100.516 40.3681 99.9548 40.7426C86.3853 48.6981 81.9864 57.6839 80.5829 62.364L79.9278 62.1767C81.3313 57.4033 85.8236 48.2303 99.6736 40.1808C100.984 39.4324 102.294 38.6834 103.511 38.1216L103.979 37.8411V51.6936L89.5668 60.0236L91.626 61.2405L135.142 35.8752C136.078 35.314 136.639 34.2845 136.639 33.2549C136.639 32.1313 136.078 31.1957 135.142 30.6339L106.224 13.6926ZM104.073 17.062C101.546 18.2788 99.0185 17.9043 95.7431 17.6237C93.404 17.3432 90.877 17.062 87.7888 17.2492L113.43 32.1313C118.016 31.3829 121.76 31.7568 124.661 32.038C126.719 32.2253 128.497 32.4125 130.182 32.2253L123.912 28.5747L104.073 17.062ZM130.744 35.1268C129.152 35.314 127.468 35.1268 125.503 34.9395C120.73 34.4717 114.834 33.816 105.944 37.6538V49.6344L130.744 35.1268ZM127.842 69.4772C131.492 67.3247 134.487 62.1767 134.487 57.9644C134.487 57.1221 134.3 56.467 134.206 55.8119C133.925 54.8757 133.177 54.1273 133.083 54.1273C131.867 53.0977 130.089 53.191 128.217 54.3145C124.567 56.467 121.573 61.615 121.573 65.8267C121.573 67.7925 122.228 69.2899 123.444 69.945C124.567 70.6001 126.158 70.4128 127.842 69.4772ZM132.615 53.0037C132.147 51.9741 131.399 51.3191 130.463 50.9445C129.901 50.7573 129.246 50.664 128.591 50.664L132.615 53.0037ZM118.016 66.7629L121.479 68.8221C121.105 67.9798 120.824 66.9502 120.824 65.8267C120.824 61.3344 124.006 55.9053 127.842 53.6588C128.872 53.0977 129.901 52.7232 130.744 52.7232L127.374 50.7573C126.626 50.9445 125.877 51.2257 125.035 51.6936C120.73 54.2206 117.08 60.1175 116.612 65.2655C117.08 66.0139 117.455 66.4817 118.016 66.7629ZM124.848 51.1318C127 49.915 129.059 49.5405 130.744 50.2895C132.147 50.8512 133.177 52.0681 133.645 53.6588C133.832 53.8461 134.393 54.4078 134.768 55.2502L135.797 54.5951C138.417 53.0977 140.008 50.1961 140.008 47.2007V36.7175C140.008 34.659 138.885 32.7864 137.201 31.7568L137.013 31.6635C137.201 32.1313 137.388 32.6931 137.388 33.2549C137.388 34.659 136.639 35.8752 135.517 36.5309L103.885 54.9696V73.315L115.957 66.2951C116.145 60.5854 120.075 53.94 124.848 51.1318ZM88.0694 79.2113C88.0694 79.2113 88.1633 79.2113 88.1633 79.3046C88.3506 79.3986 88.4439 79.4919 88.6312 79.5858C88.1633 78.2757 87.4143 77.3394 86.3853 76.7776C85.543 76.3098 84.5134 76.3098 83.3905 76.4971L88.0694 79.2113ZM83.016 95.4975C86.6659 93.3444 89.6607 88.1965 89.6607 83.9848C89.6607 82.0195 89.0057 80.5215 87.7888 79.8664C87.321 79.5858 86.7592 79.4919 86.1981 79.4919C85.3557 79.4919 84.3261 79.7731 83.2966 80.3342C79.6473 82.4874 76.6524 87.6353 76.6524 91.847C76.6524 93.8129 77.3075 95.3103 78.5243 95.9654C79.7406 96.6204 81.3313 96.5271 83.016 95.4975ZM73.1897 92.8766L76.6524 94.9358C76.2779 94.0934 75.9973 93.0638 75.9973 91.9409C75.9973 87.4481 79.1794 82.0195 83.016 79.7731C84.0456 79.2113 84.9812 78.8368 85.9169 78.8368L82.4548 76.8716C81.8931 77.0588 81.3313 77.3394 80.8635 77.62C76.2779 80.3342 72.4413 86.8863 72.3474 92.2215C72.6286 92.4088 72.8152 92.6893 73.1897 92.8766ZM71.6923 91.9409C71.8796 86.3245 75.8101 79.6792 80.5829 76.8716C82.8287 75.5608 85.0752 75.2802 86.8532 76.1226C88.4439 76.8716 89.4735 78.5563 89.7541 80.7087C89.8474 80.896 89.9413 81.0833 90.0346 81.2705L103.324 73.5016V55.2502L91.9999 61.8955V64.5165C91.9999 64.9843 91.7193 65.4521 91.3448 65.6394L89.2862 66.8562C89.099 66.9502 88.8184 67.0435 88.6312 67.0435C88.4439 67.0435 88.1633 66.9502 87.9761 66.8562L85.7303 65.5461L82.4548 67.418L60.2753 79.118C58.5907 79.9604 56.8127 80.4282 55.0347 80.4282C53.0694 80.4282 51.1975 79.9604 49.4195 78.9308L25.7432 65.1716C24.8076 64.6098 24.2458 63.7675 24.1525 62.6446C24.1525 62.364 24.1525 61.9895 24.2458 61.7083L23.778 62.0828C23.029 62.6446 22.4678 63.3936 21.906 64.142C21.7188 65.6394 22 66.3884 23.029 66.9502L23.2162 67.0435V71.9109L22.6551 71.6297C21.6255 71.0685 20.8771 70.2262 20.3153 69.1966C20.3153 69.2899 20.3153 69.2899 20.3153 69.3833V74.4379C20.3153 74.7185 20.5026 75.093 20.7831 75.1869L24.1525 77.1522V76.6843C24.1525 76.2165 24.4331 75.842 24.8076 75.5608C25.1815 75.3735 25.6493 75.3735 26.1177 75.5608L45.3957 86.793C46.7992 87.6353 47.7355 89.1327 47.7355 90.8174V90.9113L54.6602 95.2163C56.6254 96.3399 59.0585 96.3399 61.0238 95.2163L64.1125 93.4383L66.6389 94.9358L71.6923 91.9409ZM16.4781 78.4623L55.128 100.926C57.0933 102.05 59.5269 102.05 61.4922 100.926L66.3583 98.1179V95.9654L60.3687 99.4286C59.7136 99.8031 59.0585 99.9904 58.3101 99.9904C57.5617 99.9904 56.9066 99.8031 56.2515 99.4286L16.1976 76.1226C16.1042 76.0292 16.0103 76.0292 15.917 75.9353V77.4327C15.917 77.8072 16.1042 78.1817 16.4781 78.4623ZM83.016 83.1424C84.1389 82.4874 85.2618 82.3934 86.1041 82.8619C86.9465 83.3297 87.4143 84.3593 87.4143 85.6694C87.4143 88.1965 85.6363 91.2852 83.3905 92.596C82.7354 92.9705 82.0803 93.1572 81.5186 93.1572C81.0507 93.1572 80.6762 93.0638 80.3023 92.8766C79.46 92.4088 78.9922 91.3792 78.9922 90.069C78.9922 87.5414 80.7702 84.4526 83.016 83.1424ZM80.6762 92.3148C81.3313 92.6893 82.0803 92.596 83.016 92.0342C84.9812 90.9113 86.6659 88.0098 86.6659 85.6694C86.6659 84.6399 86.2914 83.8915 85.7303 83.517C85.4491 83.3297 85.1685 83.3297 84.8879 83.3297C84.4201 83.3297 83.9516 83.517 83.3905 83.7975C81.3313 84.9211 79.7406 87.8226 79.7406 90.1623C79.7406 91.1919 80.0211 91.9409 80.6762 92.3148ZM127.842 57.1221C128.966 56.467 130.089 56.3737 130.931 56.8415C131.773 57.3093 132.241 58.3389 132.241 59.6491C132.241 62.1767 130.463 65.2655 128.217 66.5757C127.562 66.9502 126.907 67.1374 126.345 67.1374C125.877 67.1374 125.503 67.0435 125.129 66.8562C124.286 66.3884 123.818 65.3588 123.818 64.0487C123.912 61.521 125.69 58.4329 127.842 57.1221ZM125.503 66.2951C126.158 66.669 126.907 66.5757 127.842 66.0139C129.901 64.891 131.492 61.9895 131.492 59.6491C131.492 58.6195 131.118 57.8711 130.556 57.4966C130.276 57.3093 129.995 57.3093 129.714 57.3093C129.246 57.3093 128.778 57.4966 128.217 57.7772C126.251 58.9007 124.567 61.8022 124.567 64.142C124.567 65.1716 124.941 65.9206 125.503 66.2951ZM115.209 36.9048L111.934 44.2059L112.682 44.4864L115.957 37.186L115.209 36.9048ZM56.0643 47.6685L56.7194 47.5752L56.0643 38.964L55.4092 39.0579L56.0643 47.6685Z" fill="#035782"/>
</g>
</g>
<defs>
<filter id="filter0_d_7210_3460" x="0.0679684" y="0.907812" width="155.79" height="120.803" filterUnits="userSpaceOnUse" color-interpolation-filters="sRGB">
<feFlood flood-opacity="0" result="BackgroundImageFix"/>
<feColorMatrix in="SourceAlpha" type="matrix" values="0 0 0 0 0 0 0 0 0 0 0 0 0 0 0 0 0 0 127 0" result="hardAlpha"/>
<feOffset dy="4"/>
<feGaussianBlur stdDeviation="7.55"/>
<feComposite in2="hardAlpha" operator="out"/>
<feColorMatrix type="matrix" values="0 0 0 0 0 0 0 0 0 0 0 0 0 0 0 0 0 0 1 0"/>
<feBlend mode="normal" in2="BackgroundImageFix" result="effect1_dropShadow_7210_3460"/>
<feBlend mode="normal" in="SourceGraphic" in2="effect1_dropShadow_7210_3460" result="shape"/>
</filter>
</defs>
</svg>
