<svg width="38" height="37" viewBox="0 0 38 37" fill="none" xmlns="http://www.w3.org/2000/svg">
<path d="M25.3803 14.1562L20.7603 18.7744L25.3803 23.3926C25.5106 23.5229 25.614 23.6776 25.6845 23.8479C25.755 24.0182 25.7913 24.2007 25.7913 24.385C25.7913 24.5693 25.755 24.7518 25.6845 24.9221C25.614 25.0923 25.5106 25.247 25.3803 25.3774C25.25 25.5077 25.0953 25.6111 24.925 25.6816C24.7547 25.7521 24.5722 25.7884 24.3879 25.7884C24.2036 25.7884 24.0211 25.7521 23.8509 25.6816C23.6806 25.6111 23.5259 25.5077 23.3956 25.3774L18.7773 20.7574L14.1591 25.3774C14.0288 25.5077 13.8741 25.6111 13.7038 25.6816C13.5336 25.7521 13.3511 25.7884 13.1668 25.7884C12.9825 25.7884 12.8 25.7521 12.6297 25.6816C12.4594 25.6111 12.3047 25.5077 12.1744 25.3774C12.0441 25.247 11.9407 25.0923 11.8702 24.9221C11.7996 24.7518 11.7633 24.5693 11.7633 24.385C11.7633 24.2007 11.7996 24.0182 11.8702 23.8479C11.9407 23.6776 12.0441 23.5229 12.1744 23.3926L16.7944 18.7744L12.1744 14.1562C11.9112 13.893 11.7633 13.536 11.7633 13.1638C11.7633 12.7916 11.9112 12.4347 12.1744 12.1715C12.4376 11.9083 12.7946 11.7604 13.1668 11.7604C13.539 11.7604 13.896 11.9083 14.1591 12.1715L18.7773 16.7914L23.3956 12.1715C23.5259 12.0411 23.6806 11.9378 23.8509 11.8672C24.0211 11.7967 24.2036 11.7604 24.3879 11.7604C24.5722 11.7604 24.7547 11.7967 24.925 11.8672C25.0953 11.9378 25.25 12.0411 25.3803 12.1715C25.5106 12.3018 25.614 12.4565 25.6845 12.6268C25.755 12.797 25.7913 12.9795 25.7913 13.1638C25.7913 13.3481 25.755 13.5306 25.6845 13.7009C25.614 13.8712 25.5106 14.0259 25.3803 14.1562ZM37.0117 18.7744C37.0117 22.3808 35.9423 25.9063 33.9387 28.9049C31.9351 31.9035 29.0872 34.2407 25.7553 35.6208C22.4234 37.0009 18.7571 37.362 15.22 36.6584C11.6829 35.9548 8.43382 34.2182 5.8837 31.6681C3.33358 29.1179 1.59692 25.8689 0.893345 22.3318C0.189768 18.7946 0.550869 15.1283 1.93099 11.7964C3.3111 8.46452 5.64825 5.6167 8.64687 3.61308C11.6455 1.60947 15.1709 0.540039 18.7773 0.540039C23.6118 0.545144 28.2469 2.4679 31.6654 5.8864C35.0839 9.3049 37.0066 13.9399 37.0117 18.7744ZM34.2064 18.7744C34.2064 15.7228 33.3015 12.7398 31.6062 10.2025C29.9108 7.66517 27.5011 5.68759 24.6818 4.5198C21.8625 3.35201 18.7602 3.04646 15.7673 3.64179C12.7743 4.23713 10.0251 5.7066 7.86734 7.8644C5.70954 10.0222 4.24006 12.7714 3.64473 15.7643C3.0494 18.7573 3.35494 21.8596 4.52273 24.6789C5.69052 27.4982 7.66811 29.9079 10.2054 31.6032C12.7427 33.2986 15.7258 34.2035 18.7773 34.2035C22.868 34.1989 26.7897 32.5718 29.6822 29.6793C32.5747 26.7868 34.2018 22.865 34.2064 18.7744Z" fill="white"/>
</svg>
