<svg width="90" height="95" viewBox="0 0 90 95" fill="none" xmlns="http://www.w3.org/2000/svg">
<g filter="url(#filter0_d_7210_3417)">
<path d="M24.6836 18.2629L24.6682 18.2735L24.6522 18.2833C18.6109 21.983 16.386 27.7875 16.9599 34.8471C17.5372 41.9493 20.9539 50.2744 26.1772 58.8039C31.3851 67.3083 37.8202 74.0467 44.4625 77.705C51.0881 81.3541 57.8622 81.9181 63.9056 78.2172L63.9305 78.202L63.9566 78.189C72.6782 73.8437 76.7888 66.6279 77.4588 58.3834C78.1318 50.1029 75.3306 40.7557 70.1345 32.2706C59.7587 15.3274 40.0831 7.59962 24.6836 18.2629Z" fill="white" stroke="#055A8A" stroke-width="1.3352"/>
<path d="M24.4764 18.503C18.3994 22.2245 14.9006 28.9709 14.223 36.9592C13.5453 44.9471 15.699 54.1278 20.8795 62.5873C26.06 71.0469 33.2587 77.1382 40.6817 80.1654C48.1052 83.1927 55.7047 83.1426 61.7817 79.4212C67.8587 75.6997 71.3575 68.9533 72.0352 60.965C72.7128 52.9771 70.5591 43.7964 65.3786 35.3368C60.1981 26.8773 52.9995 20.786 45.5764 17.7588C38.153 14.7315 30.5534 14.7815 24.4764 18.503Z" fill="#179899" stroke="#055A8A" stroke-width="1.3352"/>
<path d="M29.1542 26.1449C24.628 28.9166 22.0098 33.9485 21.5022 39.9325C20.9946 45.9161 22.6077 52.8028 26.4969 59.1536C30.386 65.5044 35.7869 70.0715 41.3475 72.3392C46.9083 74.6069 52.5805 74.5619 57.1067 71.7901C61.6329 69.0184 64.2511 63.9865 64.7587 58.0025C65.2663 52.0189 63.6531 45.1322 59.764 38.7814C55.8749 32.4306 50.4739 27.8635 44.9134 25.5958C39.3525 23.3281 33.6804 23.3731 29.1542 26.1449Z" fill="white" stroke="#055A8A" stroke-width="1.3352"/>
<path d="M33.0885 32.5695C29.8677 34.5419 27.9907 38.1305 27.6262 42.4274C27.2618 46.7239 28.42 51.6795 31.2221 56.2552C34.0242 60.831 37.9119 64.1151 41.9045 65.7433C45.8976 67.3717 49.9472 67.3309 53.168 65.3586C56.3888 63.3862 58.2658 59.7976 58.6303 55.5007C58.9948 51.2042 57.8366 46.2486 55.0345 41.6729C52.2324 37.0971 48.3447 33.813 44.352 32.1848C40.359 30.5564 36.3093 30.5972 33.0885 32.5695Z" fill="#179899" stroke="#055A8A" stroke-width="1.3352"/>
<path d="M36.1233 37.529C33.9085 38.8852 32.6028 41.3616 32.3486 44.3583C32.0944 47.3546 32.9019 50.822 34.8663 54.0298C36.8307 57.2375 39.5522 59.5329 42.3366 60.6684C45.1213 61.804 47.9206 61.7665 50.1354 60.4103C52.3502 59.054 53.6559 56.5776 53.9101 53.5809C54.1643 50.5847 53.3567 47.1172 51.3924 43.9095C49.428 40.7017 46.7065 38.4064 43.9221 37.2709C41.1373 36.1352 38.338 36.1727 36.1233 37.529Z" fill="white" stroke="#055A8A" stroke-width="1.3352"/>
</g>
<path d="M9.58029 58.3222L14.3452 61.0753L13.2696 65.929L7.30955 68.5696L8.44507 63.4452L2.51126 62.1303L9.58029 58.3222Z" fill="#179899" stroke="#004183" stroke-width="1.3352"/>
<path d="M8.36719 63.5752L43.1358 48.969" stroke="#004183" stroke-width="2.6704" stroke-linecap="round"/>
<defs>
<filter id="filter0_d_7210_3417" x="11.4336" y="12.7002" width="72.791" height="78.3003" filterUnits="userSpaceOnUse" color-interpolation-filters="sRGB">
<feFlood flood-opacity="0" result="BackgroundImageFix"/>
<feColorMatrix in="SourceAlpha" type="matrix" values="0 0 0 0 0 0 0 0 0 0 0 0 0 0 0 0 0 0 127 0" result="hardAlpha"/>
<feOffset dx="2" dy="4"/>
<feGaussianBlur stdDeviation="2"/>
<feComposite in2="hardAlpha" operator="out"/>
<feColorMatrix type="matrix" values="0 0 0 0 0 0 0 0 0 0 0 0 0 0 0 0 0 0 0.25 0"/>
<feBlend mode="normal" in2="BackgroundImageFix" result="effect1_dropShadow_7210_3417"/>
<feBlend mode="normal" in="SourceGraphic" in2="effect1_dropShadow_7210_3417" result="shape"/>
</filter>
</defs>
</svg>
