<svg width="103" height="73" viewBox="0 0 103 73" fill="none" xmlns="http://www.w3.org/2000/svg">
<path d="M14.5156 31.0078V49.6955C14.5156 58.6376 20.4276 66.5917 29.0814 68.8439C37.4243 71.0152 43.7997 72.2359 50.5672 72.3963C58.6882 71.6247 65.1957 70.4171 72.0098 68.685C80.8405 66.4402 86.6057 58.0575 86.2112 48.9545L85.4333 31.0078" stroke="#035782"/>
<path d="M20.3184 48.3521C20.3184 52.9513 23.3735 57.5419 29.4412 61.0633C41.6198 68.08 61.3412 68.08 73.5061 61.0633C79.5869 57.5419 82.6355 52.9513 82.6355 48.3521V28.5991H20.3184V48.3521Z" fill="#01C8A9"/>
<mask id="mask0_7210_3437" style="mask-type:luminance" maskUnits="userSpaceOnUse" x="0" y="2" width="103" height="60">
<path d="M0.515625 2.58887H102.788V61.6474H0.515625V2.58887Z" fill="white"/>
</mask>
<g mask="url(#mask0_7210_3437)">
<path d="M0.515625 29.6457V32.0762L51.5928 61.5533L102.669 32.0762V29.6457L51.5928 2.59863L0.515625 29.6457Z" fill="#035782"/>
</g>
<mask id="mask1_7210_3437" style="mask-type:luminance" maskUnits="userSpaceOnUse" x="0" y="0" width="103" height="60">
<path d="M0.515625 0.125H102.788V59.1575H0.515625V0.125Z" fill="white"/>
</mask>
<g mask="url(#mask1_7210_3437)">
<path d="M0.515625 29.6616L51.5928 59.1387L102.669 29.6616L51.5928 0.18457L0.515625 29.6616Z" fill="white"/>
</g>
</svg>
