<svg width="93" height="96" viewBox="0 0 93 96" fill="none" xmlns="http://www.w3.org/2000/svg">
<mask id="mask0_7210_3322" style="mask-type:luminance" maskUnits="userSpaceOnUse" x="73" y="31" width="11" height="20">
<path d="M73.25 31.8047H83.1891V50.4582H73.25V31.8047Z" fill="white"/>
</mask>
<g mask="url(#mask0_7210_3322)">
<mask id="mask1_7210_3322" style="mask-type:luminance" maskUnits="userSpaceOnUse" x="73" y="31" width="11" height="20">
<path d="M78.9408 50.4511L74.0466 47.5725L77.251 39.9376L73.2539 37.6665C73.9207 35.8271 74.3604 33.8857 74.811 31.8081L83.1654 36.6732L78.9408 50.4511Z" fill="white"/>
</mask>
<g mask="url(#mask1_7210_3322)">
<mask id="mask2_7210_3322" style="mask-type:luminance" maskUnits="userSpaceOnUse" x="73" y="31" width="11" height="20">
<path d="M78.9408 50.4497L74.0466 47.571L77.251 39.9361L73.2539 37.665C73.9207 35.8256 74.3604 33.8842 74.811 31.8066L83.1654 36.6718L78.9408 50.4497Z" fill="white"/>
</mask>
<g mask="url(#mask2_7210_3322)">
<mask id="mask3_7210_3322" style="mask-type:luminance" maskUnits="userSpaceOnUse" x="66" y="28" width="25" height="27">
<path d="M81.5041 54.1805L90.0731 34.9294L74.9143 28.0737L66.3477 47.3247L81.5041 54.1805Z" fill="white"/>
</mask>
<g mask="url(#mask3_7210_3322)">
<path d="M81.5026 54.1818L90.0706 34.9308L74.9137 28.0737L66.3457 47.3247L81.5026 54.1818Z" fill="#035782"/>
</g>
</g>
</g>
</g>
<path d="M45.5695 21.9375L77.2521 39.9421L74.008 47.6703L40.1016 33.4024L45.5695 21.9375Z" fill="#739CC6"/>
<path d="M15.2965 39.5053L45.5702 21.9375L45.5061 45.1164L15.2324 62.6842L15.2965 39.5053Z" fill="#739AC4"/>
<path d="M36.8908 11.4796C37.8163 10.9386 39.0176 10.9832 40.3295 11.7492L10.0559 29.3148C8.74622 28.5533 7.54266 28.5064 6.61719 29.0475L36.8908 11.4796Z" fill="#01C8A9"/>
<path d="M40.3303 11.7422C43.2299 13.4299 45.582 17.9986 45.5707 21.9374L15.297 39.5052C15.3083 35.5664 12.9585 30.9977 10.0566 29.3077L40.3303 11.7422Z" fill="#01C8A9"/>
<g filter="url(#filter0_d_7210_3322)">
<mask id="mask4_7210_3322" style="mask-type:luminance" maskUnits="userSpaceOnUse" x="4" y="28" width="12" height="35">
<path d="M4.70898 28.6562H15.3496V62.6989H4.70898V28.6562Z" fill="white"/>
</mask>
<g mask="url(#mask4_7210_3322)">
<path d="M10.0559 29.3086C12.9578 30.9986 15.3076 35.5673 15.2963 39.5061L15.2322 62.685L4.70898 56.5598L4.77535 33.3809C4.78618 29.4443 7.15583 27.6209 10.0559 29.3086Z" fill="white"/>
</g>
</g>
<path d="M15.2617 51.9852L15.2793 46.0003C15.5114 46.4548 15.9308 46.8797 16.5447 47.2385L19.9681 49.2291L15.2617 51.9852ZM15.2906 42.2395L15.2969 39.5075L30.0408 30.9531C29.6918 31.7123 29.5681 32.4851 30.0254 33.1395L16.5226 41.0504C15.9353 41.3956 15.5245 41.8032 15.2906 42.2395Z" fill="#035782"/>
<path d="M15.296 39.5118C15.296 39.5054 15.296 39.4986 15.296 39.4895C15.2983 37.9466 14.9362 36.3058 14.3223 34.7806C14.5958 34.3908 14.9249 34.0879 15.2983 33.8807L15.2518 33.903L34.2821 22.8594C33.4497 25.0813 32.5553 27.2791 31.1793 29.1517C30.7798 29.695 30.3315 30.3226 30.0399 30.9574L15.296 39.5118Z" fill="#01C8A9"/>
<path d="M15.2334 62.5164L13.3477 61.4166L13.4113 38.24C13.4158 36.7617 13.7517 35.5813 14.3237 34.7734C14.9377 36.2986 15.2997 37.9394 15.2975 39.4824C15.2975 39.4915 15.2975 39.4983 15.2975 39.5047L15.2911 42.2367C15.0812 42.6242 15.0126 43.0341 15.0835 43.4371L15.0568 43.4326V45.2159L15.0677 45.2114C15.079 45.4764 15.1494 45.7415 15.2799 45.9974L15.2622 51.9824L15.2334 62.5164Z" fill="#01C8A9"/>
<path d="M75.1114 54.6797L75.0807 65.3786L47.5586 81.5037L47.5875 70.8048L75.1114 54.6797Z" fill="#01C8A9"/>
<g filter="url(#filter1_d_7210_3322)">
<path d="M47.5868 70.8014L47.5579 81.5003L15.2324 62.6856L15.2613 51.9844L47.5868 70.8014Z" fill="#01C8A9"/>
</g>
<path d="M75.1111 54.6759L47.5872 70.801L15.2617 51.984L42.7861 35.8594L75.1111 54.6759Z" fill="#01C8A9"/>
<path d="M47.5787 75.0978L47.5742 75.0933L47.5855 70.8047L47.5787 75.0978Z" fill="#01C8A9"/>
<path d="M47.5749 75.09L15.2539 56.2775L15.2607 51.9844L47.5862 70.8014L47.5749 75.09Z" fill="#01C8A9"/>
<path d="M47.971 76.1021L75.1022 60.2061L75.1107 54.6797L47.5868 70.8048L47.5801 75.8748L47.971 76.1021Z" fill="#01C8A9"/>
<path d="M16.5161 55.9279C15.5197 55.3491 15.0231 54.5853 15.0254 53.8239L15.0561 43.125C15.0538 43.8864 15.5509 44.6479 16.5445 45.229L16.5161 55.9279Z" fill="#035782"/>
<path d="M70.6673 56.55C70.6673 57.3028 70.1789 58.051 69.2051 58.623L69.2362 47.9246C70.21 47.3544 70.6958 46.6016 70.698 45.8516L70.6673 56.55Z" fill="#035782"/>
<path d="M69.2363 47.9219L69.2052 58.6203L48.8164 70.5661L48.8476 59.8672L69.2363 47.9219Z" fill="#035782"/>
<path d="M41.6811 59.8653L41.65 70.5642L16.5156 55.9333L16.5441 45.2344L41.6811 59.8653Z" fill="#035782"/>
<path d="M48.8167 70.5706C46.8515 71.7219 43.6291 71.7174 41.6504 70.5661L41.6815 59.8672C43.658 61.0185 46.8822 61.023 48.8478 59.8717L48.8167 70.5706Z" fill="#035782"/>
<path d="M69.2027 43.7365C71.1814 44.8878 71.2013 46.7714 69.2362 47.9226L48.8474 59.868C46.8818 61.0193 43.6576 61.0147 41.6811 59.8634L16.544 45.2326C14.5676 44.0817 14.5563 42.2045 16.5219 41.051L36.9107 29.1056C38.8763 27.9544 42.0915 27.9544 44.0684 29.1056L69.2027 43.7365Z" fill="#01C8A9"/>
<path d="M70.697 45.8496H70.6948C70.697 45.0836 70.2 44.3176 69.2018 43.7365L44.0674 29.1056C42.0906 27.9544 38.8753 27.9544 36.9097 29.1056L16.521 41.051C15.4082 41.7036 14.9509 42.5875 15.1057 43.4423L15.0547 43.436V45.2193L15.0655 45.2148C15.0967 45.9498 15.5847 46.6798 16.5431 47.2391L41.6802 61.87C43.6566 63.0208 46.8809 63.0253 48.8465 61.8741L69.2352 49.9287C70.1647 49.3831 70.6352 48.6727 70.6794 47.9559L70.697 47.9714V45.8496Z" fill="#01C8A9"/>
<path d="M34.2832 22.8547C35.043 20.8309 35.7545 18.7843 36.735 16.9453C36.0678 18.6709 35.5003 20.441 35.1644 22.3446L34.2832 22.8547Z" fill="#035782"/>
<path d="M30.0254 33.1383C29.5681 32.4838 29.6918 31.711 30.0408 30.9519L33.1481 29.1484C32.8984 29.6558 32.8388 30.3284 33.223 31.2656L30.0254 33.1383Z" fill="#01C8A9"/>
<path d="M30.041 30.9519C30.3327 30.317 30.7809 29.6895 31.1805 29.1462C32.5565 27.2735 33.4508 25.0757 34.2833 22.8538L35.1645 22.3438C34.8909 23.8849 34.7695 25.5166 34.8665 27.2845C34.8932 27.7768 33.6454 28.1352 33.1483 29.1485L30.041 30.9519Z" fill="#01C8A9"/>
<path d="M66.0762 47.3752C65.7584 47.3752 65.4424 47.2436 65.1467 47.1147C56.5976 43.3918 48.0463 39.6711 39.4972 35.9459C37.4504 35.0555 35.3434 34.1493 33.1128 34.0536C32.0172 34.0067 30.7233 34.0714 30.0629 33.1897C30.0498 33.1738 30.0362 33.156 30.0254 33.1383L33.223 31.2656C33.232 31.2834 33.2388 31.3034 33.2474 31.3212C33.7422 32.4861 35.5904 32.1764 37.1389 32.3946C37.6689 32.4702 38.1614 32.6063 38.5546 32.8823C42.786 35.8593 55.3895 40.7354 63.5431 43.3604C64.7666 43.7547 66.1778 46.0969 67.4125 46.0969C67.4256 46.0969 67.4391 46.0969 67.45 46.0969C67.4432 46.1128 67.4369 46.1283 67.4301 46.1438C67.1917 46.6739 66.8468 47.2436 66.2794 47.3552C66.2112 47.3684 66.1426 47.3752 66.0762 47.3752Z" fill="#01C8A9"/>
<path d="M79.2419 16.1608C78.8226 15.3948 75.0656 15.7978 74.3767 15.2677C64.4539 7.63283 60.4789 6.14775 48.2857 3.45127C45.8677 2.91708 40.5429 -1.67662 40.0021 3.11291C39.8364 4.59116 40.8034 6.72429 40.3222 8.13378C38.1114 14.5978 34.4452 19.652 34.8651 27.2823C34.9048 28.0237 32.0336 28.465 33.2462 31.3191C33.9111 32.8802 37.0072 31.7936 38.5534 32.8802C42.7848 35.8572 55.3883 40.7333 63.5419 43.3582C64.8782 43.7881 66.433 46.5333 67.7427 46.0347C68.7562 45.6476 70.1895 43.1178 70.8387 42.2429C74.6218 37.1528 74.3767 31.3191 76.8104 23.9629C77.875 20.7408 80.4432 18.3495 79.2419 16.1608Z" fill="white"/>
<mask id="mask5_7210_3322" style="mask-type:luminance" maskUnits="userSpaceOnUse" x="37" y="15" width="43" height="31">
<path d="M37.0762 15.4844H79.375V45.9129H37.0762V15.4844Z" fill="white"/>
</mask>
<g mask="url(#mask5_7210_3322)">
<mask id="mask6_7210_3322" style="mask-type:luminance" maskUnits="userSpaceOnUse" x="32" y="0" width="48" height="47">
<path d="M79.2419 16.1637C78.8226 15.3977 75.0656 15.8008 74.3767 15.2707C64.4539 7.63576 60.4789 6.15068 48.2857 3.4542C45.8677 2.92001 40.5429 -1.67369 40.0021 3.11584C39.8364 4.59409 40.8034 6.72722 40.3222 8.13671C38.1114 14.6008 34.4452 19.6549 34.8651 27.2853C34.9048 28.0267 32.0336 28.4679 33.2462 31.322C33.9111 32.8831 37.0072 31.7965 38.5534 32.8831C42.7848 35.8601 55.3883 40.7362 63.5419 43.3612C64.8782 43.7911 66.433 46.5363 67.7427 46.0376C68.7562 45.6505 70.1895 43.1207 70.8387 42.2459C74.6218 37.1558 74.3767 31.322 76.8104 23.9658C77.875 20.7438 80.4432 18.3524 79.2419 16.1637Z" fill="white"/>
</mask>
<g mask="url(#mask6_7210_3322)">
<path d="M66.6018 45.8241C65.5838 45.1942 64.5039 43.6754 63.541 43.3658C55.3874 40.7408 42.7839 35.8647 38.5525 32.8877C38.1592 32.6118 37.6667 32.4756 37.1367 32.4C38.3777 31.7009 39.9655 31.4691 41.6774 31.4691C43.3536 31.4691 45.149 31.6918 46.8559 31.9122C48.5656 32.1349 50.1863 32.3576 51.5158 32.3576C51.602 32.3576 51.686 32.3576 51.77 32.3554C57.0835 32.2329 62.3221 31.0242 66.6375 27.7598C67.5648 27.0585 73.225 18.6508 76.0588 15.585C77.3725 15.6674 78.976 15.6829 79.241 16.1683C79.2898 16.2549 79.3318 16.3418 79.367 16.4311C76.3346 18.8311 74.1749 22.2111 72.0923 25.511C70.9944 27.2521 69.8793 29.0268 69.3403 31.0196C68.846 32.8385 68.8546 34.7558 68.5498 36.6171C68.1724 38.9305 67.3133 41.1393 66.865 43.4418C66.7147 44.221 66.6176 45.0248 66.6018 45.8241Z" fill="white"/>
</g>
</g>
<path d="M48.917 29.0914C48.5193 29.0914 48.029 29.0044 47.9473 28.6169C47.8832 28.3095 48.1459 28.0358 48.3978 27.8486C49.4668 27.0539 50.7454 26.6217 51.9647 26.0989C52.9516 25.6736 60.5354 20.1495 64.1023 18.5883C64.566 18.3857 64.9149 18.2969 65.1709 18.2969C66.7104 18.2969 64.8883 21.5121 64.3958 22.4916C63.2654 24.7404 61.9841 27.1363 59.7337 28.2275C58.2344 28.953 56.5117 28.9889 54.8486 29.0113C52.8834 29.04 50.9178 29.0645 48.9522 29.0914C48.9409 29.0914 48.9301 29.0914 48.917 29.0914Z" fill="white"/>
<path d="M42.9875 28.598C42.369 28.598 41.6621 27.9167 40.9863 26.4161C39.9994 24.227 39.6084 19.7672 40.4608 17.5521C40.5339 17.3604 40.6174 17.1623 40.77 17.0197C40.9226 16.8772 41.1235 16.8125 41.333 16.8125C41.5628 16.8125 41.8016 16.8908 41.9912 17.0197C42.3555 17.2693 42.5876 17.6678 42.8083 18.053C43.685 19.5868 44.7784 21.1544 44.8249 22.9245C44.9152 26.4448 44.0873 28.598 42.9875 28.598Z" fill="white"/>
<mask id="mask7_7210_3322" style="mask-type:luminance" maskUnits="userSpaceOnUse" x="57" y="46" width="32" height="42">
<path d="M57.9961 46.8438H88.4133V87.6187H57.9961V46.8438Z" fill="white"/>
</mask>
<g mask="url(#mask7_7210_3322)">
<path d="M58.1367 64.4438L88.4103 46.8765L88.3485 68.9196C88.3462 69.6209 87.9729 70.269 87.3702 70.6205L58.0703 87.6205L58.1367 64.4438Z" fill="#88B8E6"/>
</g>
<path d="M79.7365 36.4173C80.6598 35.8763 81.8588 35.9209 83.1662 36.6847L52.8948 54.2502C51.5851 53.4888 50.3861 53.4418 49.4629 53.9829L79.7365 36.4173Z" fill="#01C8A9"/>
<mask id="mask8_7210_3322" style="mask-type:luminance" maskUnits="userSpaceOnUse" x="52" y="36" width="37" height="29">
<path d="M52.7949 36.5859H88.4128V64.4496H52.7949V36.5859Z" fill="white"/>
</mask>
<g mask="url(#mask8_7210_3322)">
<path d="M83.1679 36.6797C86.0788 38.372 88.4218 42.9388 88.411 46.8776L58.1373 64.445C58.1482 60.5062 55.8052 55.9398 52.8965 54.2452L83.1679 36.6797Z" fill="#01C8A9"/>
</g>
<mask id="mask9_7210_3322" style="mask-type:luminance" maskUnits="userSpaceOnUse" x="47" y="53" width="12" height="35">
<path d="M47.4785 53.6172H58.2266V87.6302H47.4785V53.6172Z" fill="white"/>
</mask>
<g mask="url(#mask9_7210_3322)">
<path d="M52.8965 54.2507C55.8052 55.9453 58.1482 60.5117 58.1374 64.4505L58.071 87.6271L47.5586 81.5064L47.6227 58.3298C47.6335 54.391 49.9946 52.563 52.8965 54.2507Z" fill="white"/>
</g>
<g filter="url(#filter2_d_7210_3322)">
<mask id="mask10_7210_3322" style="mask-type:luminance" maskUnits="userSpaceOnUse" x="49" y="36" width="40" height="52">
<path d="M80.8086 36.0391H81.5422V36.0969H80.8086V36.0391ZM80.3563 36.0969H81.8248V36.1525H80.3563V36.0969ZM80.1861 36.1525H82.1074V36.2103H80.1861V36.1525ZM80.0159 36.2103H82.2776V36.2686H80.0159V36.2103ZM79.8461 36.2686H82.4474V36.3241H79.8461V36.2686ZM79.7906 36.3241H82.5602V36.382H79.7906V36.3241ZM79.6782 36.382H82.73V36.4375H79.6782V36.382ZM79.5631 36.4375H82.8428V36.4954H79.5631V36.4375ZM79.4507 36.4954H82.9552V36.5532H79.4507V36.4954ZM79.3956 36.5532H83.0704V36.6092H79.3956V36.5532ZM79.2805 36.6092H83.1828V36.6671H79.2805V36.6092ZM79.1681 36.6671H83.2956V36.7226H79.1681V36.6671ZM79.0552 36.7226H83.353V36.7805H79.0552V36.7226ZM78.9979 36.7805H83.4658V36.8383H78.9979V36.7805ZM78.8854 36.8383H83.5209V36.8939H78.8854V36.8383ZM78.7726 36.8939H83.6356V36.9522H78.7726V36.8939ZM78.6602 36.9522H83.6907V37.0077H78.6602V36.9522ZM78.6024 37.0077H83.8035V37.0656H78.6024V37.0077ZM78.49 37.0656H83.8609V37.1234H78.49V37.0656ZM78.3771 37.1234H83.9182V37.1789H78.3771V37.1234ZM78.3198 37.1789H83.9737V37.2368H78.3198V37.1789ZM78.2074 37.2368H84.0861V37.2928H78.2074V37.2368ZM78.0945 37.2928H84.1435V37.3506H78.0945V37.2928ZM77.9821 37.3506H84.2012V37.4085H77.9821V37.3506ZM77.9248 37.4085H84.2563V37.464H77.9248V37.4085ZM77.8119 37.464H84.3137V37.5219H77.8119V37.464ZM77.6995 37.5219H84.4265V37.5774H77.6995V37.5219ZM77.5844 37.5774H84.4839V37.6357H77.5844V37.5774ZM77.5293 37.6357H84.5389V37.6936H77.5293V37.6357ZM77.4164 37.6936H84.5963V37.7491H77.4164V37.6936ZM77.3018 37.7491H84.6513V37.807H77.3018V37.7491ZM77.1894 37.807H84.7091V37.8625H77.1894V37.807ZM77.1338 37.8625H84.7665V37.9204H77.1338V37.8625ZM77.0192 37.9204H84.8215V37.9782H77.0192V37.9204ZM76.9063 37.9782H84.8789V38.0342H76.9063V37.9782ZM76.7939 38.0342H84.9344V38.092H76.7939V38.0342ZM76.7366 38.092H84.9917V38.1476H76.7366V38.092ZM76.6237 38.1476H85.0491V38.2054H76.6237V38.1476ZM76.5113 38.2054H85.1041V38.2633H76.5113V38.2054ZM76.4539 38.2633H85.1619V38.3193H76.4539V38.2633ZM76.3411 38.3193H85.217V38.3771H76.3411V38.3193ZM76.2287 38.3771H85.217V38.4327H76.2287V38.3771ZM76.1158 38.4327H85.2743V38.4905H76.1158V38.4327ZM76.0585 38.4905H85.3317V38.5484H76.0585V38.4905ZM75.9456 38.5484H85.3872V38.6039H75.9456V38.5484ZM75.8332 38.6039H85.4445V38.6618H75.8332V38.6039ZM75.7203 38.6618H85.4996V38.7178H75.7203V38.6618ZM75.663 38.7178H85.4996V38.7756H75.663V38.7178ZM75.5506 38.7756H85.5569V38.8334H75.5506V38.7756ZM75.4377 38.8334H85.6143V38.889H75.4377V38.8334ZM75.3231 38.889H85.6698V38.9468H75.3231V38.889ZM75.268 38.9468H85.7271V39.0024H75.268V38.9468ZM75.1551 39.0024H85.7271V39.0607H75.1551V39.0024ZM75.0405 39.0607H85.7822V39.1185H75.0405V39.0607ZM74.9276 39.1185H85.8396V39.1741H74.9276V39.1185ZM74.8725 39.1741H85.8396V39.2319H74.8725V39.1741ZM74.7574 39.2319H85.8973V39.2875H74.7574V39.2319ZM74.645 39.2875H85.9524V39.3453H74.645V39.2875ZM74.5326 39.3453H86.0097V39.4036H74.5326V39.3453ZM74.4748 39.4036H86.0097V39.4592H74.4748V39.4036ZM74.3624 39.4592H86.0648V39.517H74.3624V39.4592ZM74.2495 39.517H86.1226V39.5726H74.2495V39.517ZM74.1922 39.5726H86.1226V39.6304H74.1922V39.5726ZM74.0798 39.6304H86.1799V39.6882H74.0798V39.6304ZM73.9669 39.6882H86.235V39.7443H73.9669V39.6882ZM73.8545 39.7443H86.235V39.8021H73.8545V39.7443ZM73.7967 39.8021H86.2924V39.8577H73.7967V39.8021ZM73.6843 39.8577H86.3479V39.9155H73.6843V39.8577ZM73.5719 39.9155H86.3479V39.9733H73.5719V39.9155ZM73.459 39.9733H86.4052V40.0289H73.459V39.9733ZM73.4017 40.0289H86.4052V40.0872H73.4017V40.0289ZM73.2888 40.0872H86.4625V40.1427H73.2888V40.0872ZM73.1764 40.1427H86.5176V40.2006H73.1764V40.1427ZM73.0613 40.2006H86.5176V40.2584H73.0613V40.2006ZM73.0062 40.2584H86.575V40.314H73.0062V40.2584ZM72.8938 40.314H86.575V40.3718H72.8938V40.314ZM72.7787 40.3718H86.6305V40.4278H72.7787V40.3718ZM72.6663 40.4278H86.6878V40.4857H72.6663V40.4278ZM72.6112 40.4857H86.6878V40.5435H72.6112V40.4857ZM72.4961 40.5435H86.7452V40.5991H72.4961V40.5435ZM72.3837 40.5991H86.7452V40.6569H72.3837V40.5991ZM72.3282 40.6569H86.8002V40.7125H72.3282V40.6569ZM72.2135 40.7125H86.8002V40.7708H72.2135V40.7125ZM72.1006 40.7708H86.858V40.8286H72.1006V40.7708ZM71.9882 40.8286H86.858V40.8841H71.9882V40.8286ZM71.9309 40.8841H86.9131V40.942H71.9309V40.8841ZM71.818 40.942H86.9131V40.9975H71.818V40.942ZM71.7056 40.9975H86.9704V41.0554H71.7056V40.9975ZM71.5928 41.0554H86.9704V41.1132H71.5928V41.0554ZM71.5354 41.1132H87.0278V41.1692H71.5354V41.1132ZM71.423 41.1692H87.0278V41.2271H71.423V41.1692ZM71.3101 41.2271H87.0833V41.2826H71.3101V41.2271ZM71.1977 41.2826H87.0833V41.3405H71.1977V41.2826ZM71.14 41.3405H87.1406V41.3983H71.14V41.3405ZM71.0275 41.3983H87.1406V41.4543H71.0275V41.3983ZM70.9147 41.4543H87.1957V41.5122H70.9147V41.4543ZM70.8 41.5122H87.1957V41.5677H70.8V41.5122ZM70.7449 41.5677H87.253V41.6256H70.7449V41.5677ZM70.6321 41.6256H87.253V41.6834H70.6321V41.6256ZM70.5174 41.6834H87.3104V41.7389H70.5174V41.6834ZM70.4623 41.7389H87.3104V41.7968H70.4623V41.7389ZM70.3495 41.7968H87.3104V41.8528H70.3495V41.7968ZM70.2348 41.8528H87.3659V41.9106H70.2348V41.8528ZM70.1219 41.9106H87.3659V41.9685H70.1219V41.9106ZM70.0669 41.9685H87.4232V42.024H70.0669V41.9685ZM69.9522 42.024H87.4232V42.0819H69.9522V42.024ZM69.8393 42.0819H87.4783V42.1379H69.8393V42.0819ZM69.7269 42.1379H87.4783V42.1957H69.7269V42.1379ZM69.6691 42.1957H87.4783V42.2536H69.6691V42.1957ZM69.5567 42.2536H87.5356V42.3091H69.5567V42.2536ZM69.4439 42.3091H87.5356V42.367H69.4439V42.3091ZM69.3315 42.367H87.5934V42.4225H69.3315V42.367ZM69.2741 42.4225H87.5934V42.4804H69.2741V42.4225ZM69.1613 42.4804H87.5934V42.5386H69.1613V42.4804ZM69.0488 42.5386H87.6485V42.5942H69.0488V42.5386ZM68.936 42.5942H87.6485V42.652H68.936V42.5942ZM68.8786 42.652H87.6485V42.7076H68.8786V42.652ZM68.7662 42.7076H87.7058V42.7654H68.7662V42.7076ZM68.6534 42.7654H87.7058V42.8233H68.6534V42.7654ZM68.596 42.8233H87.7058V42.8793H68.596V42.8233ZM68.4832 42.8793H87.7609V42.9371H68.4832V42.8793ZM68.3708 42.9371H87.7609V42.9927H68.3708V42.9371ZM68.2561 42.9927H87.8187V43.0505H68.2561V42.9927ZM68.2006 43.0505H87.8187V43.1084H68.2006V43.0505ZM68.0882 43.1084H87.8187V43.1639H68.0882V43.1084ZM67.973 43.1639H87.8187V43.2222H67.973V43.1639ZM67.8606 43.2222H87.876V43.2778H67.8606V43.2222ZM67.8056 43.2778H87.876V43.3356H67.8056V43.2778ZM67.6904 43.3356H87.876V43.3934H67.6904V43.3356ZM67.578 43.3934H87.9311V43.449H67.578V43.3934ZM67.4652 43.449H87.9311V43.5068H67.4652V43.449ZM67.4078 43.5068H87.9311V43.5629H67.4078V43.5068ZM67.2954 43.5629H87.9884V43.6207H67.2954V43.5629ZM67.1826 43.6207H87.9884V43.6785H67.1826V43.6207ZM67.0701 43.6785H87.9884V43.7341H67.0701V43.6785ZM67.0124 43.7341H87.9884V43.7919H67.0124V43.7341ZM66.9 43.7919H88.044V43.8475H66.9V43.7919ZM66.7871 43.8475H88.044V43.9058H66.7871V43.8475ZM66.6747 43.9058H88.044V43.9636H66.6747V43.9058ZM66.6173 43.9636H88.044V44.0192H66.6173V43.9636ZM66.5045 44.0192H88.1013V44.077H66.5045V44.0192ZM66.3921 44.077H88.1013V44.1326H66.3921V44.077ZM66.3347 44.1326H88.1013V44.1904H66.3347V44.1326ZM66.2219 44.1904H88.1013V44.2482H66.2219V44.1904ZM66.1095 44.2482H88.1586V44.3043H66.1095V44.2482ZM65.9943 44.3043H88.1586V44.3621H65.9943V44.3043ZM65.9393 44.3621H88.1586V44.4177H65.9393V44.3621ZM65.8264 44.4177H88.1586V44.4755H65.8264V44.4177ZM65.7117 44.4755H88.2137V44.5333H65.7117V44.4755ZM65.5993 44.5333H88.2137V44.5893H65.5993V44.5333ZM65.5438 44.5893H88.2137V44.6472H65.5438V44.5893ZM65.4291 44.6472H88.2137V44.7027H65.4291V44.6472ZM65.3163 44.7027H88.2137V44.7606H65.3163V44.7027ZM65.2039 44.7606H88.2137V44.8184H65.2039V44.7606ZM65.1465 44.8184H88.271V44.874H65.1465V44.8184ZM65.0337 44.874H88.271V44.9318H65.0337V44.874ZM64.9213 44.9318H88.271V44.9878H64.9213V44.9318ZM64.8084 44.9878H88.271V45.0457H64.8084V44.9878ZM64.7511 45.0457H88.271V45.1035H64.7511V45.0457ZM64.6386 45.1035H88.271V45.1591H64.6386V45.1035ZM64.5258 45.1591H88.3266V45.2169H64.5258V45.1591ZM64.4685 45.2169H88.3266V45.2729H64.4685V45.2169ZM64.3556 45.2729H88.3266V45.3308H64.3556V45.2729ZM64.2432 45.3308H88.3266V45.3886H64.2432V45.3308ZM64.1303 45.3886H88.3266V45.4441H64.1303V45.3886ZM64.073 45.4441H88.3266V45.502H64.073V45.4441ZM63.9606 45.502H88.3266V45.5575H63.9606V45.502ZM63.8477 45.5575H88.3839V45.6154H63.8477V45.5575ZM63.733 45.6154H88.3839V45.6737H63.733V45.6154ZM63.678 45.6737H88.3839V45.7292H63.678V45.6737ZM63.5651 45.7292H88.3839V45.7871H63.5651V45.7292ZM63.4504 45.7871H88.3839V45.8426H63.4504V45.7871ZM63.3376 45.8426H88.3839V45.9005H63.3376V45.8426ZM63.2825 45.9005H88.3839V45.9583H63.2825V45.9005ZM63.1674 45.9583H88.3839V46.0143H63.1674V45.9583ZM63.055 46.0143H88.3839V46.0722H63.055V46.0143ZM62.9421 46.0722H88.3839V46.1277H62.9421V46.0722ZM62.8848 46.1277H88.3839V46.1856H62.8848V46.1277ZM62.7724 46.1856H88.3839V46.2434H62.7724V46.1856ZM62.6595 46.2434H88.3839V46.299H62.6595V46.2434ZM62.6022 46.299H88.3839V46.3572H62.6022V46.299ZM62.4898 46.3572H88.3839V46.4128H62.4898V46.3572ZM62.3769 46.4128H88.3839V46.4706H62.3769V46.4128ZM62.2645 46.4706H88.3839V46.5285H62.2645V46.4706ZM62.2067 46.5285H88.3839V46.584H62.2067V46.5285ZM62.0943 46.584H88.3839V46.6419H62.0943V46.584ZM61.9814 46.6419H88.3839V46.6979H61.9814V46.6419ZM61.869 46.6979H88.3839V46.7557H61.869V46.6979ZM61.8117 46.7557H88.3839V46.8136H61.8117V46.7557ZM61.6988 46.8136H88.3839V46.8691H61.6988V46.8136ZM61.5864 46.8691H88.3839V46.927H61.5864V46.8691ZM61.4713 46.927H88.3839V46.9825H61.4713V46.927ZM61.4162 46.9825H88.3839V47.0408H61.4162V46.9825ZM61.3038 47.0408H88.3839V47.0986H61.3038V47.0408ZM61.1887 47.0986H88.3839V47.1542H61.1887V47.0986ZM61.0763 47.1542H88.3839V47.212H61.0763V47.1542ZM61.0207 47.212H88.3839V47.2676H61.0207V47.212ZM60.9061 47.2676H88.3839V47.3254H60.9061V47.2676ZM60.7937 47.3254H88.3839V47.3833H60.7937V47.3254ZM60.7381 47.3833H88.3839V47.4393H60.7381V47.3833ZM60.6235 47.4393H88.3839V47.4971H60.6235V47.4393ZM60.5106 47.4971H88.3839V47.5527H60.5106V47.4971ZM60.3982 47.5527H88.3839V47.6105H60.3982V47.5527ZM60.3409 47.6105H88.3839V47.6684H60.3409V47.6105ZM60.228 47.6684H88.3839V47.7244H60.228V47.6684ZM60.1156 47.7244H88.3839V47.7822H60.1156V47.7244ZM60.0027 47.7822H88.3839V47.8378H60.0027V47.7822ZM59.9454 47.8378H88.3839V47.8956H59.9454V47.8378ZM59.833 47.8956H88.3839V47.9534H59.833V47.8956ZM59.7201 47.9534H88.3839V48.009H59.7201V47.9534ZM59.6077 48.009H88.3839V48.0668H59.6077V48.009ZM59.5499 48.0668H88.3839V48.1229H59.5499V48.0668ZM59.4375 48.1229H88.3839V48.1807H59.4375V48.1229ZM59.3247 48.1807H88.3839V48.2385H59.3247V48.1807ZM59.21 48.2385H88.3839V48.2941H59.21V48.2385ZM59.1549 48.2941H88.3839V48.3519H59.1549V48.2941ZM59.042 48.3519H88.3839V48.4079H59.042V48.3519ZM58.9274 48.4079H88.3839V48.4658H58.9274V48.4079ZM58.8723 48.4658H88.3839V48.5236H58.8723V48.4658ZM58.7594 48.5236H88.3839V48.5792H58.7594V48.5236ZM58.6448 48.5792H88.3839V48.637H58.6448V48.5792ZM58.5319 48.637H88.3839V48.6926H58.5319V48.637ZM58.4768 48.6926H88.3839V48.7504H58.4768V48.6926ZM58.3622 48.7504H88.3839V48.8087H58.3622V48.7504ZM58.2493 48.8087H88.3839V48.8643H58.2493V48.8087ZM58.1369 48.8643H88.3839V48.9221H58.1369V48.8643ZM58.0791 48.9221H88.3839V48.9777H58.0791V48.9221ZM57.9667 48.9777H88.3839V49.0355H57.9667V48.9777ZM57.8538 49.0355H88.3839V49.0933H57.8538V49.0355ZM57.7414 49.0933H88.3839V49.1494H57.7414V49.0933ZM57.6841 49.1494H88.3839V49.2072H57.6841V49.1494ZM57.5712 49.2072H88.3839V49.2627H57.5712V49.2072ZM57.4588 49.2627H88.3839V49.3206H57.4588V49.2627ZM57.346 49.3206H88.3839V49.3784H57.346V49.3206ZM57.2886 49.3784H88.3839V49.434H57.2886V49.3784ZM57.1762 49.434H88.3839V49.4923H57.1762V49.434ZM57.0634 49.4923H88.3839V49.5478H57.0634V49.4923ZM56.9487 49.5478H88.3839V49.6057H56.9487V49.5478ZM56.8932 49.6057H88.3839V49.6635H56.8932V49.6057ZM56.7807 49.6635H88.3839V49.7191H56.7807V49.6635ZM56.6661 49.7191H88.3839V49.7769H56.6661V49.7191ZM56.6105 49.7769H88.3839V49.8329H56.6105V49.7769ZM56.4981 49.8329H88.3839V49.8908H56.4981V49.8329ZM56.383 49.8908H88.3839V49.9486H56.383V49.8908ZM56.2706 49.9486H88.3839V50.0042H56.2706V49.9486ZM56.2155 50.0042H88.3839V50.062H56.2155V50.0042ZM56.1004 50.062H88.3839V50.1175H56.1004V50.062ZM55.988 50.1175H88.3839V50.1758H55.988V50.1175ZM55.8751 50.1758H88.3839V50.2337H55.8751V50.1758ZM55.8178 50.2337H88.3839V50.2892H55.8178V50.2337ZM55.7054 50.2892H88.3839V50.3471H55.7054V50.2892ZM55.5925 50.3471H88.3839V50.4026H55.5925V50.3471ZM55.4801 50.4026H88.3839V50.4605H55.4801V50.4026ZM55.4223 50.4605H88.3839V50.5183H55.4223V50.4605ZM55.3099 50.5183H88.3839V50.5743H55.3099V50.5183ZM55.1971 50.5743H88.3839V50.6322H55.1971V50.5743ZM55.0847 50.6322H88.3839V50.6877H55.0847V50.6322ZM55.0273 50.6877H88.3839V50.7456H55.0273V50.6877ZM54.9145 50.7456H88.3839V50.8034H54.9145V50.7456ZM54.802 50.8034H88.3839V50.8594H54.802V50.8034ZM54.7447 50.8594H88.3839V50.9172H54.7447V50.8594ZM54.6319 50.9172H88.3839V50.9728H54.6319V50.9172ZM54.5194 50.9728H88.3839V51.0306H54.5194V50.9728ZM54.4043 51.0306H88.3839V51.0885H54.4043V51.0306ZM54.3492 51.0885H88.3839V51.144H54.3492V51.0885ZM54.2364 51.144H88.3839V51.2019H54.2364V51.144ZM54.1217 51.2019H88.3839V51.2579H54.1217V51.2019ZM54.0089 51.2579H88.3839V51.3157H54.0089V51.2579ZM53.9538 51.3157H88.3839V51.3736H53.9538V51.3157ZM53.8391 51.3736H88.3839V51.4291H53.8391V51.3736ZM53.7262 51.4291H88.3839V51.487H53.7262V51.4291ZM53.6138 51.487H88.3839V51.543H53.6138V51.487ZM53.5565 51.543H88.3839V51.6008H53.5565V51.543ZM53.4436 51.6008H88.3839V51.6586H53.4436V51.6008ZM53.3312 51.6586H88.3839V51.7142H53.3312V51.6586ZM53.2184 51.7142H88.3839V51.772H53.2184V51.7142ZM53.161 51.772H88.3839V51.8276H53.161V51.772ZM53.0482 51.8276H88.3839V51.8854H53.0482V51.8276ZM52.9358 51.8854H88.3839V51.9437H52.9358V51.8854ZM52.8784 51.9437H88.3839V51.9993H52.8784V51.9437ZM52.7656 51.9993H88.3839V52.0571H52.7656V51.9993ZM52.6532 52.0571H88.3839V52.1127H52.6532V52.0571ZM52.5403 52.1127H88.3839V52.1705H52.5403V52.1127ZM52.483 52.1705H88.3839V52.2284H52.483V52.1705ZM52.3705 52.2284H88.3839V52.2844H52.3705V52.2284ZM52.2577 52.2844H88.3839V52.3422H52.2577V52.2844ZM52.143 52.3422H88.3839V52.3978H52.143V52.3422ZM52.0875 52.3978H88.3839V52.4556H52.0875V52.3978ZM51.9751 52.4556H88.3839V52.5134H51.9751V52.4556ZM51.8604 52.5134H88.3839V52.569H51.8604V52.5134ZM51.7476 52.569H88.3839V52.6273H51.7476V52.569ZM51.6925 52.6273H88.3839V52.6829H51.6925V52.6273ZM51.5774 52.6829H88.3839V52.7407H51.5774V52.6829ZM51.4649 52.7407H88.3839V52.7985H51.4649V52.7407ZM51.3521 52.7985H88.3839V52.8541H51.3521V52.7985ZM51.2947 52.8541H88.3839V52.9119H51.2947V52.8541ZM51.1823 52.9119H88.3839V52.9679H51.1823V52.9119ZM51.0695 52.9679H88.3839V53.0258H51.0695V52.9679ZM51.0121 53.0258H88.3839V53.0836H51.0121V53.0258ZM50.8997 53.0836H88.3839V53.1392H50.8997V53.0836ZM50.7869 53.1392H88.3839V53.197H50.7869V53.1392ZM50.6745 53.197H88.3839V53.2526H50.6745V53.197ZM50.6167 53.2526H88.3839V53.3109H50.6167V53.2526ZM50.5043 53.3109H88.3839V53.3687H50.5043V53.3109ZM50.3914 53.3687H88.3839V53.4243H50.3914V53.3687ZM50.279 53.4243H88.3839V53.4821H50.279V53.4243ZM50.2217 53.4821H88.3839V53.5377H50.2217V53.4821ZM50.1088 53.5377H88.3839V53.5955H50.1088V53.5377ZM49.9964 53.5955H88.3839V53.6538H49.9964V53.5955ZM51.1268 53.6538H88.3839V53.7094H51.1268V53.6538ZM49.8813 53.6538H50.7295V53.7094H49.8813V53.6538ZM49.8262 53.7094H50.1643V53.7672H49.8262V53.7094ZM51.4099 53.7094H88.3839V53.7672H51.4099V53.7094ZM49.7138 53.7672H49.9964V53.8227H49.7138V53.7672ZM51.6925 53.7672H88.3839V53.8227H51.6925V53.7672ZM49.5987 53.8227H49.8262V53.8806H49.5987V53.8227ZM51.9177 53.8227H88.3839V53.8806H51.9177V53.8227ZM49.4862 53.8806H49.656V53.9384H49.4862V53.8806ZM52.0875 53.8806H88.3839V53.9384H52.0875V53.8806ZM49.4434 53.9384H49.5436V53.9944H49.4434V53.9384ZM52.2004 53.9384H88.3839V53.9944H52.2004V53.9384ZM52.3705 53.9944H88.3839V54.0523H52.3705V53.9944ZM52.483 54.0523H88.3839V54.1078H52.483V54.0523ZM52.5958 54.1078H88.3839V54.1657H52.5958V54.1078ZM52.7082 54.1657H88.3839V54.2235H52.7082V54.1657ZM52.8229 54.2235H88.3839V54.2791H52.8229V54.2235ZM52.9358 54.2791H88.3839V54.3369H52.9358V54.2791ZM52.9908 54.3369H88.3839V54.3929H52.9908V54.3369ZM53.106 54.3929H88.3839V54.4508H53.106V54.3929ZM53.161 54.4508H88.3839V54.5086H53.161V54.4508ZM53.2734 54.5086H88.3839V54.5642H53.2734V54.5086ZM53.3312 54.5642H88.3839V54.622H53.3312V54.5642ZM53.4436 54.622H88.3839V54.678H53.4436V54.622ZM53.501 54.678H88.3839V54.7358H53.501V54.678ZM53.5565 54.7358H88.3839V54.7937H53.5565V54.7358ZM53.6712 54.7937H88.3839V54.8492H53.6712V54.7937ZM53.7262 54.8492H88.3839V54.9071H53.7262V54.8492ZM53.7836 54.9071H88.3839V54.9626H53.7836V54.9071ZM53.8391 54.9626H88.3839V55.0205H53.8391V54.9626ZM53.9538 55.0205H88.3839V55.0788H53.9538V55.0205ZM54.0089 55.0788H88.3839V55.1343H54.0089V55.0788ZM54.0666 55.1343H88.3839V55.1922H54.0666V55.1343ZM54.1217 55.1922H88.3839V55.2477H54.1217V55.1922ZM54.179 55.2477H88.3839V55.3056H54.179V55.2477ZM54.2364 55.3056H88.3839V55.3634H54.2364V55.3056ZM54.2919 55.3634H88.3839V55.4194H54.2919V55.3634ZM54.3492 55.4194H88.3839V55.4772H54.3492V55.4194ZM54.4043 55.4772H88.3839V55.5328H54.4043V55.4772ZM54.4617 55.5328H88.3839V55.5906H54.4617V55.5328ZM54.5194 55.5906H88.3839V55.6485H54.5194V55.5906ZM54.5745 55.6485H88.3839V55.704H54.5745V55.6485ZM54.6319 55.704H88.3839V55.7623H54.6319V55.704ZM54.6869 55.7623H88.3839V55.8179H54.6869V55.7623ZM54.7447 55.8179H88.3839V55.8757H54.7447V55.8179ZM54.802 55.8757H88.3839V55.9336H54.802V55.8757ZM54.8571 55.9336H88.3839V55.9891H54.8571V55.9336ZM54.9145 55.9891H88.3839V56.047H54.9145V55.9891ZM54.9695 56.047H88.3839V56.1608H54.9695V56.047ZM55.0273 56.1608H88.3839V56.2186H55.0273V56.1608ZM55.0847 56.2186H88.3839V56.2742H55.0847V56.2186ZM55.1397 56.2742H88.3839V56.332H55.1397V56.2742ZM55.1971 56.332H88.3839V56.3876H55.1971V56.332ZM55.2526 56.3876H88.3839V56.5037H55.2526V56.3876ZM55.3099 56.5037H88.3839V56.5593H55.3099V56.5037ZM55.3673 56.5593H88.3839V56.6171H55.3673V56.5593ZM55.4223 56.6171H88.3839V56.7305H55.4223V56.6171ZM55.4801 56.7305H88.3839V56.7888H55.4801V56.7305ZM55.5352 56.7888H88.3839V56.8444H55.5352V56.7888ZM55.5925 56.8444H88.3839V56.9578H55.5925V56.8444ZM55.6499 56.9578H88.3839V57.0156H55.6499V56.9578ZM55.7054 57.0156H88.3839V57.1295H55.7054V57.0156ZM55.7627 57.1295H88.3839V57.1873H55.7627V57.1295ZM55.8178 57.1873H88.3839V57.3007H55.8178V57.1873ZM55.8751 57.3007H88.3839V57.3585H55.8751V57.3007ZM55.9325 57.3585H88.3839V57.4724H55.9325V57.3585ZM55.988 57.4724H88.3839V57.5279H55.988V57.4724ZM56.0453 57.5279H88.3839V57.6436H56.0453V57.5279ZM56.1004 57.6436H88.3839V57.6992H56.1004V57.6436ZM56.1577 57.6992H88.3839V57.813H56.1577V57.6992ZM56.2155 57.813H88.3839V57.9287H56.2155V57.813ZM56.2706 57.9287H88.3839V58.0421H56.2706V57.9287ZM56.3279 58.0421H88.3839V58.0977H56.3279V58.0421ZM56.383 58.0977H88.3839V58.2138H56.383V58.0977ZM56.4408 58.2138H88.3839V58.3272H56.4408V58.2138ZM56.4981 58.3272H88.3839V58.4406H56.4981V58.3272ZM56.5532 58.4406H88.3839V58.5544H56.5532V58.4406ZM56.6105 58.5544H88.3839V58.6678H56.6105V58.5544ZM56.6661 58.6678H88.3839V58.7835H56.6661V58.6678ZM56.7234 58.7835H88.3839V58.8974H56.7234V58.7835ZM56.7807 58.8974H88.3839V59.0108H56.7807V58.8974ZM56.8358 59.0108H88.3839V59.1242H56.8358V59.0108ZM56.8932 59.1242H88.3839V59.238H56.8932V59.1242ZM56.9487 59.238H88.3839V59.3537H56.9487V59.238ZM57.006 59.3537H88.3839V59.5226H57.006V59.3537ZM57.0634 59.5226H88.3839V59.6388H57.0634V59.5226ZM57.1184 59.6388H88.3839V59.8077H57.1184V59.6388ZM57.1762 59.8077H88.3839V59.9238H57.1762V59.8077ZM57.2313 59.9238H88.3839V60.0928H57.2313V59.9238ZM57.2886 60.0928H88.3839V60.2085H57.2886V60.0928ZM57.346 60.2085H88.3839V60.3779H57.346V60.2085ZM57.4015 60.3779H88.3839V60.5491H57.4015V60.3779ZM57.4588 60.5491H88.3839V60.7208H57.4588V60.5491ZM57.5139 60.7208H88.3839V60.892H57.5139V60.7208ZM57.5712 60.892H88.3839V61.1193H57.5712V60.892ZM57.6286 61.1193H88.3839V61.291H57.6286V61.1193ZM57.6841 61.291H88.3839V61.5178H57.6841V61.291ZM57.7414 61.5178H88.3839V61.7473H57.7414V61.5178ZM57.7965 61.7473H88.3839V61.9746H57.7965V61.7473ZM57.8538 61.9746H88.3839V62.2592H57.8538V61.9746ZM57.9116 62.2592H88.3839V62.6021H57.9116V62.2592ZM57.9667 62.6021H88.3839V62.8872H57.9667V62.6021ZM58.024 62.8872H88.3839V63.3995H58.024V62.8872ZM58.0791 63.3995H88.3839V64.2543H58.0791V63.3995ZM58.1369 64.2543H88.3839V64.5972H58.1369V64.2543ZM58.0791 64.5972H88.3839V69.2128H58.0791V64.5972ZM58.0791 69.2128H88.3266V69.4979H58.0791V69.2128ZM58.0791 69.4979H88.271V69.6136H58.0791V69.4979ZM58.0791 69.6136H88.2137V69.783H58.0791V69.6136ZM58.0791 69.783H88.1586V69.8987H58.0791V69.783ZM58.0791 69.8987H88.1013V70.0125H58.0791V69.8987ZM58.0791 70.0125H88.044V70.0681H58.0791V70.0125ZM58.0791 70.0681H87.9884V70.1259H58.0791V70.0681ZM58.0791 70.1259H87.9311V70.1837H58.0791V70.1259ZM58.0791 70.1837H87.876V70.2971H58.0791V70.1837ZM58.0791 70.2971H87.8187V70.3531H58.0791V70.2971ZM58.0791 70.3531H87.7609V70.411H58.0791V70.3531ZM58.0791 70.411H87.7058V70.4688H58.0791V70.411ZM58.0791 70.4688H87.5934V70.5244H58.0791V70.4688ZM58.0791 70.5244H87.5356V70.5822H58.0791V70.5244ZM58.0791 70.5822H87.4783V70.6378H58.0791V70.5822ZM58.0791 70.6378H87.3659V70.6961H58.0791V70.6378ZM58.0791 70.6961H87.253V70.7539H58.0791V70.6961ZM58.0791 70.7539H87.1957V70.8095H58.0791V70.7539ZM58.0791 70.8095H87.0833V70.8673H58.0791V70.8095ZM58.0791 70.8673H86.9704V70.9229H58.0791V70.8673ZM58.0791 70.9229H86.858V70.9807H58.0791V70.9229ZM58.0791 70.9807H86.8002V71.0385H58.0791V70.9807ZM58.0791 71.0385H86.6878V71.0946H58.0791V71.0385ZM58.0791 71.0946H86.575V71.1524H58.0791V71.0946ZM58.0791 71.1524H86.4625V71.208H58.0791V71.1524ZM58.0791 71.208H86.4052V71.2658H58.0791V71.208ZM58.0791 71.2658H86.2924V71.3236H58.0791V71.2658ZM58.0791 71.3236H86.1799V71.3796H58.0791V71.3236ZM58.0791 71.3796H86.0648V71.4375H58.0791V71.3796ZM58.0791 71.4375H86.0097V71.493H58.0791V71.4375ZM58.0791 71.493H85.8973V71.5509H58.0791V71.493ZM58.0791 71.5509H85.7822V71.6087H58.0791V71.5509ZM58.0791 71.6087H85.7271V71.6643H58.0791V71.6087ZM58.0791 71.6643H85.6143V71.7221H58.0791V71.6643ZM58.0791 71.7221H85.4996V71.7781H58.0791V71.7221ZM58.0791 71.7781H85.3872V71.836H58.0791V71.7781ZM58.0791 71.836H85.3317V71.8938H58.0791V71.836ZM58.0791 71.8938H85.217V71.9494H58.0791V71.8938ZM58.0791 71.9494H85.1041V72.0072H58.0791V71.9494ZM58.0791 72.0072H84.9917V72.0632H58.0791V72.0072ZM58.0791 72.0632H84.9344V72.121H58.0791V72.0632ZM58.0791 72.121H84.8215V72.1789H58.0791V72.121ZM58.0791 72.1789H84.7091V72.2344H58.0791V72.1789ZM58.0791 72.2344H84.5963V72.2923H58.0791V72.2344ZM58.0791 72.2923H84.5389V72.3478H58.0791V72.2923ZM58.0791 72.3478H84.4265V72.4057H58.0791V72.3478ZM58.0791 72.4057H84.3137V72.464H58.0791V72.4057ZM58.0791 72.464H84.2012V72.5195H58.0791V72.464ZM58.0791 72.5195H84.1435V72.5774H58.0791V72.5195ZM58.0791 72.5774H84.0311V72.6329H58.0791V72.5774ZM58.0791 72.6329H83.9182V72.6908H58.0791V72.6329ZM58.0791 72.6908H83.8609V72.7486H58.0791V72.6908ZM58.0791 72.7486H83.7484V72.8046H58.0791V72.7486ZM58.0791 72.8046H83.6356V72.8624H58.0791V72.8046ZM58.0791 72.8624H83.5209V72.918H58.0791V72.8624ZM58.0791 72.918H83.4658V72.9758H58.0791V72.918ZM58.0791 72.9758H83.353V73.0337H58.0791V72.9758ZM58.0791 73.0337H83.2383V73.0892H58.0791V73.0337ZM58.0791 73.0892H83.1254V73.1475H58.0791V73.0892ZM58.0791 73.1475H83.0704V73.2031H58.0791V73.1475ZM58.0791 73.2031H82.9552V73.2609H58.0791V73.2031ZM58.0791 73.2609H82.8428V73.3188H58.0791V73.2609ZM58.0791 73.3188H82.73V73.3743H58.0791V73.3188ZM58.0791 73.3743H82.6726V73.4322H58.0791V73.3743ZM58.0791 73.4322H82.5602V73.4882H58.0791V73.4322ZM58.0791 73.4882H82.4474V73.546H58.0791V73.4882ZM58.0791 73.546H82.335V73.6039H58.0791V73.546ZM58.0791 73.6039H82.2776V73.6594H58.0791V73.6039ZM58.0791 73.6594H82.1648V73.7172H58.0791V73.6594ZM58.0791 73.7172H82.0524V73.7728H58.0791V73.7172ZM58.0791 73.7728H81.9395V73.8311H58.0791V73.7728ZM58.0791 73.8311H81.8822V73.8889H58.0791V73.8311ZM58.0791 73.8889H81.7693V73.9445H58.0791V73.8889ZM58.0791 73.9445H81.6569V74.0023H58.0791V73.9445ZM58.0791 74.0023H81.5996V74.0579H58.0791V74.0023ZM58.0791 74.0579H81.4867V74.1157H58.0791V74.0579ZM58.0791 74.1157H81.3743V74.1736H58.0791V74.1157ZM58.0791 74.1736H81.2592V74.2296H58.0791V74.1736ZM58.0791 74.2296H81.2041V74.2874H58.0791V74.2296ZM58.0791 74.2874H81.0917V74.343H58.0791V74.2874ZM58.0791 74.343H80.9766V74.4008H58.0791V74.343ZM58.0791 74.4008H80.8641V74.4587H58.0791V74.4008ZM58.0791 74.4587H80.8086V74.5147H58.0791V74.4587ZM58.0791 74.5147H80.6939V74.5725H58.0791V74.5147ZM58.0791 74.5725H80.5815V74.6281H58.0791V74.5725ZM58.0791 74.6281H80.4687V74.6859H58.0791V74.6281ZM58.0791 74.6859H80.4113V74.7437H58.0791V74.6859ZM58.0791 74.7437H80.2985V74.7993H58.0791V74.7437ZM58.0791 74.7993H80.1861V74.8571H58.0791V74.7993ZM58.0791 74.8571H80.0732V74.9132H58.0791V74.8571ZM58.0791 74.9132H80.0159V74.971H58.0791V74.9132ZM58.0791 74.971H79.9035V75.0288H58.0791V74.971ZM58.0791 75.0288H79.7906V75.0844H58.0791V75.0288ZM58.0791 75.0844H79.7333V75.1422H58.0791V75.0844ZM58.0791 75.1422H79.6209V75.1982H58.0791V75.1422ZM58.0791 75.1982H79.508V75.2561H58.0791V75.1982ZM58.0791 75.2561H79.3956V75.3139H58.0791V75.2561ZM58.0791 75.3139H79.3378V75.3695H58.0791V75.3139ZM58.0791 75.3695H79.2254V75.4273H58.0791V75.3695ZM58.0791 75.4273H79.1125V75.4829H58.0791V75.4273ZM58.0791 75.4829H78.9979V75.5407H58.0791V75.4829ZM58.0791 75.5407H78.9428V75.599H58.0791V75.5407ZM58.0791 75.599H78.8299V75.6546H58.0791V75.599ZM58.0791 75.6546H78.7153V75.7124H58.0791V75.6546ZM58.0791 75.7124H78.6024V75.768H58.0791V75.7124ZM58.0791 75.768H78.5473V75.8258H58.0791V75.768ZM58.0791 75.8258H78.4326V75.8836H58.0791V75.8258ZM58.0791 75.8836H78.3198V75.9396H58.0791V75.8836ZM58.0791 75.9396H78.2074V75.9975H58.0791V75.9396ZM58.0791 75.9975H78.15V76.053H58.0791V75.9975ZM58.0791 76.053H78.0372V76.1109H58.0791V76.053ZM58.0791 76.1109H77.9248V76.1687H58.0791V76.1109ZM58.0791 76.1687H77.867V76.2243H58.0791V76.1687ZM58.0791 76.2243H77.7546V76.2826H58.0791V76.2243ZM58.0791 76.2826H77.6417V76.3381H58.0791V76.2826ZM58.0791 76.3381H77.5293V76.396H58.0791V76.3381ZM58.0791 76.396H77.472V76.4538H58.0791V76.396ZM58.0791 76.4538H77.3591V76.5094H58.0791V76.4538ZM58.0791 76.5094H77.2467V76.5672H58.0791V76.5094ZM58.0791 76.5672H77.1338V76.6232H58.0791V76.5672ZM58.0791 76.6232H77.0765V76.681H58.0791V76.6232ZM58.0791 76.681H76.9641V76.7389H58.0791V76.681ZM58.0791 76.7389H76.8512V76.7944H58.0791V76.7389ZM58.0791 76.7944H76.7366V76.8523H58.0791V76.7944ZM58.0791 76.8523H76.681V76.9078H58.0791V76.8523ZM58.0791 76.9078H76.5686V76.9661H58.0791V76.9078ZM58.0791 76.9661H76.4539V77.024H58.0791V76.9661ZM58.0791 77.024H76.3411V77.0795H58.0791V77.024ZM58.0791 77.0795H76.286V77.1374H58.0791V77.0795ZM58.0791 77.1374H76.1709V77.1929H58.0791V77.1374ZM58.0791 77.1929H76.0585V77.2508H58.0791V77.1929ZM58.0791 77.2508H76.0034V77.3091H58.0791V77.2508ZM58.0791 77.3091H75.8883V77.3646H58.0791V77.3091ZM58.0791 77.3646H75.7759V77.4224H58.0791V77.3646ZM58.0791 77.4224H75.663V77.478H58.0791V77.4224ZM58.0791 77.478H75.6057V77.5358H58.0791V77.478ZM58.0791 77.5358H75.4933V77.5937H58.0791V77.5358ZM58.0791 77.5937H75.3804V77.6497H58.0791V77.5937ZM58.0791 77.6497H75.268V77.7075H58.0791V77.6497ZM58.0791 77.7075H75.2102V77.7631H58.0791V77.7075ZM58.0791 77.7631H75.0978V77.8209H58.0791V77.7631ZM58.0791 77.8209H74.9849V77.8788H58.0791V77.8209ZM58.0791 77.8788H74.8725V77.9343H58.0791V77.8788ZM58.0791 77.9343H74.8152V77.9926H58.0791V77.9343ZM58.0791 77.9926H74.7023V78.0482H58.0791V77.9926ZM58.0791 78.0482H74.5899V78.106H58.0791V78.0482ZM58.0791 78.106H74.4748V78.1639H58.0791V78.106ZM58.0791 78.1639H74.4197V78.2194H58.0791V78.1639ZM58.0791 78.2194H74.3073V78.2772H58.0791V78.2194ZM58.0791 78.2772H74.1922V78.3333H58.0791V78.2772ZM58.0791 78.3333H74.1371V78.3911H58.0791V78.3333ZM58.0791 78.3911H74.0243V78.4489H58.0791V78.3911ZM58.0791 78.4489H73.9096V78.5045H58.0791V78.4489ZM58.0791 78.5045H73.7967V78.5623H58.0791V78.5045ZM58.0791 78.5623H73.7416V78.6179H58.0791V78.5623ZM58.0791 78.6179H73.627V78.6757H58.0791V78.6179ZM58.0791 78.6757H73.5141V78.734H58.0791V78.6757ZM58.0791 78.734H73.4017V78.7896H58.0791V78.734ZM58.0791 78.7896H73.3444V78.8474H58.0791V78.7896ZM58.0791 78.8474H73.2315V78.903H58.0791V78.8474ZM58.0791 78.903H73.1191V78.9608H58.0791V78.903ZM58.0791 78.9608H73.0062V79.0187H58.0791V78.9608ZM58.0791 79.0187H72.9489V79.0747H58.0791V79.0187ZM58.0791 79.0747H72.836V79.1325H58.0791V79.0747ZM58.0791 79.1325H72.7236V79.1881H58.0791V79.1325ZM58.0791 79.1881H72.6112V79.2459H58.0791V79.1881ZM58.0791 79.2459H72.5534V79.3037H58.0791V79.2459ZM58.0791 79.3037H72.441V79.3593H58.0791V79.3037ZM58.0791 79.3593H72.3282V79.4176H58.0791V79.3593ZM58.0791 79.4176H72.2708V79.4732H58.0791V79.4176ZM58.0791 79.4732H72.1584V79.531H58.0791V79.4732ZM58.0791 79.531H72.0456V79.5888H58.0791V79.531ZM58.0791 79.5888H71.9309V79.6444H58.0791V79.5888ZM58.0791 79.6444H71.8754V79.7022H58.0791V79.6444ZM58.0791 79.7022H71.7629V79.7582H58.0791V79.7022ZM58.0791 79.7582H71.6483V79.8161H58.0791V79.7582ZM58.0791 79.8161H71.5354V79.8739H58.0791V79.8161ZM58.0791 79.8739H71.4803V79.9295H58.0791V79.8739ZM58.0791 79.9295H71.3652V79.9873H58.0791V79.9295ZM58.0791 79.9873H71.2528V80.0429H58.0791V79.9873ZM58.0791 80.0429H71.14V80.1012H58.0791V80.0429ZM58.0791 80.1012H71.0826V80.159H58.0791V80.1012ZM58.0791 80.159H70.9702V80.2146H58.0791V80.159ZM58.0791 80.2146H70.8573V80.2724H58.0791V80.2146ZM58.0791 80.2724H70.7449V80.328H58.0791V80.2724ZM58.0791 80.328H70.6876V80.3858H58.0791V80.328ZM58.0791 80.3858H70.5747V80.4441H58.0791V80.3858ZM58.0791 80.4441H70.4623V80.4996H58.0791V80.4441ZM58.0791 80.4996H70.3495V80.5575H58.0791V80.4996ZM58.0791 80.5575H70.2921V80.613H58.0791V80.5575ZM58.0791 80.613H70.1793V80.6709H58.0791V80.613ZM58.0791 80.6709H70.0669V80.7287H58.0791V80.6709ZM58.0791 80.7287H70.0095V80.7847H58.0791V80.7287ZM58.0791 80.7847H69.8967V80.8426H58.0791V80.7847ZM58.0791 80.8426H69.7843V80.8981H58.0791V80.8426ZM58.0791 80.8981H69.6691V80.956H58.0791V80.8981ZM58.0791 80.956H69.6141V81.0138H58.0791V80.956ZM58.0791 81.0138H69.5016V81.0694H58.0791V81.0138ZM58.0791 81.0694H69.3865V81.1276H58.0791V81.0694ZM58.0791 81.1276H69.2741V81.1832H58.0791V81.1276ZM58.0791 81.1832H69.2186V81.241H58.0791V81.1832ZM58.0791 81.241H69.1039V81.2989H58.0791V81.241ZM58.0791 81.2989H68.9915V81.3544H58.0791V81.2989ZM58.0791 81.3544H68.8786V81.4123H58.0791V81.3544ZM58.0791 81.4123H68.8213V81.4683H58.0791V81.4123ZM58.0791 81.4683H68.7085V81.5261H58.0791V81.4683ZM58.0791 81.5261H68.596V81.584H58.0791V81.5261ZM58.0791 81.584H68.4832V81.6395H58.0791V81.584ZM58.0791 81.6395H68.4258V81.6974H58.0791V81.6395ZM58.0791 81.6974H68.3134V81.7529H58.0791V81.6974ZM58.0791 81.7529H68.2006V81.8112H58.0791V81.7529ZM58.0791 81.8112H68.1432V81.8691H58.0791V81.8112ZM58.0791 81.8691H68.0308V81.9246H58.0791V81.8691ZM58.0791 81.9246H67.918V81.9824H58.0791V81.9246ZM58.0791 81.9824H67.8056V82.038H58.0791V81.9824ZM58.0791 82.038H67.7478V82.0958H58.0791V82.038ZM58.0791 82.0958H67.6354V82.1537H58.0791V82.0958ZM58.0791 82.1537H67.5225V82.2097H58.0791V82.1537ZM58.0791 82.2097H67.4078V82.2675H58.0791V82.2097ZM58.0791 82.2675H67.3528V82.3231H58.0791V82.2675ZM58.0791 82.3231H67.2399V82.3809H58.0791V82.3231ZM58.0791 82.3809H67.1252V82.4388H58.0791V82.3809ZM58.0791 82.4388H67.0124V82.4943H58.0791V82.4388ZM58.0791 82.4943H66.9573V82.5526H58.0791V82.4943ZM58.0791 82.5526H66.8426V82.6082H58.0791V82.5526ZM58.0791 82.6082H66.7298V82.666H58.0791V82.6082ZM58.0791 82.666H66.6173V82.7239H58.0791V82.666ZM58.0791 82.7239H66.56V82.7794H58.0791V82.7239ZM58.0791 82.7794H66.4471V82.8372H58.0791V82.7794ZM58.0791 82.8372H66.3347V82.8933H58.0791V82.8372ZM58.0791 82.8933H66.277V82.9511H58.0791V82.8933ZM58.0791 82.9511H66.1645V83.0089H58.0791V82.9511ZM58.0791 83.0089H66.0517V83.0645H58.0791V83.0089ZM58.0791 83.0645H65.9393V83.1223H58.0791V83.0645ZM58.0791 83.1223H65.8819V83.1779H58.0791V83.1223ZM58.0791 83.1779H65.7691V83.2362H58.0791V83.1779ZM58.0791 83.2362H65.6567V83.294H58.0791V83.2362ZM58.0791 83.294H65.5438V83.3496H58.0791V83.294ZM58.0791 83.3496H65.4865V83.4074H58.0791V83.3496ZM58.0791 83.4074H65.3741V83.463H58.0791V83.4074ZM58.0791 83.463H65.2612V83.5208H58.0791V83.463ZM58.0791 83.5208H65.1465V83.5791H58.0791V83.5208ZM58.0791 83.5791H65.091V83.6347H58.0791V83.5791ZM58.0791 83.6347H64.9786V83.6925H58.0791V83.6347ZM58.0791 83.6925H64.8639V83.7481H58.0791V83.6925ZM58.0791 83.7481H64.7511V83.8059H58.0791V83.7481ZM58.0791 83.8059H64.696V83.8637H58.0791V83.8059ZM58.0791 83.8637H64.5809V83.9198H58.0791V83.8637ZM58.0791 83.9198H64.4685V83.9776H58.0791V83.9198ZM58.0791 83.9776H64.4134V84.0332H58.0791V83.9776ZM58.0791 84.0332H64.2983V84.091H58.0791V84.0332ZM58.0791 84.091H64.1858V84.1488H58.0791V84.091ZM58.0791 84.1488H64.073V84.2044H58.0791V84.1488ZM58.0791 84.2044H64.0156V84.2627H58.0791V84.2044ZM58.0791 84.2627H63.9028V84.3182H58.0791V84.2627ZM58.0791 84.3182H63.7904V84.3761H58.0791V84.3182ZM58.0791 84.3761H63.678V84.4339H58.0791V84.3761ZM58.0791 84.4339H63.6202V84.4895H58.0791V84.4339ZM58.0791 84.4895H63.5078V84.5473H58.0791V84.4895ZM58.024 84.5473H63.3949V84.6033H58.024V84.5473ZM58.024 84.6033H63.2825V84.6612H58.024V84.6033ZM58.024 84.6612H63.2252V84.719H58.024V84.6612ZM58.024 84.719H63.1123V84.7746H58.024V84.719ZM58.024 84.7746H62.9999V84.8324H58.024V84.7746ZM58.024 84.8324H62.8848V84.888H58.024V84.8324ZM58.024 84.888H62.8297V84.9462H58.024V84.888ZM58.024 84.9462H62.7173V85.0041H58.024V84.9462ZM58.024 85.0041H62.6022V85.0596H58.024V85.0041ZM58.024 85.0596H62.5471V85.1175H58.024V85.0596ZM58.024 85.1175H62.4342V85.173H58.024V85.1175ZM58.024 85.173H62.3196V85.2309H58.024V85.173ZM58.024 85.2309H62.2067V85.2887H58.024V85.2309ZM58.024 85.2887H62.1516V85.3447H58.024V85.2887ZM58.024 85.3447H62.037V85.4026H58.024V85.3447ZM58.024 85.4026H61.9241V85.4581H58.024V85.4026ZM58.024 85.4581H61.8117V85.516H58.024V85.4581ZM58.024 85.516H61.7543V85.5738H58.024V85.516ZM58.024 85.5738H61.6415V85.6298H58.024V85.5738ZM58.024 85.6298H61.5291V85.6876H58.024V85.6298ZM58.024 85.6876H61.4162V85.7432H58.024V85.6876ZM58.024 85.7432H61.3589V85.801H58.024V85.7432ZM58.024 85.801H61.246V85.8589H58.024V85.801ZM58.024 85.8589H61.1336V85.9144H58.024V85.8589ZM58.024 85.9144H61.0207V85.9723H58.024V85.9144ZM58.024 85.9723H60.9634V86.0283H58.024V85.9723ZM58.024 86.0283H60.851V86.0861H58.024V86.0283ZM58.024 86.0861H60.7381V86.144H58.024V86.0861ZM58.024 86.144H60.6808V86.1995H58.024V86.144ZM58.024 86.1995H60.5684V86.2574H58.024V86.1995ZM58.024 86.2574H60.4555V86.3129H58.024V86.2574ZM58.024 86.3129H60.3409V86.3712H58.024V86.3129ZM58.024 86.3712H60.2853V86.4291H58.024V86.3712ZM58.024 86.4291H60.1729V86.4846H58.024V86.4291ZM58.024 86.4846H60.0583V86.5424H58.024V86.4846ZM58.024 86.5424H59.9454V86.598H58.024V86.5424ZM58.024 86.598H59.8903V86.6558H58.024V86.598ZM58.024 86.6558H59.7752V86.7141H58.024V86.6558ZM58.024 86.7141H59.6628V86.7697H58.024V86.7141ZM58.024 86.7697H59.5499V86.8275H58.024V86.7697ZM58.024 86.8275H59.4926V86.8831H58.024V86.8275ZM58.024 86.8831H59.3802V86.9409H58.024V86.8831ZM58.024 86.9409H59.2673V86.9988H58.024V86.9409ZM58.024 86.9988H59.1549V87.0548H58.024V86.9988ZM58.024 87.0548H59.0976V87.1126H58.024V87.0548ZM58.024 87.1126H58.9847V87.1682H58.024V87.1126ZM58.024 87.1682H58.8723V87.226H58.024V87.1682ZM58.024 87.226H58.7594V87.2839H58.024V87.226ZM58.024 87.2839H58.7021V87.3394H58.024V87.2839ZM58.024 87.3394H58.5892V87.3977H58.024V87.3394ZM58.024 87.3977H58.4768V87.4533H58.024V87.3977ZM58.024 87.4533H58.4195V87.5111H58.024V87.4533ZM58.024 87.5111H58.3066V87.5689H58.024V87.5111ZM58.024 87.5689H58.1942V87.6245H58.024V87.5689Z" fill="white"/>
</mask>
<g mask="url(#mask10_7210_3322)">
<mask id="mask11_7210_3322" style="mask-type:luminance" maskUnits="userSpaceOnUse" x="49" y="36" width="40" height="52">
<path d="M83.1681 36.6744C81.8608 35.9107 80.6617 35.866 79.7385 36.4071L49.4648 53.9726C50.3881 53.4316 51.5871 53.4785 52.8968 54.2399C55.8054 55.9345 58.1484 60.5009 58.1376 64.4397L58.0712 87.6163L87.3711 70.6141C87.9738 70.2648 88.3472 69.6168 88.3494 68.9155L88.4113 46.8723C88.4221 42.9335 86.0791 38.3667 83.1681 36.6744Z" fill="white"/>
</mask>
<g mask="url(#mask11_7210_3322)">
<mask id="mask12_7210_3322" style="mask-type:luminance" maskUnits="userSpaceOnUse" x="28" y="19" width="82" height="86">
<path d="M79.5723 19.6079L28.0508 47.7098L58.2761 104.036L109.797 75.936L79.5723 19.6079Z" fill="white"/>
</mask>
<g mask="url(#mask12_7210_3322)">
<path d="M79.5718 19.6079L28.0508 47.7093L58.2757 104.037L109.797 75.936L79.5718 19.6079Z" fill="#01C8A9"/>
</g>
</g>
</g>
</g>
<defs>
<filter id="filter0_d_7210_3322" x="0.708984" y="28.6792" width="18.5879" height="42.0059" filterUnits="userSpaceOnUse" color-interpolation-filters="sRGB">
<feFlood flood-opacity="0" result="BackgroundImageFix"/>
<feColorMatrix in="SourceAlpha" type="matrix" values="0 0 0 0 0 0 0 0 0 0 0 0 0 0 0 0 0 0 127 0" result="hardAlpha"/>
<feOffset dy="4"/>
<feGaussianBlur stdDeviation="2"/>
<feComposite in2="hardAlpha" operator="out"/>
<feColorMatrix type="matrix" values="0 0 0 0 0 0 0 0 0 0 0 0 0 0 0 0 0 0 0.25 0"/>
<feBlend mode="normal" in2="BackgroundImageFix" result="effect1_dropShadow_7210_3322"/>
<feBlend mode="normal" in="SourceGraphic" in2="effect1_dropShadow_7210_3322" result="shape"/>
</filter>
<filter id="filter1_d_7210_3322" x="11.2324" y="51.9844" width="40.3535" height="37.5161" filterUnits="userSpaceOnUse" color-interpolation-filters="sRGB">
<feFlood flood-opacity="0" result="BackgroundImageFix"/>
<feColorMatrix in="SourceAlpha" type="matrix" values="0 0 0 0 0 0 0 0 0 0 0 0 0 0 0 0 0 0 127 0" result="hardAlpha"/>
<feOffset dy="4"/>
<feGaussianBlur stdDeviation="2"/>
<feComposite in2="hardAlpha" operator="out"/>
<feColorMatrix type="matrix" values="0 0 0 0 0 0 0 0 0 0 0 0 0 0 0 0 0 0 0.25 0"/>
<feBlend mode="normal" in2="BackgroundImageFix" result="effect1_dropShadow_7210_3322"/>
<feBlend mode="normal" in="SourceGraphic" in2="effect1_dropShadow_7210_3322" result="shape"/>
</filter>
<filter id="filter2_d_7210_3322" x="45.4648" y="36.0444" width="46.9199" height="59.5718" filterUnits="userSpaceOnUse" color-interpolation-filters="sRGB">
<feFlood flood-opacity="0" result="BackgroundImageFix"/>
<feColorMatrix in="SourceAlpha" type="matrix" values="0 0 0 0 0 0 0 0 0 0 0 0 0 0 0 0 0 0 127 0" result="hardAlpha"/>
<feOffset dy="4"/>
<feGaussianBlur stdDeviation="2"/>
<feComposite in2="hardAlpha" operator="out"/>
<feColorMatrix type="matrix" values="0 0 0 0 0 0 0 0 0 0 0 0 0 0 0 0 0 0 0.25 0"/>
<feBlend mode="normal" in2="BackgroundImageFix" result="effect1_dropShadow_7210_3322"/>
<feBlend mode="normal" in="SourceGraphic" in2="effect1_dropShadow_7210_3322" result="shape"/>
</filter>
</defs>
</svg>
