<svg width="107" height="87" viewBox="0 0 107 87" fill="none" xmlns="http://www.w3.org/2000/svg">
<path d="M9.05031 44.4716L12.7367 42.1349L9.54613 36.038V36.0643L9.10654 36.266V35.198L7.90285 32.8984L3.83463 34.7233C3.83463 34.7238 3.83463 34.7238 3.83411 34.7238C4.47337 34.4303 5.30198 34.4973 6.21674 34.9983C8.32592 36.152 10.0946 39.1692 10.1673 41.7371C10.2055 43.079 9.77212 44.031 9.05031 44.4716ZM6.09705 36.3026C7.55511 37.2055 8.84961 39.4354 8.9884 41.283C9.12718 43.1301 8.05763 43.8963 6.59958 42.9934C5.14152 42.09 3.84753 39.8606 3.70874 38.013C3.56995 36.1654 4.63898 35.3997 6.09705 36.3026ZM11.1832 84.985C11.6259 84.7885 12.033 84.9985 12.0933 85.454C12.1532 85.9101 11.8431 86.439 11.4004 86.6361C10.9578 86.8326 10.5502 86.6227 10.4903 86.1671C10.4305 85.711 10.7405 85.1821 11.1832 84.985ZM8.30322 83.3366C8.34398 83.7844 8.03906 84.2926 7.60773 84.4846C7.16505 84.6817 6.75745 84.4717 6.6976 84.0156C6.66923 83.7999 6.72443 83.5688 6.8364 83.3634C7.31416 83.3758 7.80431 83.366 8.30322 83.3366ZM55.1246 74.9809C56.5827 75.8838 57.8772 78.1137 58.016 79.9613C58.1548 81.8089 57.0852 82.5746 55.6272 81.6717C54.1691 80.7688 52.8751 78.5388 52.7363 76.6912C52.5975 74.8437 53.6666 74.078 55.1246 74.9809ZM55.4455 72.6545L55.4512 72.2407L55.4682 70.9539L55.9171 71.0282L56.4119 71.1103V73.2344C56.188 73.0714 55.9589 72.9249 55.7252 72.7969C55.6318 72.7458 55.5384 72.6984 55.4455 72.6545ZM16.6223 54.0454C16.5496 51.4776 14.7809 48.4603 12.6717 47.3062C11.757 46.8057 10.9283 46.7386 10.2896 47.0322V47.0317L14.347 45.212L14.8129 46.1025L15.5615 47.5327V48.5744L16.0011 48.3726L19.1814 54.4499L15.5104 56.7763C16.2297 56.3352 16.6605 55.3838 16.6223 54.0454ZM12.552 48.611C14.0101 49.5139 15.3046 51.7433 15.4434 53.5909C15.5822 55.4385 14.5131 56.2047 13.0551 55.3012C11.597 54.3983 10.3025 52.1684 10.1637 50.3214C10.0249 48.4738 11.0945 47.7076 12.552 48.611ZM73.0516 77.9749C74.5097 78.8778 75.8042 81.1077 75.943 82.9553C76.0818 84.8029 75.0122 85.5686 73.5541 84.6657C72.0961 83.7628 70.8021 81.5329 70.6633 79.6853C70.5245 77.8377 71.5936 77.072 73.0516 77.9749ZM73.3725 75.6485L73.3782 75.2347L73.3957 73.9237L74.3389 74.0801V76.229C74.115 76.0659 73.8859 75.9189 73.6522 75.7909C73.5588 75.7398 73.4654 75.6929 73.3725 75.6485Z" fill="#035782"/>
<path d="M62.8219 72.1667C64.0142 73.4715 64.8243 75.3433 64.8093 77.0362C64.799 78.2001 64.4012 79.0648 63.7619 79.5313L63.7692 79.5359L65.6761 78.3276L68.8027 76.3463C68.9389 76.2674 69.0628 76.1678 69.1737 76.0476C69.2841 75.9279 69.3811 75.7876 69.4631 75.6281C69.4869 75.5827 69.509 75.5358 69.5297 75.4873C69.5715 75.3903 69.6081 75.2871 69.6396 75.1777C69.6551 75.1236 69.6695 75.0673 69.6824 75.01C69.7469 74.7227 69.7763 74.3992 69.7665 74.0432C69.7593 73.8012 69.7335 73.5541 69.6922 73.3049L62.8219 72.1667ZM87.6151 76.2746C87.6589 76.5316 87.6863 76.787 87.6935 77.0372C87.7012 77.322 87.6842 77.5862 87.644 77.8271C87.6336 77.8875 87.6223 77.9468 87.6094 78.0041C87.5563 78.2409 87.4794 78.4535 87.3813 78.6392C87.2183 78.9493 86.997 79.1861 86.7297 79.3404L84.1902 80.9496L81.6962 82.5304L81.6889 82.5253C82.3282 82.0589 82.726 81.1942 82.7363 80.0302C82.7513 78.325 81.9299 76.4382 80.7231 75.1323L87.6151 76.2746ZM27.5484 67.4329C27.909 67.227 28.201 67.437 28.201 67.9029V69.0798C28.201 69.5452 27.909 70.0895 27.5484 70.2959C27.1877 70.5017 26.8957 70.2912 26.8957 69.8258V68.6485C26.8957 68.1831 27.1877 67.6388 27.5484 67.4329ZM30.5615 65.6746C30.9216 65.4687 31.2141 65.6787 31.2141 66.1446V67.3214C31.2141 67.7873 30.9216 68.3317 30.5615 68.5375C30.2008 68.7434 29.9083 68.5329 29.9083 68.0675V66.8901C29.9083 66.4247 30.2008 65.8804 30.5615 65.6746ZM33.5746 63.9162C33.9347 63.7104 34.2272 63.9209 34.2272 64.3862V65.5636C34.2272 66.029 33.9347 66.5733 33.5746 66.7792C33.2139 66.9851 32.9214 66.7745 32.9214 66.3092V65.1323C32.9214 64.6664 33.2139 64.1221 33.5746 63.9162ZM36.5872 62.1579C36.9478 61.952 37.2404 62.1625 37.2404 62.6279V63.8053C37.2404 64.2707 36.9478 64.815 36.5872 65.0209C36.227 65.2267 35.9345 65.0167 35.9345 64.5508V63.374C35.9345 62.9081 36.227 62.3637 36.5872 62.1579ZM56.1002 50.7715C56.4608 50.5651 56.7528 50.7756 56.7528 51.241V52.4184C56.7528 52.8838 56.4608 53.4281 56.1002 53.6345C55.7395 53.8403 55.4475 53.6298 55.4475 53.1645V51.9871C55.4475 51.5217 55.7395 50.9774 56.1002 50.7715ZM59.0973 49.0225C59.4579 48.8161 59.75 49.0266 59.75 49.492V50.6694C59.75 51.1347 59.4579 51.6791 59.0973 51.8854C58.7367 52.0913 58.4446 51.8808 58.4446 51.4154V50.238C58.4446 49.7726 58.7367 49.2283 59.0973 49.0225ZM62.0944 47.2734C62.4551 47.067 62.7476 47.2775 62.7476 47.7434V48.9203C62.7476 49.3857 62.4551 49.93 62.0944 50.1364C61.7343 50.3422 61.4417 50.1317 61.4417 49.6664V48.489C61.4417 48.0236 61.7343 47.4793 62.0944 47.2734ZM65.0915 48.3873C64.7314 48.5932 64.4389 48.3827 64.4389 47.9173V46.7399C64.4389 46.2745 64.7314 45.7302 65.0915 45.5244C65.4522 45.3185 65.7447 45.5285 65.7447 45.9944V47.1713C65.7447 47.6366 65.4522 48.1815 65.0915 48.3873ZM42.1145 58.9332C42.4751 58.7269 42.7672 58.9374 42.7672 59.4027V60.5801C42.7672 61.0455 42.4751 61.5898 42.1145 61.7957C41.7538 62.0021 41.4618 61.7916 41.4618 61.3262V60.1488C41.4618 59.6834 41.7538 59.1391 42.1145 58.9332ZM45.1116 57.1842C45.4722 56.9778 45.7648 57.1883 45.7648 57.6537V58.8311C45.7648 59.2965 45.4722 59.8408 45.1116 60.0472C44.7515 60.253 44.4589 60.0425 44.4589 59.5771V58.3997C44.4589 57.9344 44.7515 57.39 45.1116 57.1842ZM48.1092 55.4351C48.4694 55.2288 48.7619 55.4393 48.7619 55.9046V57.082C48.7619 57.5474 48.4694 58.0917 48.1092 58.2981C47.7486 58.504 47.4561 58.2935 47.4561 57.8281V56.6507C47.4561 56.1853 47.7486 55.641 48.1092 55.4351ZM51.1064 53.6861C51.467 53.4797 51.759 53.6902 51.759 54.1561V55.333C51.759 55.7984 51.467 56.3427 51.1064 56.5491C50.7457 56.7549 50.4537 56.5444 50.4537 56.079V54.9016C50.4537 54.4363 50.7457 53.8919 51.1064 53.6861ZM1.77436 72.0031C1.82647 71.8803 1.88013 71.7575 1.93534 71.6358C2.15616 71.1467 2.40072 70.6637 2.66747 70.1916C2.80058 69.9559 2.93936 69.7221 3.08331 69.492C3.15555 69.3775 3.22829 69.2635 3.30259 69.1505C3.30311 69.15 3.30311 69.1494 3.30362 69.1494C3.7365 71.1348 4.97476 72.646 7.24853 73.1232C8.34181 73.3528 9.5677 73.407 10.8467 73.3317C11.6913 73.2816 12.4038 73.9508 12.4038 74.797C12.4038 75.5281 11.8662 76.1498 11.1424 76.2519C9.23285 76.5207 7.36101 76.5568 5.76984 76.223C3.40217 75.7257 2.15616 74.1097 1.77436 72.0031Z" fill="#01C8A9"/>
<path d="M2.52824 37.5672C2.52567 37.481 2.52567 37.3969 2.5267 37.3139C2.52721 37.2875 2.52876 37.2617 2.52979 37.2354C2.53134 37.1797 2.53341 37.1245 2.53702 37.0703C2.53908 37.0399 2.54166 37.0105 2.54424 36.9811C2.54837 36.9321 2.5525 36.8836 2.55817 36.8356C2.56178 36.8057 2.56539 36.7762 2.56952 36.7463C2.57571 36.7004 2.58294 36.655 2.59016 36.6101C2.59532 36.5817 2.59996 36.5534 2.60564 36.5255C2.61441 36.4801 2.6237 36.4357 2.63402 36.3924C2.63969 36.3666 2.64536 36.3413 2.65156 36.316C2.66342 36.2696 2.67632 36.2237 2.68974 36.1788C2.69593 36.1587 2.70161 36.138 2.70779 36.1184C2.72585 36.0617 2.74494 36.007 2.76507 35.9538C2.76816 35.9461 2.77074 35.9384 2.77332 35.9311C2.79809 35.8682 2.82388 35.8073 2.85175 35.7485C2.85278 35.7464 2.85381 35.7444 2.85484 35.7423C2.88115 35.6876 2.90901 35.6345 2.9379 35.5829C2.94461 35.571 2.95184 35.5602 2.95906 35.5483C2.9828 35.5075 3.00756 35.4673 3.03336 35.4286C3.04264 35.4152 3.05193 35.4023 3.06122 35.3889C3.08649 35.3533 3.1123 35.3182 3.13861 35.2846C3.14893 35.2723 3.15925 35.2599 3.16956 35.2475C3.19691 35.2145 3.22529 35.1825 3.25418 35.1515C3.2645 35.1407 3.2743 35.1304 3.28462 35.1195C3.31609 35.0876 3.34859 35.0571 3.38161 35.0282C3.39039 35.0205 3.39864 35.0127 3.40742 35.005C3.44662 34.9715 3.48739 34.9395 3.52917 34.9096C3.53176 34.9075 3.53434 34.9054 3.53743 34.9034C3.6303 34.8373 3.72936 34.7801 3.83255 34.7326C4.47181 34.439 5.30042 34.5061 6.21518 35.0071C8.32436 36.1607 10.093 39.178 10.1658 41.7458C10.2039 43.0878 9.77055 44.0397 9.04874 44.4803L9.03327 44.4896C8.99612 44.5123 8.95743 44.5329 8.91821 44.5526C8.91357 44.5546 8.90893 44.5572 8.90428 44.5598C8.86816 44.5778 8.83102 44.5938 8.79336 44.6093C8.7851 44.6124 8.77736 44.616 8.7691 44.6196C8.73351 44.6336 8.69739 44.6459 8.66127 44.6578C8.64993 44.6614 8.63908 44.665 8.62774 44.6686C8.59317 44.679 8.55808 44.6882 8.52197 44.697C8.50855 44.7001 8.49514 44.7037 8.48121 44.7068C8.44716 44.714 8.41259 44.7207 8.3775 44.7264C8.36151 44.729 8.34551 44.7316 8.32952 44.7336C8.29547 44.7388 8.26141 44.7424 8.22684 44.7455C8.20879 44.7471 8.19073 44.7486 8.17216 44.7496C8.13914 44.7517 8.1056 44.7533 8.07155 44.7538C8.05143 44.7543 8.03079 44.7543 8.01015 44.7538C7.97765 44.7538 7.94411 44.7527 7.91109 44.7512C7.88839 44.7502 7.8662 44.7486 7.8435 44.7465C7.811 44.744 7.7785 44.7414 7.74599 44.7373C7.72122 44.7347 7.69646 44.7311 7.67169 44.7275C7.64022 44.7228 7.60823 44.7177 7.57624 44.712C7.54993 44.7073 7.5231 44.7011 7.49627 44.6955C7.4648 44.6893 7.43385 44.6826 7.40237 44.6748C7.37347 44.6681 7.34458 44.6599 7.31569 44.6516C7.28525 44.6434 7.25533 44.6351 7.22437 44.6258C7.19341 44.6165 7.16194 44.6052 7.13047 44.5949C7.10158 44.5851 7.07217 44.5753 7.04327 44.5649C7.00871 44.552 6.97414 44.5381 6.94009 44.5242C6.91273 44.5128 6.88539 44.503 6.85805 44.4912C6.81884 44.4741 6.77962 44.4556 6.7399 44.4375C6.71668 44.4261 6.69347 44.4163 6.66973 44.405C6.61195 44.3766 6.55312 44.3462 6.49483 44.3147C6.48915 44.3116 6.48399 44.309 6.47883 44.3064C4.70398 43.3349 3.17059 41.0446 2.68561 38.8127C2.68045 38.7895 2.6758 38.7662 2.67117 38.7425C2.58862 38.3457 2.53908 37.9516 2.52824 37.5672ZM6.59801 43.0021C8.05607 43.905 9.12563 43.1389 8.98683 41.2918C8.84805 39.4442 7.55354 37.2143 6.09548 36.3114C4.63743 35.4085 3.56839 36.1741 3.70718 38.0217C3.84597 39.8693 5.13995 42.0987 6.59801 43.0021ZM8.99921 49.2894C9.00334 49.2404 9.00799 49.1914 9.01315 49.1439C9.01676 49.114 9.02089 49.0846 9.0245 49.0547C9.0312 49.0088 9.03791 48.9628 9.04565 48.9185C9.05029 48.8901 9.05546 48.8617 9.06062 48.8339C9.06938 48.7884 9.07867 48.7441 9.08899 48.7002C9.09467 48.6749 9.10034 48.6497 9.10705 48.6244C9.1184 48.5779 9.13181 48.532 9.14523 48.4871C9.1509 48.467 9.15658 48.4464 9.16277 48.4268C9.18083 48.37 9.19992 48.3153 9.22056 48.2617C9.22314 48.2544 9.22572 48.2467 9.22829 48.2395C9.25306 48.1765 9.27937 48.1157 9.30724 48.0568C9.30827 48.0548 9.3093 48.0527 9.31033 48.0507C9.33665 47.9954 9.36399 47.9428 9.39288 47.8912C9.40011 47.8794 9.40733 47.868 9.41403 47.8567C9.43829 47.8154 9.46305 47.7757 9.48885 47.737C9.49762 47.7235 9.5069 47.7106 9.51619 47.6972C9.54147 47.6616 9.56727 47.6265 9.59358 47.593C9.6039 47.5806 9.61422 47.5682 9.62454 47.5559C9.65189 47.5228 9.68026 47.4909 9.70915 47.4599C9.71947 47.4491 9.72928 47.4382 9.73959 47.4279C9.77107 47.3959 9.80357 47.3655 9.83659 47.3366C9.84537 47.3288 9.85362 47.3206 9.86239 47.3134C9.9016 47.2798 9.94236 47.2478 9.98363 47.2184C9.98673 47.2159 9.98931 47.2138 9.99241 47.2117C10.0858 47.1452 10.1843 47.0884 10.288 47.0409C10.9268 46.7474 11.7554 46.8144 12.6702 47.3149C14.7793 48.4691 16.548 51.4863 16.6207 54.0542C16.6589 55.3925 16.2281 56.3439 15.5089 56.7851L15.4888 56.798C15.4511 56.8207 15.4124 56.8408 15.3737 56.8604C15.3685 56.863 15.3639 56.8656 15.3593 56.8681C15.3231 56.8857 15.286 56.9022 15.2488 56.9171C15.2406 56.9208 15.2323 56.9244 15.2241 56.9275C15.189 56.9419 15.1529 56.9543 15.1162 56.9656C15.1054 56.9693 15.0941 56.9734 15.0827 56.977C15.0481 56.9873 15.0131 56.9966 14.9775 57.0054C14.9635 57.0085 14.9501 57.0121 14.9362 57.0152C14.9021 57.0224 14.8676 57.0291 14.8325 57.0348C14.8165 57.0374 14.8005 57.0399 14.7845 57.042C14.751 57.0466 14.7164 57.0508 14.6823 57.0539C14.6638 57.0554 14.6457 57.057 14.6276 57.058C14.5941 57.0601 14.5606 57.0616 14.5265 57.0621C14.5064 57.0626 14.4858 57.0626 14.4651 57.0621C14.4326 57.0621 14.3996 57.0611 14.3661 57.0595C14.3439 57.0585 14.3212 57.0565 14.2985 57.0549C14.266 57.0523 14.234 57.0497 14.201 57.0456C14.1767 57.043 14.1519 57.0389 14.1267 57.0353C14.0952 57.0312 14.0632 57.026 14.0312 57.0203C14.0049 57.0157 13.9781 57.0095 13.9512 57.0038C13.9198 56.9976 13.8888 56.9909 13.8573 56.9832C13.829 56.976 13.7996 56.9677 13.7707 56.96C13.7402 56.9517 13.7103 56.9435 13.6799 56.9342C13.6484 56.9244 13.6169 56.9135 13.5854 56.9027C13.5565 56.8929 13.5277 56.8836 13.4982 56.8728C13.4642 56.8604 13.4291 56.8459 13.3945 56.832C13.3677 56.8212 13.3404 56.8114 13.313 56.7995C13.2738 56.7825 13.2336 56.7634 13.1938 56.7448C13.1706 56.7345 13.1479 56.7247 13.1247 56.7133C13.0664 56.6845 13.0071 56.654 12.9472 56.6215C12.9431 56.6189 12.9384 56.6169 12.9338 56.6148C12.0299 56.12 11.1884 55.2826 10.5161 54.2858C10.3376 54.0201 10.1709 53.7431 10.0177 53.4588C10.0115 53.4469 10.0053 53.435 9.99911 53.4232C9.89799 53.2333 9.80254 53.0398 9.71483 52.8438C9.70142 52.8138 9.68851 52.7839 9.67562 52.754C9.58069 52.5373 9.494 52.318 9.41713 52.0972C9.37688 51.9816 9.33974 51.8655 9.30466 51.7495C9.11427 51.12 9.00025 50.4849 8.98322 49.8755C8.98064 49.7894 8.98064 49.7053 8.98219 49.6222C8.98219 49.5954 8.98374 49.5701 8.98477 49.5438C8.98632 49.4881 8.98838 49.4323 8.992 49.3787C8.99406 49.3482 8.99664 49.3188 8.99921 49.2894ZM13.0535 55.31C14.5116 56.2134 15.5806 55.4472 15.4418 53.5996C15.303 51.752 14.0085 49.5226 12.5505 48.6197C11.0929 47.7163 10.0234 48.4825 10.1622 50.3301C10.3009 52.1772 11.5954 54.4071 13.0535 55.31ZM87.6936 77.0539C87.7013 77.3382 87.6838 77.6008 87.644 77.8412C87.6838 77.6008 87.7013 77.3377 87.6936 77.0539ZM1.77445 72.0173C2.15625 74.1239 3.40225 75.7398 5.76992 76.2372C7.36109 76.571 9.23294 76.5349 11.1424 76.2661C11.8663 76.1639 12.4039 75.5422 12.4039 74.8111C12.4039 73.965 11.6914 73.2958 10.8468 73.3458C9.56779 73.4212 8.3419 73.367 7.24862 73.1374C4.97485 72.6601 3.73659 71.1489 3.30371 69.1636C4.52753 67.3036 6.09497 65.6856 7.8693 64.6501C11.3143 62.64 15.7029 60.0789 20.6193 57.2097L19.1798 54.4587L15.9995 48.3814L15.56 48.5831V47.5414L14.8113 46.1112L14.3454 45.2207L12.7352 42.1436L9.54457 36.0467V36.073L9.10499 36.2747V35.2067L7.90129 32.9072L1.57375 20.816C1.4231 20.5287 1.34467 20.2098 1.34467 19.8858V19.7078C1.34467 18.9947 1.72337 18.3349 2.33941 17.9758L5.43301 16.1705C6.22292 15.7092 7.2254 15.8418 7.86827 16.4929L38.0515 47.0373C46.2235 42.2685 54.5695 37.3985 61.7958 33.1811L58.6103 22.0244C58.5319 21.7504 58.5629 21.4568 58.696 21.2051L58.7146 21.1705C58.811 20.9889 58.956 20.8377 59.1335 20.734L60.2598 20.0772C60.6963 19.8223 61.2494 19.8971 61.6028 20.2578L69.3729 28.194L79.8667 3.46226C80.2702 2.51137 80.9698 1.71682 81.8619 1.19623L83.1847 0.423861C84.0582 -0.0858917 85.1309 0.65036 84.9699 1.64923L81.7355 21.7086C83.501 20.9796 84.7733 21.0761 84.8543 23.2946C84.9395 25.6184 83.3375 29.8389 80.7077 34.5298L94.4917 39.2992C94.7744 39.3972 94.9643 39.6635 94.9643 39.9627V39.9823C94.9643 40.232 94.8317 40.4627 94.616 40.5886L93.4629 41.2613C93.0486 41.5033 92.5662 41.6029 92.0894 41.5461L77.4459 39.7904C73.3065 45.8801 67.9221 51.8934 62.5955 55.0014L60.1375 56.4358L105.69 73.2901C106.202 73.4795 106.541 73.967 106.541 74.5129C106.541 74.9762 106.295 75.405 105.895 75.6387L101.921 77.9568C101.316 78.3102 100.606 78.4408 99.9147 78.3262L87.6152 76.2888L80.7232 75.1465C81.93 76.4523 82.7514 78.3391 82.7364 80.0443C82.7261 81.2083 82.3283 82.073 81.689 82.5394L81.6962 82.5446L84.1903 80.9637L76.008 86.1495L75.9878 86.1624C75.9507 86.1846 75.912 86.2052 75.8728 86.2248C75.8681 86.2274 75.8635 86.23 75.8589 86.232C75.8227 86.2501 75.7856 86.2661 75.7479 86.2816C75.7397 86.2847 75.7319 86.2888 75.7237 86.2919C75.6881 86.3058 75.652 86.3182 75.6158 86.3301C75.6045 86.3337 75.5937 86.3378 75.5823 86.3409C75.5477 86.3517 75.5127 86.3605 75.4771 86.3693C75.4631 86.3729 75.4497 86.376 75.4358 86.3791C75.4017 86.3868 75.3672 86.393 75.3321 86.3987C75.3161 86.4013 75.3001 86.4039 75.2841 86.4064C75.25 86.4111 75.216 86.4147 75.1814 86.4178C75.1634 86.4193 75.1453 86.4209 75.1267 86.4219C75.0937 86.4245 75.0602 86.4255 75.0261 86.426C75.006 86.4266 74.9854 86.4266 74.9647 86.4266C74.9317 86.426 74.8987 86.4255 74.8657 86.4235C74.843 86.4224 74.8208 86.4209 74.7981 86.4193C74.7656 86.4168 74.7331 86.4137 74.7006 86.41C74.6758 86.407 74.651 86.4033 74.6263 86.3997C74.5948 86.3951 74.5628 86.3904 74.5308 86.3843C74.504 86.3796 74.4772 86.3739 74.4508 86.3683C74.4194 86.3615 74.3884 86.3554 74.3569 86.3476C74.328 86.3404 74.2992 86.3321 74.2703 86.3244C74.2398 86.3156 74.2099 86.3079 74.1789 86.2986C74.148 86.2888 74.1165 86.278 74.085 86.2671C74.0556 86.2573 74.0267 86.248 73.9978 86.2372C73.9633 86.2243 73.9287 86.2104 73.8941 86.1964C73.8668 86.1856 73.84 86.1753 73.8126 86.1634C73.7729 86.1464 73.7332 86.1278 73.6929 86.1093C73.6702 86.0984 73.6475 86.0886 73.6243 86.0773C73.5655 86.0489 73.5067 86.0179 73.4468 85.9859C73.4422 85.9834 73.438 85.9813 73.4334 85.9787C73.2461 85.876 73.0614 85.7589 72.8803 85.6289C71.6142 84.7172 70.5261 83.1653 69.9405 81.5277C69.9002 81.4152 69.862 81.3017 69.8264 81.1882C69.7243 80.8611 69.6428 80.5324 69.585 80.2063C69.5267 79.8803 69.4916 79.5563 69.4828 79.2395C69.4802 79.1533 69.4802 79.0692 69.4813 78.9866C69.4818 78.9598 69.4833 78.934 69.4844 78.9077C69.4859 78.852 69.488 78.7968 69.4916 78.7426C69.4937 78.7127 69.4962 78.6833 69.4988 78.6534C69.5029 78.6043 69.5071 78.5558 69.5127 78.5084C69.5164 78.4779 69.52 78.4485 69.5241 78.4191C69.5303 78.3727 69.5375 78.3273 69.5447 78.2824C69.5499 78.254 69.5545 78.2256 69.5602 78.1978C69.569 78.1529 69.5783 78.1085 69.5886 78.0647C69.5943 78.0394 69.5999 78.0136 69.6061 77.9888C69.618 77.9419 69.6309 77.8965 69.6443 77.8511C69.6505 77.8309 69.6562 77.8103 69.6624 77.7907C69.6804 77.7345 69.6995 77.6792 69.7202 77.6261C69.7227 77.6189 69.7253 77.6111 69.7279 77.6039C69.7527 77.541 69.7785 77.4801 69.8063 77.4213C69.8074 77.4187 69.8089 77.4166 69.8099 77.4146C69.8357 77.3599 69.8636 77.3067 69.8925 77.2557C69.8992 77.2438 69.9064 77.2324 69.9136 77.2206C69.9379 77.1798 69.9621 77.1396 69.9879 77.1009C69.9972 77.0875 70.0065 77.0746 70.0158 77.0617C70.0411 77.0255 70.0664 76.991 70.0932 76.9574C70.1035 76.9445 70.1138 76.9322 70.1241 76.9198C70.1515 76.8868 70.1799 76.8548 70.2088 76.8243C70.2186 76.8135 70.2289 76.8027 70.2392 76.7923C70.2707 76.7603 70.3032 76.7299 70.3362 76.7005C70.345 76.6928 70.3532 76.685 70.362 76.6778C70.4012 76.6443 70.442 76.6123 70.4832 76.5824C70.4863 76.5803 70.4889 76.5777 70.492 76.5756C70.5854 76.5096 70.6839 76.4523 70.7871 76.4049C70.7876 76.4049 70.7876 76.4049 70.7876 76.4049L73.3766 75.2435L73.371 75.6573C73.4638 75.7016 73.5572 75.7486 73.6506 75.7997C73.8843 75.9276 74.1134 76.0747 74.3373 76.2377V74.0888L75.5152 74.2838L69.6923 73.319L62.822 72.1808C64.0143 73.4856 64.8244 75.3575 64.8094 77.0503C64.7991 78.2143 64.4013 79.079 63.762 79.5454L63.7693 79.5501L58.0737 83.1601L58.0609 83.1684C58.0237 83.1906 57.985 83.2112 57.9463 83.2308C57.9412 83.2329 57.9365 83.236 57.9319 83.238C57.8957 83.2561 57.8586 83.2721 57.8215 83.2876C57.8132 83.2906 57.8049 83.2948 57.7967 83.2979C57.7611 83.3118 57.725 83.3242 57.6889 83.3361C57.6775 83.3397 57.6667 83.3433 57.6553 83.3469C57.6208 83.3572 57.5857 83.3665 57.5501 83.3753C57.5361 83.3784 57.5227 83.382 57.5088 83.3851C57.4747 83.3928 57.4402 83.399 57.4051 83.4047C57.3891 83.4073 57.3731 83.4098 57.3571 83.4124C57.3231 83.4171 57.289 83.4207 57.2544 83.4238C57.2364 83.4253 57.2183 83.4269 57.1997 83.4279C57.1667 83.43 57.1332 83.4315 57.0991 83.432C57.079 83.4325 57.0584 83.4325 57.0377 83.4325C57.0052 83.432 56.9722 83.4315 56.9387 83.4294C56.916 83.4284 56.8938 83.4269 56.8711 83.4248C56.8386 83.4222 56.8061 83.4196 56.7736 83.4155C56.7488 83.4129 56.7246 83.4093 56.6998 83.4057C56.6678 83.4011 56.6358 83.3964 56.6038 83.3902C56.5775 83.3856 56.5507 83.3799 56.5239 83.3742C56.4929 83.3675 56.4614 83.3608 56.43 83.3531C56.4011 83.3464 56.3727 83.3381 56.3438 83.3304C56.3133 83.3216 56.2829 83.3139 56.2519 83.3041C56.221 83.2948 56.19 83.2839 56.1586 83.2731C56.1292 83.2633 56.1003 83.254 56.0703 83.2432C56.0368 83.2308 56.0022 83.2164 55.9682 83.2029C55.9408 83.1916 55.9135 83.1813 55.8856 83.1694C55.8464 83.1529 55.8072 83.1343 55.768 83.1157C55.7443 83.1049 55.721 83.0951 55.6973 83.0832C55.6406 83.0554 55.5833 83.026 55.5255 82.9945C55.5193 82.9914 55.5126 82.9883 55.5064 82.9847C53.3972 81.8305 51.6286 78.8133 51.5558 76.2454C51.5532 76.1593 51.5532 76.0752 51.5543 75.9921C51.5548 75.9658 51.5563 75.94 51.5574 75.9137C51.5589 75.858 51.561 75.8028 51.5646 75.7486C51.5667 75.7181 51.5692 75.6892 51.5718 75.6593C51.576 75.6103 51.5801 75.5618 51.5858 75.5143C51.5894 75.4839 51.593 75.4545 51.5971 75.4251C51.6033 75.3786 51.6105 75.3332 51.6177 75.2884C51.6229 75.26 51.6275 75.2316 51.6332 75.2037C51.642 75.1589 51.6513 75.1145 51.6616 75.0706C51.6673 75.0453 51.6729 75.0196 51.6791 74.9948C51.691 74.9478 51.7039 74.9024 51.7173 74.857C51.7235 74.8369 51.7292 74.8163 51.7354 74.7967C51.7534 74.7404 51.7725 74.6857 51.7926 74.6321C51.7957 74.6249 51.7983 74.6171 51.8009 74.6099C51.8257 74.547 51.8515 74.4861 51.8793 74.4273C51.8804 74.4252 51.8814 74.4231 51.8824 74.4211C51.9087 74.3659 51.9366 74.3127 51.9655 74.2616C51.9722 74.2498 51.9794 74.2384 51.9866 74.2265C52.0104 74.1858 52.0351 74.1455 52.0609 74.1068C52.0702 74.0934 52.0795 74.0805 52.0888 74.0676C52.1141 74.0315 52.1399 73.997 52.1662 73.9634C52.1765 73.9505 52.1868 73.9381 52.1966 73.9258C52.2245 73.8927 52.2529 73.8607 52.2818 73.8298C52.2921 73.8195 52.3019 73.8086 52.3122 73.7983C52.3437 73.7663 52.3762 73.7359 52.4092 73.7065C52.418 73.6987 52.4262 73.691 52.435 73.6838C52.4742 73.6497 52.515 73.6182 52.5562 73.5883C52.5593 73.5863 52.5619 73.5837 52.565 73.5816C52.6584 73.5156 52.7569 73.4583 52.8601 73.4108C52.8606 73.4108 52.8606 73.4108 52.8606 73.4108L55.4497 72.2495L55.444 72.6632C55.5369 72.7071 55.6302 72.7546 55.7236 72.8056C55.9573 72.9336 56.1864 73.0801 56.4103 73.2432V71.119L57.3942 71.2815L55.9156 71.037L55.4667 70.9627L39.7154 68.353C39.7154 68.353 25.1906 76.829 19.8387 79.952C17.2786 81.4462 12.5025 83.0961 8.30166 83.3453C7.80274 83.3747 7.31259 83.3846 6.83483 83.3722C6.0831 83.3521 5.36181 83.2788 4.6916 83.1385C0.0413971 82.1623 -0.285713 76.8697 1.77445 72.0173ZM62.8442 32.5692L62.0842 33.0129C64.5592 31.5688 66.9 30.2026 69.0536 28.9458L62.8442 32.5692ZM64.4389 47.9315C64.4389 48.3968 64.7315 48.6074 65.0916 48.4015C65.4523 48.1956 65.7448 47.6508 65.7448 47.1854V46.0085C65.7448 45.5426 65.4523 45.3327 65.0916 45.5385C64.7315 45.7444 64.4389 46.2887 64.4389 46.7541V47.9315ZM61.4418 49.6805C61.4418 50.1459 61.7344 50.3564 62.0945 50.1505C62.4551 49.9442 62.7477 49.3998 62.7477 48.9345V47.7576C62.7477 47.2917 62.4551 47.0812 62.0945 47.2876C61.7344 47.4934 61.4418 48.0378 61.4418 48.5031V49.6805ZM70.6618 79.694C70.8005 81.5416 72.0945 83.7715 73.5526 84.6744C75.0106 85.5773 76.0802 84.8117 75.9414 82.9641C75.8026 81.1165 74.5081 78.8866 73.0501 77.9837C71.592 77.0807 70.523 77.8464 70.6618 79.694ZM52.7348 76.7C52.8736 78.5476 54.1675 80.7775 55.6256 81.6804C57.0837 82.5833 58.1532 81.8176 58.0144 79.97C57.8756 78.1224 56.5811 75.8925 55.1231 74.9896C53.665 74.0867 52.596 74.8524 52.7348 76.7ZM42.7672 59.4169C42.7672 58.9515 42.4752 58.741 42.1146 58.9474C41.7539 59.1532 41.4619 59.6976 41.4619 60.163V61.3403C41.4619 61.8057 41.7539 62.0162 42.1146 61.8098C42.4752 61.604 42.7672 61.0597 42.7672 60.5943V59.4169ZM45.7649 57.6678C45.7649 57.2025 45.4723 56.992 45.1117 57.1983C44.7516 57.4042 44.459 57.9485 44.459 58.4139V59.5913C44.459 60.0567 44.7516 60.2672 45.1117 60.0613C45.4723 59.8549 45.7649 59.3106 45.7649 58.8452V57.6678ZM48.762 55.9188C48.762 55.4534 48.4695 55.2429 48.1093 55.4493C47.7487 55.6551 47.4561 56.1995 47.4561 56.6649V57.8422C47.4561 58.3076 47.7487 58.5181 48.1093 58.3123C48.4695 58.1059 48.762 57.5616 48.762 57.0962V55.9188ZM51.7591 54.1703C51.7591 53.7044 51.4671 53.4939 51.1064 53.7002C50.7458 53.9061 50.4538 54.4504 50.4538 54.9158V56.0932C50.4538 56.5586 50.7458 56.7691 51.1064 56.5632C51.4671 56.3568 51.7591 55.8125 51.7591 55.3471V54.1703ZM56.7529 51.2552C56.7529 50.7898 56.4609 50.5793 56.1003 50.7857C55.7396 50.9915 55.4476 51.5359 55.4476 52.0012V53.1786C55.4476 53.644 55.7396 53.8545 56.1003 53.6486C56.4609 53.4423 56.7529 52.8979 56.7529 52.4326V51.2552ZM59.75 49.5061C59.75 49.0407 59.458 48.8302 59.0974 49.0366C58.7367 49.2425 58.4447 49.7868 58.4447 50.2522V51.4296C58.4447 51.8949 58.7367 52.1055 59.0974 51.8996C59.458 51.6932 59.75 51.1489 59.75 50.6835V49.5061ZM35.9346 64.565C35.9346 65.0309 36.2271 65.2409 36.5873 65.035C36.9479 64.8291 37.2404 64.2848 37.2404 63.8194V62.6421C37.2404 62.1767 36.9479 61.9662 36.5873 62.172C36.2271 62.3779 35.9346 62.9222 35.9346 63.3881V64.565ZM32.9215 66.3233C32.9215 66.7887 33.214 66.9992 33.5747 66.7934C33.9348 66.5875 34.2273 66.0432 34.2273 65.5778V64.4004C34.2273 63.935 33.9348 63.7245 33.5747 63.9304C33.214 64.1362 32.9215 64.6806 32.9215 65.1465V66.3233ZM29.9084 68.0817C29.9084 68.547 30.2009 68.7575 30.5615 68.5517C30.9217 68.3458 31.2142 67.8015 31.2142 67.3356V66.1587C31.2142 65.6928 30.9217 65.4828 30.5615 65.6887C30.2009 65.8946 29.9084 66.4389 29.9084 66.9043V68.0817ZM26.8958 69.84C26.8958 70.3054 27.1878 70.5159 27.5484 70.31C27.9091 70.1036 28.2011 69.5593 28.2011 69.0939V67.9171C28.2011 67.4512 27.9091 67.2412 27.5484 67.447C27.1878 67.6529 26.8958 68.1972 26.8958 68.6626V69.84Z" fill="white"/>
<path d="M7.33042 83.4958C7.54092 83.4948 7.75349 83.4891 7.96812 83.4803C8.07957 83.4757 8.19205 83.4695 8.30504 83.4628C8.3685 83.4586 8.43196 83.4561 8.49593 83.4514C8.53876 83.4483 8.58158 83.4442 8.6244 83.4411C8.66671 83.438 8.70902 83.4344 8.75185 83.4308C9.11868 83.4009 9.48913 83.3611 9.86215 83.3121C9.90395 83.3064 9.94574 83.3002 9.98753 83.2946C10.0293 83.2889 10.0706 83.2832 10.1124 83.277C10.2532 83.2569 10.3941 83.2358 10.5355 83.2136C10.5773 83.2069 10.6185 83.2007 10.6603 83.194C10.7021 83.1867 10.7439 83.1795 10.7857 83.1723C13.9278 82.6409 17.0962 81.5321 19.2209 80.4301C17.0962 81.5321 13.9278 82.6404 10.7857 83.1723C10.7439 83.1795 10.7021 83.1867 10.6603 83.1935C10.6185 83.2007 10.5773 83.2063 10.5355 83.2131C10.3941 83.2358 10.2532 83.2569 10.1124 83.277C10.0706 83.2832 10.0293 83.2889 9.98753 83.2946C9.94574 83.3002 9.90395 83.3064 9.86215 83.3121C9.48913 83.3611 9.11868 83.4009 8.75185 83.4308C8.70902 83.4344 8.66671 83.438 8.6244 83.4411C8.58158 83.4442 8.53876 83.4483 8.49593 83.4514C8.43196 83.4556 8.3685 83.4586 8.30504 83.4628C8.19205 83.4695 8.07957 83.4757 7.96812 83.4803C7.75349 83.4891 7.54092 83.4942 7.33042 83.4958ZM83.7938 24.6663C83.8191 24.7184 83.8454 24.7705 83.8697 24.8226C84.0487 25.206 84.2009 25.6007 84.3232 25.9995C83.7061 28.2671 82.4168 31.2044 80.6492 34.3717L80.1007 34.1824C79.7937 34.0756 79.4743 34.025 79.1565 34.0271C79.1054 34.0276 79.0539 34.0291 79.0028 34.0328C78.9532 34.0353 78.9042 34.04 78.8552 34.0451C81.0113 30.6064 82.7119 27.2574 83.7185 24.5136C83.7443 24.5642 83.7685 24.6152 83.7938 24.6663ZM0.783089 75.9573C0.798569 75.8412 0.816109 75.7246 0.834686 75.608C0.834686 75.608 0.834686 75.608 0.834686 75.6086C1.26034 77.8044 2.60282 79.2 4.71716 79.6438C5.14797 79.734 5.60046 79.797 6.06893 79.8352C6.11073 79.8383 6.15303 79.8403 6.19431 79.8429C6.2361 79.846 6.27789 79.8486 6.31969 79.8512C6.4595 79.8599 6.60036 79.8666 6.74224 79.8713C6.78403 79.8723 6.82582 79.8739 6.86761 79.8749C6.90941 79.8754 6.95068 79.8775 6.99299 79.8785C11.4219 79.9471 16.9425 78.1253 19.776 76.4717L21.3837 75.5337C21.3987 75.5735 21.4157 75.6122 21.4343 75.6488C21.4539 75.6865 21.475 75.7226 21.4988 75.7566C21.5679 75.8572 21.6535 75.9429 21.7567 76.01C21.9213 76.1162 22.1189 76.1699 22.3346 76.1699C22.5513 76.1699 22.7866 76.1162 23.0249 76.0089C23.8324 75.6467 24.5015 74.7562 24.6238 73.9328C24.6316 73.8812 24.6372 73.8296 24.6409 73.778C24.6429 73.7424 24.646 73.7063 24.646 73.6707V73.6299L62.5328 51.5212C66.8889 48.9791 71.2822 44.4961 74.998 39.6179L75.1347 39.6344L75.2808 39.6519L77.2264 39.8851C72.5757 46.6935 67.2609 52.129 62.5328 54.8882L60.1254 56.2932L58.9573 55.8608C58.0756 55.5347 57.1046 55.6193 56.2925 56.093L40.6475 65.2226C40.3586 65.3913 40.1187 65.6235 39.9407 65.8959C39.9376 65.9 39.935 65.9042 39.9324 65.9088C39.7136 66.2483 39.5908 66.6482 39.5908 67.063V68.276L19.776 79.8388C17.7159 81.0409 14.2348 82.3313 10.7857 82.9205C10.7439 82.9277 10.7021 82.9355 10.6603 82.9427C10.6185 82.9494 10.5773 82.9556 10.5355 82.9623C10.3941 82.985 10.2532 83.0072 10.1124 83.0273C10.0706 83.0335 10.0293 83.0387 9.98753 83.0443C9.94574 83.05 9.90395 83.0552 9.86215 83.0609C9.49532 83.1099 9.13107 83.1496 8.76939 83.1795C8.72811 83.1831 8.68632 83.1873 8.64504 83.1904C8.60325 83.1935 8.56146 83.1976 8.52019 83.2002C8.44022 83.2058 8.36076 83.21 8.28078 83.2146C7.84378 83.2404 7.41348 83.2517 6.99299 83.2456C6.96564 83.245 6.93882 83.2435 6.91147 83.243C6.89651 83.243 6.88206 83.2419 6.86761 83.2419C6.82582 83.2409 6.78403 83.2399 6.74224 83.2383C6.60036 83.2337 6.4595 83.227 6.31969 83.2182C6.27789 83.2156 6.2361 83.2136 6.19431 83.2105C6.15303 83.2074 6.11073 83.2058 6.06893 83.2022C5.9482 83.1924 5.82902 83.1795 5.71036 83.1661C5.66908 83.1615 5.62677 83.1579 5.58498 83.1527C5.5437 83.1475 5.50294 83.1408 5.46167 83.1351C5.20782 83.1016 4.95863 83.0614 4.71716 83.0108C4.62791 82.9922 4.53968 82.9716 4.453 82.9494C4.43494 82.9448 4.41792 82.9391 4.39986 82.9344C4.33124 82.9164 4.26313 82.8978 4.19606 82.8772C4.178 82.872 4.16097 82.8658 4.14291 82.8601C4.07687 82.8395 4.01135 82.8178 3.94737 82.7951C3.93034 82.7889 3.91383 82.7828 3.89732 82.7766C3.83335 82.7533 3.7704 82.7291 3.70849 82.7038C3.69147 82.6966 3.67547 82.6899 3.65896 82.6827C3.59808 82.6569 3.53874 82.6306 3.47993 82.6032C3.46239 82.595 3.44536 82.5867 3.42834 82.5784C3.37261 82.5516 3.31792 82.5238 3.26375 82.4949C3.24466 82.4845 3.22505 82.4747 3.20596 82.4639C3.15798 82.4376 3.11051 82.4097 3.06304 82.3819C3.03983 82.3679 3.0161 82.3545 2.99339 82.3401C2.95882 82.3189 2.92529 82.2962 2.89124 82.274C1.52295 81.3717 0.987915 79.9471 0.794952 78.7558C0.714981 78.2631 0.68145 77.7482 0.689705 77.2193C0.695892 76.8066 0.727364 76.3845 0.783089 75.9573ZM84.2303 25.0161C84.188 24.9181 84.1447 24.8201 84.0993 24.7236C84.0895 24.7024 84.0791 24.6818 84.0693 24.6606C84.0435 24.6065 84.0167 24.5523 83.9899 24.4981C83.9801 24.4785 83.9708 24.4579 83.9605 24.4383C83.9445 24.4068 83.928 24.3758 83.912 24.3444C83.9115 24.3438 83.911 24.3428 83.9104 24.3418C83.8852 24.2928 83.8588 24.2443 83.8325 24.1958C83.8258 24.1829 83.8191 24.17 83.8124 24.1571C83.7928 24.122 83.7732 24.0874 83.7536 24.0523C83.7211 23.9946 83.6881 23.9373 83.6545 23.88C83.6339 23.8449 83.6127 23.8104 83.5916 23.7753C83.5575 23.7185 83.5224 23.6623 83.4868 23.6066C83.4657 23.5735 83.4445 23.54 83.4234 23.5075C83.3852 23.4487 83.346 23.3914 83.3068 23.3341C83.2872 23.3053 83.2676 23.2758 83.2474 23.2475C83.1995 23.1783 83.1499 23.1107 83.0999 23.0437C83.088 23.0277 83.0772 23.0117 83.0653 22.9957C83.0024 22.9126 82.9389 22.8311 82.8739 22.7511C82.8605 22.7341 82.846 22.7176 82.8321 22.7006C82.7815 22.6387 82.7305 22.5773 82.6784 22.5174C82.6557 22.4911 82.6324 22.4658 82.6097 22.4405C82.5654 22.3905 82.521 22.3415 82.4761 22.293C82.4503 22.2651 82.424 22.2383 82.3982 22.2109C82.3549 22.166 82.311 22.1217 82.2672 22.0778C82.2398 22.051 82.213 22.0242 82.1856 21.9979C82.1413 21.955 82.0964 21.9132 82.0515 21.872C82.0241 21.8472 81.9973 21.8224 81.97 21.7982C81.9566 21.7863 81.9426 21.775 81.9292 21.7631C81.9297 21.7631 81.9302 21.7626 81.9308 21.7626C82.4642 21.5547 82.9575 21.4246 83.3713 21.4246C83.4064 21.4246 83.4399 21.4277 83.4739 21.4293C83.5008 21.4308 83.5286 21.4313 83.5544 21.4339C83.5818 21.437 83.6076 21.4422 83.6344 21.4463C83.6685 21.452 83.7025 21.4571 83.735 21.4649C83.7577 21.4706 83.7794 21.4778 83.8016 21.4845C83.8346 21.4943 83.8676 21.5046 83.8991 21.517C83.9197 21.5252 83.9393 21.535 83.9589 21.5443C83.977 21.5531 83.9966 21.5598 84.0141 21.5696C84.0301 21.5784 84.0456 21.5887 84.0611 21.598C84.0678 21.6026 84.0745 21.6062 84.0812 21.6109C84.0957 21.6202 84.1096 21.6305 84.1235 21.6408C84.1349 21.6486 84.1462 21.6568 84.1571 21.6656C84.1705 21.6764 84.1834 21.6878 84.1963 21.6991C84.2071 21.7084 84.2179 21.7177 84.2283 21.728C84.2401 21.7394 84.2525 21.7517 84.2639 21.7641C84.2747 21.775 84.285 21.7863 84.2948 21.7977C84.3056 21.81 84.3165 21.8235 84.3268 21.8364C84.3371 21.8493 84.3469 21.8622 84.3567 21.8751C84.3665 21.8885 84.3763 21.9019 84.3856 21.9158C84.3954 21.9303 84.4047 21.9452 84.4145 21.9607C84.4228 21.9741 84.431 21.988 84.4393 22.0025C84.4486 22.019 84.4579 22.036 84.4671 22.0536C84.4677 22.0551 84.4687 22.0567 84.4697 22.0587C84.4759 22.0711 84.4826 22.084 84.4888 22.0969C84.4976 22.1155 84.5063 22.1346 84.5151 22.1542C84.5213 22.1691 84.5275 22.1836 84.5337 22.1986C84.5404 22.2151 84.5466 22.2321 84.5528 22.2486C84.5543 22.2532 84.5564 22.2579 84.5579 22.263C84.5636 22.278 84.5688 22.293 84.5745 22.3084C84.5822 22.3312 84.5894 22.3549 84.5961 22.3791C84.6008 22.3946 84.6059 22.4101 84.6101 22.4256C84.6173 22.4508 84.6235 22.4772 84.6297 22.503C84.6338 22.519 84.6379 22.5349 84.6415 22.5509C84.6477 22.5783 84.6529 22.6061 84.6586 22.6345C84.6616 22.651 84.6653 22.6675 84.6684 22.6841C84.6735 22.7135 84.6782 22.7444 84.6828 22.7749C84.6854 22.7914 84.688 22.8079 84.6905 22.8249C84.6947 22.8574 84.6988 22.8904 84.7024 22.924C84.704 22.9405 84.7065 22.957 84.7081 22.974C84.7107 22.9988 84.7122 23.0251 84.7148 23.0509C84.7158 23.0628 84.7169 23.0746 84.7174 23.0865V23.087C84.7189 23.1015 84.72 23.1154 84.721 23.1303C84.7246 23.1835 84.7277 23.2382 84.7298 23.2939V23.2944C84.7328 23.3801 84.7328 23.4693 84.7313 23.5601C84.7313 23.5684 84.7318 23.5756 84.7313 23.5839C84.7308 23.6066 84.7287 23.6308 84.7282 23.654C84.7267 23.6948 84.7246 23.7376 84.722 23.7794C84.721 23.8006 84.7205 23.8212 84.7194 23.8424C84.7169 23.8805 84.7138 23.9197 84.7107 23.9584C84.706 24.0111 84.7009 24.0642 84.6952 24.1184C84.6947 24.1266 84.6942 24.1344 84.6931 24.1426V24.1431C84.6885 24.1839 84.6844 24.2247 84.6792 24.2665C84.6792 24.267 84.6792 24.268 84.6792 24.2685C84.6725 24.3222 84.6647 24.3774 84.6565 24.4326C84.6549 24.445 84.6534 24.4574 84.6518 24.4697C84.6482 24.4945 84.6446 24.5193 84.641 24.544C84.6384 24.559 84.6369 24.5734 84.6343 24.5889C84.6178 24.6942 84.5992 24.8015 84.5781 24.9114C84.5781 24.9119 84.5781 24.9119 84.5781 24.9119C84.5724 24.9418 84.5657 24.9733 84.5595 25.0037C84.5595 25.0048 84.559 25.0063 84.559 25.0074C84.5528 25.0373 84.5461 25.0677 84.5399 25.0976C84.5291 25.1528 84.5182 25.2075 84.5058 25.2638C84.4965 25.3061 84.4857 25.3499 84.4759 25.3928C84.4759 25.3933 84.4759 25.3943 84.4754 25.3948C84.464 25.4459 84.4511 25.498 84.4388 25.5496C84.4388 25.5506 84.4382 25.5512 84.4382 25.5522C84.4207 25.5032 84.4032 25.4547 84.3851 25.4062C84.3732 25.3737 84.3614 25.3412 84.349 25.3092C84.317 25.2271 84.284 25.1456 84.2499 25.0641C84.2432 25.0481 84.237 25.0321 84.2303 25.0161ZM82.4766 21.3132C82.5318 21.2977 82.586 21.2838 82.6391 21.2709C82.5855 21.2838 82.5313 21.2977 82.4766 21.3132ZM82.2398 21.3839C82.1516 21.4128 82.0613 21.4437 81.9679 21.4783C82.0597 21.4442 82.1505 21.4128 82.2398 21.3839ZM82.3306 21.3555C82.3007 21.3648 82.2708 21.3741 82.2398 21.3839C82.2702 21.3741 82.3007 21.3648 82.3306 21.3555ZM82.4766 21.3132C82.4286 21.3261 82.3796 21.3405 82.3306 21.3555C82.3801 21.3405 82.4286 21.3266 82.4766 21.3132ZM83.6757 21.1976C83.7046 21.2028 83.7329 21.2079 83.7608 21.2136C83.7329 21.2079 83.7046 21.2023 83.6757 21.1976ZM83.5838 21.1852C83.3094 21.1563 83.0044 21.1868 82.6753 21.2626C83.0199 21.1821 83.3212 21.1563 83.5838 21.1852ZM83.9115 21.2533C83.863 21.2373 83.8124 21.225 83.7608 21.2136C83.8124 21.2255 83.8635 21.2373 83.9115 21.2533ZM81.8941 21.5062V21.5056C81.8962 21.5051 81.8977 21.5046 81.8998 21.5036C81.8983 21.5046 81.8962 21.5051 81.8941 21.5062ZM84.1834 21.3792C84.1911 21.3839 84.1988 21.388 84.2066 21.3926C84.2097 21.3947 84.2123 21.3968 84.2148 21.3983C84.2045 21.3921 84.1937 21.3859 84.1834 21.3792ZM84.9671 23.8934C84.9243 24.5059 84.7937 25.2215 84.5755 26.0315C84.5739 26.0372 84.5703 26.0418 84.5683 26.0475C84.5745 26.033 84.5775 26.0181 84.5781 26.0026C84.7901 25.2137 84.9237 24.5038 84.9671 23.8934ZM85.0527 1.92041V1.92092L81.8941 21.5056L85.0527 1.92041ZM84.7633 2.14071L81.6227 21.615L81.6222 21.6181V21.6197L81.5995 21.761L81.5933 21.7982L81.5928 21.8008L81.5753 21.9101L81.1697 24.4233C81.0614 25.0971 80.661 25.6801 80.0713 26.0238L70.3736 31.6713L70.1925 31.7765L70.0481 31.8612C70.0362 31.8679 70.0248 31.873 70.013 31.8792L71.9039 27.423L71.9859 27.23L72.0675 27.0371L81.4561 4.91133C81.8673 3.94239 82.5943 3.11636 83.5034 2.58597L84.8149 1.82031L84.7891 1.98077L84.7633 2.14071Z" fill="#01C8A9"/>
</svg>
