<svg width="39" height="42" viewBox="0 0 39 42" fill="none" xmlns="http://www.w3.org/2000/svg">
<path d="M35.1571 3.77209H30.4247V2.19464C30.4247 1.77627 30.2585 1.37504 29.9627 1.07921C29.6669 0.783383 29.2657 0.617188 28.8473 0.617188C28.4289 0.617188 28.0277 0.783383 27.7319 1.07921C27.436 1.37504 27.2698 1.77627 27.2698 2.19464V3.77209H11.4953V2.19464C11.4953 1.77627 11.3291 1.37504 11.0333 1.07921C10.7374 0.783383 10.3362 0.617188 9.91785 0.617188C9.49948 0.617188 9.09825 0.783383 8.80242 1.07921C8.50659 1.37504 8.34039 1.77627 8.34039 2.19464V3.77209H3.60803C2.7713 3.77209 1.96884 4.10449 1.37718 4.69615C0.785516 5.28781 0.453125 6.09027 0.453125 6.927V38.4761C0.453125 39.3128 0.785516 40.1153 1.37718 40.7069C1.96884 41.2986 2.7713 41.631 3.60803 41.631H35.1571C35.9938 41.631 36.7963 41.2986 37.388 40.7069C37.9796 40.1153 38.312 39.3128 38.312 38.4761V6.927C38.312 6.09027 37.9796 5.28781 37.388 4.69615C36.7963 4.10449 35.9938 3.77209 35.1571 3.77209ZM8.34039 6.927V8.50446C8.34039 8.92282 8.50659 9.32405 8.80242 9.61988C9.09825 9.91571 9.49948 10.0819 9.91785 10.0819C10.3362 10.0819 10.7374 9.91571 11.0333 9.61988C11.3291 9.32405 11.4953 8.92282 11.4953 8.50446V6.927H27.2698V8.50446C27.2698 8.92282 27.436 9.32405 27.7319 9.61988C28.0277 9.91571 28.4289 10.0819 28.8473 10.0819C29.2657 10.0819 29.6669 9.91571 29.9627 9.61988C30.2585 9.32405 30.4247 8.92282 30.4247 8.50446V6.927H35.1571V13.2368H3.60803V6.927H8.34039ZM35.1571 38.4761H3.60803V16.3917H35.1571V38.4761ZM27.5972 21.5855C27.7438 21.732 27.8602 21.906 27.9396 22.0975C28.0189 22.289 28.0598 22.4942 28.0598 22.7015C28.0598 22.9088 28.0189 23.1141 27.9396 23.3056C27.8602 23.4971 27.7438 23.6711 27.5972 23.8176L18.1324 33.2823C17.9859 33.429 17.812 33.5453 17.6205 33.6247C17.429 33.7041 17.2237 33.745 17.0164 33.745C16.8091 33.745 16.6038 33.7041 16.4123 33.6247C16.2208 33.5453 16.0468 33.429 15.9003 33.2823L11.168 28.5499C10.872 28.254 10.7057 27.8525 10.7057 27.4339C10.7057 27.0153 10.872 26.6138 11.168 26.3179C11.464 26.0219 11.8654 25.8556 12.284 25.8556C12.7026 25.8556 13.1041 26.0219 13.4001 26.3179L17.0164 29.9361L25.3651 21.5855C25.5116 21.4388 25.6855 21.3225 25.877 21.2431C26.0685 21.1637 26.2738 21.1228 26.4811 21.1228C26.6884 21.1228 26.8937 21.1637 27.0852 21.2431C27.2767 21.3225 27.4507 21.4388 27.5972 21.5855Z" fill="#035782"/>
</svg>
