<svg width="23" height="21" viewBox="0 0 23 21" fill="none" xmlns="http://www.w3.org/2000/svg">
<path d="M3.65445 20.8125H18.7741C20.0741 20.8125 21.2328 20.1342 21.8828 19.0321C22.5328 17.9016 22.5328 16.5734 21.911 15.4429L14.3371 2.16026C13.6871 1.02983 12.5284 0.351562 11.2001 0.351562C9.87187 0.351562 8.71317 1.02983 8.06316 2.16026L0.489226 15.4429C-0.160776 16.5734 -0.132515 17.9016 0.517487 19.0321C1.19575 20.1625 2.35445 20.8125 3.65445 20.8125ZM2.26967 16.4321L9.84361 3.1494C10.1262 2.6407 10.6632 2.32983 11.2567 2.32983C11.8501 2.32983 12.3588 2.6407 12.6697 3.1494L20.2436 16.4321C20.5262 16.9408 20.5262 17.5342 20.2436 18.0429C19.961 18.5516 19.4241 18.8342 18.8589 18.8342H3.65445C3.06097 18.8342 2.55228 18.5234 2.26967 18.0429C1.98706 17.5342 1.9588 16.9408 2.26967 16.4321Z" fill="#DA2B2B"/>
<path d="M11.0868 13.8371C11.6237 13.8371 12.0759 13.3849 12.0759 12.848V7.47839C12.0759 6.94143 11.6237 6.48926 11.0868 6.48926C10.5498 6.48926 10.0977 6.94143 10.0977 7.47839V12.848C10.0977 13.3849 10.5498 13.8371 11.0868 13.8371Z" fill="#DA2B2B"/>
<path d="M11.0868 17.5097C11.6237 17.5097 12.0759 17.0575 12.0759 16.5206V15.6727C12.0759 15.1358 11.6237 14.6836 11.0868 14.6836C10.5498 14.6836 10.0977 15.1358 10.0977 15.6727V16.5206C10.0977 17.0575 10.5498 17.5097 11.0868 17.5097Z" fill="#DA2B2B"/>
</svg>
