<svg width="90" height="95" viewBox="0 0 90 95" fill="none" xmlns="http://www.w3.org/2000/svg">
<g filter="url(#filter0_d_7028_3642)">
<path d="M24.6836 18.2626L24.6682 18.2733L24.6522 18.2831C18.6109 21.9827 16.386 27.7873 16.9599 34.8468C17.5372 41.9491 20.9539 50.2742 26.1772 58.8037C31.3851 67.308 37.8202 74.0465 44.4625 77.7048C51.0881 81.3539 57.8622 81.9178 63.9056 78.2169L63.9305 78.2017L63.9566 78.1887C72.6782 73.8434 76.7888 66.6276 77.4588 58.3831C78.1318 50.1027 75.3306 40.7554 70.1345 32.2704C59.7587 15.3271 40.0831 7.59938 24.6836 18.2626Z" fill="white" stroke="#055A8A" stroke-width="1.3352"/>
<path d="M24.4764 18.5025C18.3994 22.224 14.9006 28.9704 14.223 36.9587C13.5453 44.9466 15.699 54.1273 20.8795 62.5869C26.06 71.0464 33.2587 77.1377 40.6817 80.1649C48.1052 83.1922 55.7047 83.1421 61.7817 79.4207C67.8587 75.6992 71.3575 68.9528 72.0352 60.9645C72.7128 52.9766 70.5591 43.7959 65.3786 35.3364C60.1981 26.8768 52.9995 20.7855 45.5764 17.7583C38.153 14.731 30.5534 14.7811 24.4764 18.5025Z" fill="#179899" stroke="#055A8A" stroke-width="1.3352"/>
<path d="M29.1542 26.1444C24.628 28.9161 22.0098 33.948 21.5022 39.932C20.9946 45.9157 22.6077 52.8023 26.4969 59.1531C30.386 65.504 35.7869 70.0711 41.3475 72.3387C46.9083 74.6064 52.5805 74.5614 57.1067 71.7897C61.6329 69.0179 64.2511 63.986 64.7587 58.002C65.2663 52.0184 63.6531 45.1317 59.764 38.7809C55.8749 32.4301 50.4739 27.863 44.9134 25.5953C39.3525 23.3276 33.6804 23.3726 29.1542 26.1444Z" fill="white" stroke="#055A8A" stroke-width="1.3352"/>
<path d="M33.0885 32.5693C29.8677 34.5416 27.9907 38.1303 27.6262 42.4271C27.2618 46.7236 28.42 51.6792 31.2221 56.255C34.0242 60.8307 37.9119 64.1148 41.9045 65.743C45.8976 67.3714 49.9472 67.3307 53.168 65.3583C56.3888 63.386 58.2658 59.7973 58.6303 55.5005C58.9948 51.204 57.8366 46.2484 55.0345 41.6726C52.2324 37.0969 48.3447 33.8128 44.352 32.1846C40.359 30.5562 36.3093 30.5969 33.0885 32.5693Z" fill="#179899" stroke="#055A8A" stroke-width="1.3352"/>
<path d="M36.1233 37.5287C33.9085 38.885 32.6028 41.3614 32.3486 44.3581C32.0944 47.3543 32.9019 50.8217 34.8663 54.0295C36.8307 57.2373 39.5522 59.5326 42.3366 60.6681C45.1213 61.8038 47.9206 61.7663 50.1354 60.41C52.3502 59.0537 53.6559 56.5773 53.9101 53.5807C54.1643 50.5844 53.3567 47.117 51.3924 43.9092C49.428 40.7015 46.7065 38.4061 43.9221 37.2706C41.1373 36.135 38.338 36.1724 36.1233 37.5287Z" fill="white" stroke="#055A8A" stroke-width="1.3352"/>
</g>
<path d="M9.58029 58.3222L14.3452 61.0753L13.2696 65.929L7.30955 68.5696L8.44507 63.4452L2.51126 62.1303L9.58029 58.3222Z" fill="#179899" stroke="#004183" stroke-width="1.3352"/>
<path d="M8.36719 63.575L43.1358 48.9688" stroke="#004183" stroke-width="2.6704" stroke-linecap="round"/>
<defs>
<filter id="filter0_d_7028_3642" x="11.4336" y="12.7002" width="72.791" height="78.2996" filterUnits="userSpaceOnUse" color-interpolation-filters="sRGB">
<feFlood flood-opacity="0" result="BackgroundImageFix"/>
<feColorMatrix in="SourceAlpha" type="matrix" values="0 0 0 0 0 0 0 0 0 0 0 0 0 0 0 0 0 0 127 0" result="hardAlpha"/>
<feOffset dx="2" dy="4"/>
<feGaussianBlur stdDeviation="2"/>
<feComposite in2="hardAlpha" operator="out"/>
<feColorMatrix type="matrix" values="0 0 0 0 0 0 0 0 0 0 0 0 0 0 0 0 0 0 0.25 0"/>
<feBlend mode="normal" in2="BackgroundImageFix" result="effect1_dropShadow_7028_3642"/>
<feBlend mode="normal" in="SourceGraphic" in2="effect1_dropShadow_7028_3642" result="shape"/>
</filter>
</defs>
</svg>
