<svg width="24" height="24" viewBox="0 0 24 24" fill="none" xmlns="http://www.w3.org/2000/svg">
<path d="M16.1993 0.921618C16.9271 0.192794 18.1091 0.192794 18.837 0.921618L22.7939 4.87857C23.5228 5.60644 23.5228 6.78837 22.7939 7.51629L20.1181 10.1921L13.5234 3.59744L16.1993 0.921618Z" fill="#035782"/>
<path d="M12.4438 4.6756L19.0384 11.2703L8.97328 21.3364C8.79775 21.511 8.5898 21.6493 8.3618 21.7428H22.5766C22.9982 21.7428 23.3397 22.0843 23.3397 22.506C23.3397 22.9276 22.9982 23.2691 22.5766 23.2691H2.35299H2.33391C1.14814 23.2882 0.188466 22.1597 0.507088 20.9338L1.89128 15.5917C1.97522 15.2703 2.14311 14.9764 2.37779 14.7408L12.4438 4.6756Z" fill="#035782"/>
</svg>
