<svg width="96" height="102" viewBox="0 0 96 102" fill="none" xmlns="http://www.w3.org/2000/svg">
<path d="M43.2675 87.6981C43.1869 87.6981 43.1068 87.6765 43.0356 87.6356L6.55021 66.3449C6.40951 66.2627 6.32227 66.1106 6.32227 65.9483V61.9144C6.32227 61.8319 6.34192 61.7635 6.38318 61.6865C6.42052 61.6208 6.47318 61.5678 6.54707 61.5206L6.55336 61.5167L6.56004 61.5088L6.62803 61.4719L15.7495 56.1489V40.2205L9.21013 43.8641C9.14214 43.9022 9.06511 43.9219 8.9869 43.9219C8.84541 43.9219 8.70904 43.8551 8.62297 43.7427C8.48541 43.563 8.49995 43.306 8.65677 43.1441L27.007 24.1148C27.0164 24.1045 27.0286 24.0967 27.0427 24.0876C27.0518 24.0821 27.0604 24.0763 27.0691 24.07C27.0773 24.0641 27.0848 24.0566 27.0919 24.0491C27.0974 24.0436 27.1017 24.0389 27.1056 24.0366L57.3075 6.41185C57.3779 6.37098 57.4577 6.34937 57.5386 6.34937C57.6931 6.34937 57.8357 6.4264 57.9206 6.55452L81.7337 42.3486C81.8045 42.4544 81.828 42.5864 81.7986 42.711C81.7679 42.8352 81.6866 42.9421 81.5753 43.0042L72.5077 48.0568V56.1497L81.628 61.4719C81.6484 61.4802 81.6606 61.4868 81.6732 61.4939C81.6944 61.5049 81.7035 61.5065 81.709 61.5073C81.716 61.5171 81.7227 61.5257 81.7329 61.5328C81.7773 61.5643 81.8151 61.6024 81.8461 61.6468C81.8607 61.6676 81.8666 61.6755 81.8713 61.6845C81.9157 61.7674 81.9338 61.835 81.9338 61.9015V65.9483C81.9338 66.1146 81.8434 66.2682 81.698 66.3496L43.4903 87.6403C43.4228 87.6785 43.3457 87.6981 43.2675 87.6981Z" fill="#8D5D39"/>
<path d="M81.4531 61.9087L72.0478 56.4203V47.7936L67.9601 50.0715V56.5449L66.6545 57.3069L61.1802 60.5013V53.8496L60.9499 53.9777L57.2324 56.0493V62.8382L50.4529 66.7947V59.8273L41.2981 45.8128L39.39 42.892L28.9873 26.967L16.2077 39.446V56.4203L6.80247 61.9087L6.78125 61.9213L43.2667 83.2124L81.4747 61.9213V61.9209L81.4531 61.9087ZM31.738 47.0245L32.0233 47.1911L35.4799 49.2081L38.5179 50.981V74.5331L31.738 70.577V47.0245ZM20.5568 44.4117L27.3366 48.3682V57.9424L23.9241 55.951L20.5568 53.986V44.4117Z" fill="white"/>
<path d="M50.4528 59.8218L57.2323 56.0438V62.8327L50.4528 66.7892V59.8218ZM20.5566 53.8767V53.9805L23.924 55.9455L27.3365 57.9369V48.3627L20.5566 44.4062V53.8767ZM32.0232 47.1856L31.7379 47.019V70.5715L38.5178 74.5276V50.9755L35.4798 49.2026L32.0232 47.1856ZM64.4857 52.002L61.1801 53.8441V60.4958L66.6544 57.3014L67.96 56.5394V50.066L64.4857 52.002Z" fill="#035782"/>
<path d="M16.2077 39.4431L8.98684 43.4668L27.3366 24.4371V24.4374L57.5386 6.81274L81.3509 42.6065L72.0478 47.7907L67.9601 50.0686L64.4859 52.0046L61.1802 53.8467L60.9499 53.9748L57.2324 56.0464L50.4529 59.8244L41.2981 45.8099L39.39 42.889L28.9873 26.9641L16.2077 39.4431ZM81.4531 61.9058L81.4747 61.918V61.9058H81.4531ZM6.78125 61.9058V61.9184L6.80247 61.9058H6.78125ZM6.78125 61.9184V65.9519L43.2671 87.243L81.4747 65.9519V61.9184L43.2667 83.2095L6.78125 61.9184Z" fill="#01C8A9"/>
<path d="M72.547 47.793V57.9418C72.547 58.1765 72.3843 58.3797 72.1548 58.43L49.799 63.3415C49.7628 63.3493 49.7266 63.3532 49.6917 63.3532C49.5246 63.3532 49.3666 63.2699 49.2727 63.1269L26.9169 28.8514C26.7872 28.6513 26.8155 28.3872 26.9861 28.2202L28.6375 26.6084C28.7456 26.5039 28.8922 26.4548 29.0415 26.4693C29.1897 26.4858 29.3233 26.5679 29.4055 26.6929L50.6156 59.1637L71.8046 47.356C71.9586 47.2703 72.1481 47.2727 72.3002 47.3619C72.4534 47.4519 72.547 47.6158 72.547 47.793Z" fill="#8D5D39" fill-opacity="0.4"/>
<g filter="url(#filter0_d_7028_3678)">
<path d="M81.914 61.68C81.9128 61.6777 81.9109 61.6757 81.9097 61.6733C81.9085 61.6714 81.9073 61.6702 81.9065 61.6686C81.8983 61.6541 81.8881 61.6411 81.879 61.6274C81.8456 61.5794 81.8043 61.5378 81.756 61.5036C81.7446 61.4953 81.7395 61.4816 81.7273 61.4745C81.7195 61.4698 81.7104 61.4717 81.7029 61.4678C81.6849 61.458 81.668 61.4478 81.6483 61.4407L72.5477 56.1299V48.0845L81.5945 43.0433C81.7163 42.9757 81.8043 42.8598 81.8374 42.7242C81.8696 42.589 81.8444 42.4455 81.767 42.3296L57.9543 6.53589C57.8077 6.31423 57.5141 6.24781 57.2866 6.38065L27.0843 24.0053C27.0689 24.0144 27.0591 24.0305 27.0446 24.0411C27.0222 24.0576 26.997 24.0694 26.977 24.0902L8.62715 43.1196C8.45462 43.2976 8.43968 43.5751 8.59021 43.7712C8.68767 43.8981 8.83584 43.9665 8.98636 43.9665C9.06929 43.9665 9.15339 43.9461 9.22925 43.9036L15.7085 40.2938V56.1295L6.60706 61.4407L6.52885 61.4859C6.52728 61.4871 6.52649 61.489 6.52492 61.4902C6.45378 61.5354 6.39129 61.592 6.35003 61.6667C6.34924 61.6682 6.34806 61.6694 6.34688 61.671C6.30876 61.7417 6.28125 61.8188 6.28125 61.9052V65.9521C6.28125 66.1297 6.37597 66.294 6.52885 66.384L43.0151 87.6747C43.0933 87.7199 43.1801 87.7427 43.267 87.7427C43.3507 87.7427 43.4348 87.7219 43.5099 87.6798L81.7175 66.3887C81.8755 66.3007 81.9741 66.1333 81.9741 65.9521V61.9052C81.9741 61.8251 81.9498 61.7492 81.914 61.68ZM43.2729 86.6674L7.28029 65.6648V62.7883L43.0151 83.6408C43.0933 83.686 43.1801 83.7088 43.267 83.7088C43.3507 83.7088 43.4348 83.6876 43.5099 83.646L78.2908 64.2645C78.0801 65.0151 76.9322 66.3518 76.1383 67.2734C75.5224 67.9879 74.951 68.6596 74.6303 69.1933L43.2729 86.6674ZM8.65073 61.4053L15.7085 57.2869V62.0015C15.7085 62.1792 15.8032 62.3438 15.9561 62.4334L43.2328 78.3505C43.2403 78.3548 43.2497 78.3532 43.2572 78.3572C43.3295 78.3937 43.4061 78.4185 43.4843 78.4185C43.561 78.4185 43.6364 78.3961 43.706 78.3611C43.7127 78.3576 43.7209 78.3591 43.7276 78.3556L72.2911 62.4385C72.4494 62.3501 72.5477 62.1827 72.5477 62.0015V57.2873L79.6046 61.4053L80.4547 61.9013L80.4614 61.9056L80.4653 61.908L79.5728 62.4051L78.3207 63.1027L43.2729 82.6336L8.60711 62.4051L7.77234 61.9182L7.79396 61.9056L8.65073 61.4053ZM28.0416 24.6043L28.281 24.4644L57.3833 7.48187L80.6363 42.4334L72.5477 46.9401L72.0478 47.2187L71.5486 47.497L68.46 49.2184L67.96 49.4966L64.4921 51.4291L63.9847 51.712L63.4777 51.9946L61.1802 53.2746L60.9561 53.3996L60.681 53.5529L60.4488 53.6822L59.9414 53.9648L57.6835 55.2232L57.2323 55.4743L54.6274 56.9261L50.6163 59.1612L50.3923 58.8181L43.9842 49.0085L43.5236 48.3034L42.0034 45.9764L41.7299 45.5578L41.456 45.1385L40.0954 43.0559L39.5483 42.218L29.6298 27.0351L29.6294 27.0347L29.3512 26.6087L29.0725 26.1815L28.3887 25.1353L28.0416 24.6043ZM32.2371 51.6755V47.8919L34.4875 49.205L34.9838 49.4942L35.4794 49.7835L38.0183 51.2652V73.6595L32.2371 70.2866V51.6755ZM61.9591 53.9848L64.4807 52.5798L64.9877 52.2972L65.4951 52.0143L67.4605 50.9193V56.2549L66.6544 56.7249L66.1589 57.0142L65.6629 57.3038L61.6801 59.6277V54.1401L61.9591 53.9848ZM56.7332 56.8967V62.5482L50.952 65.921V60.1182L56.7332 56.8967ZM71.5486 55.5471V61.7075L43.9842 77.0677V50.8368L49.9529 59.974V66.7916C49.9529 66.9708 50.0484 67.1358 50.2037 67.2251C50.2807 67.2695 50.3664 67.2915 50.4525 67.2915C50.5393 67.2915 50.6262 67.2683 50.7044 67.2235L57.4846 63.2674C57.6379 63.1774 57.7326 63.0127 57.7326 62.8351V56.3398L60.681 54.697V60.4982C60.681 60.6771 60.7765 60.8421 60.9318 60.9313C61.0088 60.9757 61.0945 60.9978 61.1806 60.9978C61.2674 60.9978 61.3543 60.975 61.4325 60.9302L66.6548 57.8823L67.1504 57.5931L67.6464 57.3038L68.212 56.9737C68.3652 56.8841 68.46 56.7194 68.46 56.5418V50.3624L71.5486 48.6414V55.5471ZM27.2603 25.2355L28.3435 26.8932L15.9058 39.0393L11.6789 41.3938L27.2603 25.2355ZM16.7075 55.5463V39.6532L28.9008 27.7464L28.9012 27.7468L38.6837 42.7222L38.9572 43.1416L39.2311 43.5601L40.5914 45.6431L40.8653 46.0621L41.1388 46.481L42.9848 49.3072V77.048L38.9706 74.7057C38.9926 74.6491 39.0177 74.5929 39.0177 74.53V50.9779C39.0177 50.8002 38.923 50.636 38.7697 50.546L36.471 49.205L35.9754 48.9153L35.4798 48.6261L33.0144 47.188L32.5188 46.8988L32.0229 46.6091L31.9895 46.5895C31.835 46.5007 31.6448 46.4987 31.4888 46.5883C31.3335 46.6775 31.238 46.8426 31.238 47.0218V70.1935L16.7075 61.7146V55.5463ZM20.3048 54.4148L20.4675 54.5099L22.9325 55.9483L23.428 56.2376L23.924 56.5268L27.0843 58.3712C27.1625 58.416 27.2493 58.4392 27.3362 58.4392C27.4222 58.4392 27.5079 58.4172 27.585 58.3728C27.7402 58.2832 27.8357 58.1185 27.8357 57.9393V48.3651C27.8357 48.1875 27.7414 48.0228 27.5881 47.9332L20.8082 43.9767C20.6542 43.8879 20.4639 43.8863 20.3079 43.9752C20.1527 44.0644 20.0568 44.2294 20.0568 44.4086V53.9829C20.0568 54.041 20.0815 54.0925 20.1004 54.1456C20.1393 54.2548 20.2018 54.3543 20.3048 54.4148ZM21.0562 53.0086V45.2792L26.8367 48.652V57.0688L24.916 55.9483L24.42 55.6587L23.924 55.3694L21.459 53.931L21.0562 53.696V53.0086Z" fill="#035782"/>
</g>
<defs>
<filter id="filter0_d_7028_3678" x="0.58125" y="0.6125" width="95.0934" height="100.83" filterUnits="userSpaceOnUse" color-interpolation-filters="sRGB">
<feFlood flood-opacity="0" result="BackgroundImageFix"/>
<feColorMatrix in="SourceAlpha" type="matrix" values="0 0 0 0 0 0 0 0 0 0 0 0 0 0 0 0 0 0 127 0" result="hardAlpha"/>
<feOffset dx="4" dy="4"/>
<feGaussianBlur stdDeviation="4.85"/>
<feComposite in2="hardAlpha" operator="out"/>
<feColorMatrix type="matrix" values="0 0 0 0 0 0 0 0 0 0 0 0 0 0 0 0 0 0 1 0"/>
<feBlend mode="normal" in2="BackgroundImageFix" result="effect1_dropShadow_7028_3678"/>
<feBlend mode="normal" in="SourceGraphic" in2="effect1_dropShadow_7028_3678" result="shape"/>
</filter>
</defs>
</svg>
