<svg width="23" height="22" viewBox="0 0 23 22" fill="none" xmlns="http://www.w3.org/2000/svg">
<path d="M22.0589 8.3784C21.4671 7.79354 20.7265 7.81894 20.5177 7.8397L16.0547 7.89161C15.944 6.10014 16.012 3.40201 16.0132 3.37189C16.0143 3.34535 16.0132 3.31882 16.0097 3.29229C15.8909 2.2437 15.471 1.46967 14.7615 0.990941C13.5284 0.15923 11.9019 0.597588 11.8327 0.617197C11.6112 0.678335 11.4485 0.86521 11.4162 1.09247L10.7345 5.91783C10.5903 6.29158 9.5071 8.86863 6.69699 10.2034C6.667 9.52971 6.11213 8.98983 5.43037 8.98983L1.58337 8.98867C0.883161 8.98867 0.314453 9.55738 0.314453 10.2576V20.1425C0.314453 20.8427 0.883161 21.4114 1.58337 21.4114H5.43037C6.03945 21.4114 6.54933 20.98 6.67159 20.4067L11.7958 21.626C11.8396 21.6364 11.8846 21.6421 11.9296 21.6421L18.122 21.6398C20.0323 21.6929 20.842 20.4736 20.9989 19.8184C21.0013 19.8103 21.0024 19.8022 21.0047 19.7941L22.6716 11.2278C22.6739 11.2162 22.6751 11.2059 22.6774 11.1943C22.8515 9.9035 22.6437 8.9552 22.0589 8.3784ZM1.58327 10.1422H5.43027C5.49256 10.1422 5.54562 10.1953 5.54562 10.2576V17.4073H1.46769V10.2576C1.46769 10.1953 1.52098 10.1422 1.58327 10.1422ZM5.54574 20.1435C5.54574 20.2058 5.49267 20.2588 5.43038 20.2588H1.58338C1.52109 20.2588 1.46802 20.2058 1.46802 20.1435V18.5608H5.54596L5.54574 20.1435ZM18.1392 20.4872L11.9977 20.4895L6.7004 19.2287L6.69924 11.4618C10.5533 9.91369 11.7898 6.39868 11.843 6.24541C11.8545 6.2108 11.8626 6.1762 11.8683 6.14044L12.5005 1.66354C12.9146 1.61163 13.6033 1.59778 14.1201 1.94962C14.5273 2.22647 14.7753 2.70865 14.8583 3.3835C14.848 3.793 14.7822 6.8212 14.9472 8.53075C14.976 8.82951 15.2286 9.04639 15.5286 9.05215L20.5615 8.99332C20.5869 8.99332 20.6135 8.99101 20.6388 8.98755C20.6423 8.98639 20.9988 8.95294 21.2491 9.1998C21.5328 9.48127 21.6378 10.0742 21.5536 10.8748L19.2545 10.8736C18.9362 10.8736 18.6778 11.132 18.6778 11.4504C18.6778 11.7688 18.9362 12.0272 19.2545 12.0272H21.3413L20.8857 14.3654H18.6777C18.3594 14.3654 18.101 14.6238 18.101 14.9422C18.101 15.2606 18.3594 15.519 18.6777 15.519H20.6619L20.197 17.908H17.861C17.5427 17.908 17.2843 18.1664 17.2843 18.4847C17.2843 18.8031 17.5427 19.0615 17.861 19.0615H19.972L19.8751 19.5575C19.8509 19.6452 19.5593 20.5322 18.1392 20.4872Z" fill="#01C8A9"/>
</svg>
