<svg width="21" height="22" viewBox="0 0 21 22" fill="none" xmlns="http://www.w3.org/2000/svg">
<path d="M14.1065 0.21875V5.82547C14.1065 6.20362 13.7991 6.51005 13.4219 6.51005H7.18794C6.80979 6.51005 6.50336 6.2026 6.50336 5.82547L6.50439 0.21875H0.542969V21.2069H3.9197V11.4527C3.9197 11.0745 4.22715 10.7681 4.60428 10.7681H16.0063C16.3845 10.7681 16.6909 11.0755 16.6909 11.4527V21.2069H20.0677V5.84095L14.4455 0.21875H14.1065Z" fill="#035782"/>
<path d="M5.28906 21.2055H15.3188V12.1389H5.28906V21.2055ZM7.5662 15.9853H13.0438C13.422 15.9853 13.7284 16.2927 13.7284 16.6698C13.7284 17.048 13.421 17.3544 13.0438 17.3544H7.5662C7.18804 17.3544 6.88162 17.047 6.88162 16.6698C6.88162 16.2917 7.18907 15.9853 7.5662 15.9853Z" fill="#035782"/>
<path d="M7.87305 0.21875H12.7347V5.14099H7.87305V0.21875Z" fill="#035782"/>
</svg>
