<svg width="10" height="15" viewBox="0 0 10 15" fill="none" xmlns="http://www.w3.org/2000/svg">
<path d="M9.74028 8.28858H0.466043C0.417529 8.28832 0.369928 8.30176 0.328717 8.32736C0.287506 8.35295 0.254361 8.38967 0.233097 8.43327C0.211832 8.47688 0.203313 8.5256 0.208519 8.57384C0.213725 8.62207 0.232445 8.66785 0.262525 8.70592L4.89964 14.6311C4.92372 14.6622 4.95458 14.6873 4.98985 14.7045C5.02513 14.7218 5.06388 14.7308 5.10316 14.7308C5.14244 14.7308 5.18119 14.7218 5.21647 14.7045C5.25174 14.6873 5.2826 14.6622 5.30668 14.6311L9.9438 8.70592C9.97388 8.66785 9.9926 8.62207 9.9978 8.57384C10.003 8.5256 9.99449 8.47688 9.97323 8.43327C9.95196 8.38967 9.91882 8.35295 9.87761 8.32736C9.83639 8.30176 9.78879 8.28832 9.74028 8.28858Z" fill="#B5B5B5"/>
<path d="M0.466043 7.26253H9.74028C9.78879 7.26279 9.83639 7.24935 9.87761 7.22375C9.91882 7.19816 9.95196 7.16144 9.97323 7.11784C9.99449 7.07423 10.003 7.02551 9.9978 6.97727C9.9926 6.92904 9.97388 6.88325 9.9438 6.84519L5.30668 0.919983C5.2826 0.888955 5.25174 0.863843 5.21647 0.846568C5.18119 0.829293 5.14244 0.820312 5.10316 0.820312C5.06388 0.820312 5.02513 0.829293 4.98985 0.846568C4.95458 0.863843 4.92372 0.888955 4.89964 0.919983L0.262525 6.84519C0.232445 6.88325 0.213725 6.92904 0.208519 6.97727C0.203313 7.02551 0.211832 7.07423 0.233097 7.11784C0.254361 7.16144 0.287506 7.19816 0.328717 7.22375C0.369928 7.24935 0.417529 7.26279 0.466043 7.26253Z" fill="#B5B5B5"/>
</svg>
