<svg width="100%" height="100%" viewBox="0 56.755 232.236 471.245" xmlns="http://www.w3.org/2000/svg">
    <g transform="matrix(0.10000000149011613, 0, 0, -0.10000000149011613, 0.19565999799471, 567.9652794594359)" fill="blue" stroke="none" height='100%'>
        <path d="M1010 4980 c-276 -100 -379 -433 -205 -669 134 -182 405 -228 590 -100 256 176 255 541 -1 719 -99 69 -269 91 -384 50z" />
        <path d="M697 4005 c-221 -81 -419 -403 -495 -805 -41 -215 -47 -289 -47 -590 0 -277 1 -297 20 -329 30 -51 67 -74 127 -78 62 -5 106 17 138 69 19 31 20 50 19 298 -1 314 13 457 62 655 26 100 60 198 87 250 l21 40 1 -540 0 -541 -55 -849 c-31 -468 -57 -886 -57 -930 -2 -94 17 -140 81 -198 125 -113 333 -49 380 118 6 22 31 360 56 750 24 391 47 738 51 773 l6 62 64 0 64 0 0 -32 c0 -18 22 -373 49 -789 35 -530 54 -767 64 -790 39 -93 116 -143 222 -144 59 0 77 4 118 28 53 32 103 99 113 155 4 18 -19 430 -50 915 l-57 882 3 560 3 560 34 -80 c88 -208 123 -442 126 -836 2 -275 3 -288 24 -322 55 -90 185 -87 254 5 16 22 21 52 28 170 10 166 -3 464 -26 623 -69 479 -248 814 -495 929 l-55 26 -420 -1 c-331 0 -428 -3 -458 -14z" />
    </g>
</svg>