<svg width="21" height="20" viewBox="0 0 21 20" fill="none" xmlns="http://www.w3.org/2000/svg">
<path d="M9.46586 0.000350595C4.14244 0.350886 0 4.71811 0 9.97926C0 15.4983 4.54323 19.9784 10.14 19.9784C12.596 19.9784 14.9693 19.1012 16.8178 17.5066C16.8242 17.5007 16.8303 17.4947 16.8362 17.4884C16.8575 17.467 16.8759 17.443 16.8909 17.417C16.8984 17.4039 16.905 17.3904 16.9107 17.3766C16.9164 17.3627 16.9212 17.3486 16.925 17.3341C16.929 17.3195 16.9319 17.3047 16.9339 17.2897C16.9358 17.2749 16.9367 17.2601 16.9367 17.2452C16.9365 17.2301 16.9354 17.215 16.9332 17.2001C16.9312 17.1853 16.9283 17.1707 16.9244 17.1563C16.9124 17.1136 16.8922 17.0736 16.8649 17.0384C16.8645 17.0375 16.8641 17.0366 16.8636 17.0357C16.863 17.035 16.8623 17.0343 16.8616 17.0336C16.8583 17.029 16.8549 17.0246 16.8513 17.0201C16.8507 17.0197 16.85 17.0193 16.8494 17.0188C16.8491 17.0186 16.8496 17.0191 16.8494 17.0188C16.8445 17.0133 16.8388 17.0072 16.8336 17.002L12.6904 12.9165C12.6859 12.9128 12.6813 12.9092 12.6767 12.9057C12.6731 12.9027 12.6695 12.8998 12.6657 12.8969C12.6512 12.8847 12.6357 12.8737 12.6193 12.8639C12.6117 12.8596 12.604 12.8556 12.5961 12.8518C12.5826 12.8453 12.5687 12.8397 12.5544 12.835C12.5452 12.8317 12.5359 12.8288 12.5264 12.8263C12.5118 12.8228 12.497 12.8204 12.482 12.8188C12.4711 12.8174 12.4602 12.8165 12.4492 12.8161C12.4385 12.816 12.4278 12.8165 12.4171 12.8174C12.4032 12.8179 12.3892 12.8193 12.3755 12.8214C12.375 12.8214 12.3746 12.8214 12.3741 12.8214C12.3679 12.823 12.3618 12.8248 12.3557 12.8268C12.3204 12.8357 12.2868 12.85 12.256 12.8692C12.253 12.8707 12.25 12.8723 12.2471 12.8739C12.2441 12.8754 12.2412 12.877 12.2383 12.8786C11.6257 13.3097 10.8927 13.5427 10.14 13.5427C8.14039 13.5427 6.52828 11.951 6.52828 9.97908C6.52828 8.23542 7.80175 6.7505 9.54583 6.46329C9.56749 6.45966 9.58876 6.45402 9.60935 6.44645C9.61602 6.44417 9.62263 6.4417 9.62915 6.43902C9.64672 6.43143 9.66363 6.42242 9.6797 6.41208C9.68015 6.41186 9.6806 6.41164 9.68106 6.41141C9.68243 6.41029 9.6838 6.40916 9.68515 6.40802C9.70274 6.39628 9.7192 6.38297 9.73433 6.36828C9.73548 6.36694 9.73662 6.3656 9.73774 6.36424C9.75094 6.35108 9.76305 6.33689 9.77394 6.32181C9.77628 6.31846 9.77856 6.31507 9.78077 6.31164C9.79128 6.29558 9.80042 6.27868 9.80809 6.26112C9.81027 6.25601 9.81232 6.25085 9.81424 6.24564C9.82009 6.23072 9.82489 6.21541 9.82858 6.19984C9.82959 6.19536 9.8305 6.19087 9.83132 6.18636C9.83534 6.16549 9.8374 6.14429 9.83747 6.12304V0.365771C9.83846 0.350747 9.83846 0.335674 9.83747 0.320649C9.83642 0.316139 9.83528 0.311651 9.83405 0.307186C9.83012 0.270389 9.8202 0.234457 9.80469 0.200767C9.80126 0.194141 9.79761 0.187625 9.79375 0.18123C9.77626 0.148951 9.75367 0.119623 9.72682 0.0943493C9.71955 0.0882086 9.71203 0.0823647 9.70428 0.0768323C9.67596 0.0538872 9.64415 0.0354764 9.61002 0.0222742C9.60259 0.019766 9.59507 0.0175057 9.58749 0.0154969C9.55562 0.0057302 9.5225 0.000511618 9.48913 0C9.4848 0.000354823 9.48047 0.000789408 9.47615 0.00130341C9.47274 0.000819259 9.46928 0.000735296 9.46586 0.000350595ZM10.793 0.000350595C10.7868 0.000884676 10.7806 0.00158007 10.7745 0.00243598C10.7578 0.0028228 10.7411 0.00439084 10.7247 0.00712803C10.7138 0.00974883 10.7031 0.0128805 10.6926 0.0165121C10.6819 0.0189391 10.6715 0.021853 10.6611 0.0252445C10.6381 0.0345803 10.6161 0.0463207 10.5956 0.0602654C10.5921 0.0626804 10.5887 0.0651571 10.5853 0.0676945C10.5679 0.0803288 10.5516 0.0945355 10.5368 0.110131C10.5347 0.11258 10.5327 0.115056 10.5307 0.117561C10.5158 0.134005 10.5025 0.151821 10.4911 0.170763C10.4894 0.173651 10.4878 0.176562 10.4863 0.179495C10.475 0.199862 10.4659 0.221298 10.459 0.243477C10.4587 0.244822 10.4585 0.246169 10.4583 0.247517C10.4482 0.278693 10.4427 0.311124 10.4419 0.343834L10.4446 6.09168C10.4379 6.16411 10.4545 6.23679 10.4922 6.29933C10.5298 6.36188 10.5866 6.41107 10.6543 6.43989C10.6597 6.44207 10.6652 6.44411 10.6707 6.44602C10.6826 6.45026 10.6946 6.45387 10.7069 6.45683C10.7159 6.45923 10.725 6.46128 10.7342 6.46296C10.7349 6.46319 10.7356 6.46341 10.7363 6.46363C11.5966 6.60527 12.3756 7.04973 12.9301 7.71369C12.9305 7.71413 12.931 7.71456 12.9314 7.71499C12.94 7.72469 12.9491 7.73392 12.9587 7.74261C12.9621 7.74559 12.9656 7.7485 12.9691 7.75134C12.9795 7.76051 12.9904 7.76906 13.0018 7.77694C13.0054 7.77949 13.0091 7.78196 13.0128 7.78437C13.0509 7.80811 13.0934 7.82435 13.1378 7.83219C13.1403 7.83265 13.1428 7.83309 13.1453 7.83349C13.1934 7.84092 13.2425 7.83839 13.2894 7.82606C13.2899 7.82584 13.2903 7.82562 13.2908 7.82539C13.3061 7.82125 13.3212 7.81607 13.3359 7.80991C13.3366 7.80947 13.3373 7.80904 13.338 7.8086C13.3503 7.8039 13.3624 7.7985 13.3742 7.79244L18.4496 4.90303C18.4566 4.89922 18.4634 4.89518 18.4701 4.89091C18.4762 4.88684 18.4821 4.88258 18.4879 4.87814C18.4895 4.87702 18.4911 4.87589 18.4926 4.87475C18.497 4.87124 18.5014 4.86764 18.5056 4.86393C18.5081 4.86171 18.5106 4.85945 18.5131 4.85715C18.5161 4.85429 18.5191 4.85138 18.522 4.84842C18.5257 4.84489 18.5294 4.84129 18.5329 4.8376C18.5346 4.83584 18.5361 4.83405 18.5377 4.83226C18.5422 4.82744 18.5465 4.8225 18.5507 4.81744C18.5513 4.81653 18.552 4.81562 18.5526 4.8147C18.5572 4.80878 18.5615 4.80272 18.5656 4.79652C18.5699 4.79014 18.574 4.78363 18.5779 4.77698C18.5788 4.77543 18.5798 4.77386 18.5807 4.77229C18.5809 4.77164 18.5811 4.77099 18.5813 4.77034C18.5855 4.76307 18.5894 4.75566 18.593 4.74811C18.5949 4.74432 18.5967 4.7405 18.5984 4.73664C18.6003 4.73219 18.6021 4.7277 18.6038 4.72317C18.6048 4.7207 18.6057 4.71823 18.6066 4.71574C18.6086 4.7095 18.6104 4.70322 18.612 4.69688C18.6122 4.69597 18.6125 4.69506 18.6127 4.69414C18.6148 4.68635 18.6166 4.67848 18.6181 4.67056C18.6197 4.66365 18.6211 4.65668 18.6222 4.64968C18.6224 4.64791 18.6227 4.64612 18.6229 4.64434C18.6235 4.63874 18.6239 4.63312 18.6242 4.6275C18.6242 4.62659 18.6242 4.62568 18.6242 4.62476C18.6251 4.61063 18.6251 4.59646 18.6242 4.58233C18.6232 4.56671 18.6211 4.55119 18.618 4.53585C18.6173 4.53315 18.6166 4.53046 18.6159 4.52777C18.6145 4.52167 18.6129 4.5156 18.6111 4.50959C18.6097 4.50439 18.6081 4.49923 18.6064 4.4941C18.6053 4.4907 18.6041 4.48731 18.6029 4.48394C18.6014 4.48009 18.5998 4.47626 18.5982 4.47247C18.5928 4.45954 18.5867 4.44694 18.5797 4.43475C18.5793 4.43384 18.5789 4.43292 18.5784 4.43201C18.5778 4.43088 18.5771 4.42975 18.5764 4.42862C18.5729 4.42291 18.5693 4.41729 18.5655 4.41179C16.8158 1.83612 13.9532 0.206863 10.8162 0.000350595C10.8107 0.000448748 10.8052 0.000673434 10.7998 0.00102444C10.7975 0.000777779 10.7952 0.000553145 10.793 0.000350595ZM11.1413 0.719674C13.7927 0.998087 16.2012 2.37018 17.7713 4.49544L13.2737 7.05618C12.6985 6.45687 11.9577 6.03537 11.144 5.84316L11.1413 0.719674ZM9.13802 0.720346V5.84181C7.21198 6.29481 5.82883 8.00174 5.82882 9.97926C5.82883 12.3239 7.76236 14.2305 10.14 14.2305C10.9387 14.2305 11.7205 14.0133 12.398 13.6035L16.0706 17.225C14.3943 18.5585 12.3013 19.2887 10.14 19.2887C4.92121 19.2887 0.699405 15.1255 0.699405 9.97926C0.699405 5.19874 4.35752 1.22129 9.13802 0.720346ZM18.9502 5.37372C18.9208 5.37235 18.8915 5.37463 18.8627 5.38049C18.8588 5.38134 18.855 5.38225 18.8511 5.38323C18.8266 5.38877 18.8028 5.3969 18.7801 5.40747C18.7773 5.40835 18.7746 5.40926 18.7719 5.41021C18.7705 5.41111 18.7691 5.41202 18.7678 5.41295C18.7623 5.41528 18.7568 5.41776 18.7514 5.42038L13.6841 8.30777C13.6814 8.30908 13.6786 8.31043 13.6759 8.31181C13.6578 8.3226 13.6406 8.33499 13.6247 8.34885C13.6215 8.35149 13.6183 8.35418 13.6152 8.35693C13.6027 8.36842 13.591 8.3808 13.5803 8.39397C13.5766 8.39859 13.5729 8.40331 13.5694 8.40811C13.5608 8.42018 13.5531 8.43278 13.5462 8.44583C13.5428 8.45135 13.5397 8.45697 13.5366 8.46267C13.5276 8.48129 13.5203 8.50068 13.5148 8.52059C13.514 8.52328 13.5133 8.52597 13.5127 8.52867C13.5083 8.54637 13.5053 8.56439 13.5038 8.58255C13.5037 8.58727 13.5037 8.59198 13.5038 8.59669C13.5032 8.61378 13.5039 8.63089 13.5059 8.64788C13.5063 8.6526 13.5067 8.65731 13.5072 8.66202C13.51 8.67936 13.5141 8.69647 13.5195 8.7132C13.5206 8.71661 13.5218 8.71999 13.523 8.72336C13.5234 8.72541 13.5238 8.72745 13.5243 8.72949C13.6758 9.12885 13.7538 9.55315 13.7538 9.97955C13.7538 10.7217 13.5196 11.4452 13.0824 12.0493C13.0822 12.0497 13.0819 12.0502 13.0817 12.0506C13.0753 12.0597 13.0694 12.0692 13.0639 12.0789C13.059 12.087 13.0545 12.0953 13.0503 12.1038C13.0462 12.1128 13.0426 12.1221 13.0393 12.1314C13.035 12.1431 13.0313 12.155 13.0283 12.1671C13.0263 12.1747 13.0245 12.1823 13.0229 12.19C13.0199 12.2062 13.0181 12.2227 13.0175 12.2392C13.0172 12.2428 13.017 12.2464 13.0168 12.25C13.0172 12.271 13.0195 12.292 13.0237 12.3126C13.0243 12.3162 13.0249 12.3198 13.0257 12.3234C13.0299 12.3418 13.0356 12.3599 13.0427 12.3773C13.0434 12.3791 13.044 12.3809 13.0447 12.3827C13.0525 12.4009 13.0619 12.4185 13.0727 12.4352C13.0743 12.4377 13.0759 12.4402 13.0775 12.4426C13.0924 12.4645 13.1098 12.4846 13.1294 12.5026L17.2616 16.5801C17.2669 16.5847 17.2724 16.5892 17.278 16.5936C17.2787 16.5942 17.2793 16.5949 17.28 16.5955C17.2813 16.5964 17.2827 16.5973 17.2841 16.5982C17.305 16.6159 17.3279 16.631 17.3524 16.6434C17.3542 16.6443 17.356 16.6452 17.3578 16.6461C17.4105 16.6711 17.4688 16.6827 17.5272 16.6798C17.5324 16.6795 17.5377 16.679 17.5429 16.6785C17.5644 16.6764 17.5857 16.6723 17.6064 16.6664C17.6147 16.6644 17.6229 16.6621 17.631 16.6596C17.652 16.6516 17.6721 16.6417 17.6911 16.6299C17.7003 16.6245 17.7092 16.6187 17.7178 16.6124C17.7318 16.6026 17.745 16.5918 17.7574 16.5801C17.7628 16.5751 17.768 16.5699 17.7731 16.5646C19.3904 14.7417 20.2818 12.4016 20.2818 9.97956C20.2818 8.45731 19.9296 6.95562 19.2518 5.5882C19.2459 5.5743 19.239 5.5608 19.2313 5.54778C19.205 5.50292 19.1688 5.46448 19.1254 5.4353C19.1225 5.43348 19.1196 5.4317 19.1166 5.42996C19.0927 5.41458 19.067 5.40214 19.0401 5.39292C19.0399 5.39292 19.0403 5.39292 19.0401 5.39292C19.0112 5.38279 18.9807 5.37611 18.9502 5.37372ZM18.7733 6.20552C19.3066 7.39244 19.5826 8.67839 19.5826 9.97926C19.5826 12.1112 18.8398 14.1731 17.4865 15.8261L13.8153 12.2032C14.2313 11.5356 14.4532 10.7668 14.4532 9.97926C14.4532 9.56881 14.3932 9.15974 14.2749 8.76692L18.7733 6.20552Z" fill="#01C8A9"/>
</svg>
