<svg width="705" height="1209" viewBox="0 0 705 1209" fill="none" xmlns="http://www.w3.org/2000/svg">
<g clip-path="url(#clip0_9002_261)" filter="url(#filter0_d_9002_261)">
<rect x="321.723" y="903.284" width="15.4" height="10.92" transform="rotate(81 321.723 903.284)" fill="#DCBCFA" fill-opacity="0.9"/>
<rect x="309.266" y="134.687" width="33.4" height="5.92" transform="rotate(29 309.266 134.687)" fill="#F54721" fill-opacity="0.85"/>
<rect x="172.723" y="956.284" width="19.4" height="10.92" transform="rotate(180 172.723 956.284)" fill="#F62584" fill-opacity="0.45"/>
<rect x="425.723" y="791.284" width="26.4" height="5.92" transform="rotate(7 425.723 791.284)" fill="#C9FCBE" fill-opacity="0.35"/>
<rect x="312.527" y="260.769" width="36.4" height="8.92" transform="rotate(-104 312.527 260.769)" fill="#03A3F5" fill-opacity="0.6"/>
<rect x="11.5273" y="232.769" width="34.4" height="5.92" transform="rotate(-136 11.5273 232.769)" fill="#BA3E03" fill-opacity="0.75"/>
<rect x="160.723" y="671.284" width="8.4" height="7.92" transform="rotate(52 160.723 671.284)" fill="#03A3F5" fill-opacity="0.85"/>
<circle cx="302.527" cy="227.769" r="7" fill="#755FFE" fill-opacity="0.85"/>
<circle cx="650.266" cy="482.687" r="9" fill="#DCBCFA" fill-opacity="0.35"/>
<circle cx="425.223" cy="250.784" r="8.5" fill="#F62584" fill-opacity="0.45"/>
<circle cx="493.266" cy="106.687" r="4" fill="#03A3F5" fill-opacity="0.85"/>
<circle cx="363.766" cy="150.187" r="6.5" fill="#FF21FB" fill-opacity="0.75"/>
<circle cx="448.223" cy="263.784" r="8.5" fill="#BA3E03"/>
<circle cx="61.2227" cy="358.784" r="8.5" fill="#FFED36"/>
<circle cx="248.223" cy="577.784" r="8.5" fill="#03A3F5" fill-opacity="0.45"/>
<path d="M48.2142 527.809L56.1814 512.824L71.1655 520.792L63.1983 535.776L48.2142 527.809Z" fill="#FC9E1C" fill-opacity="0.45"/>
<path d="M323.888 907.783L309.784 916.257L309.497 899.805L323.888 907.783Z" fill="#DCBCFA" fill-opacity="0.75"/>
<path d="M325.44 476.567L336.471 474.82L341.541 484.77L333.644 492.667L323.693 487.597L325.44 476.567Z" fill="#9AF5FC" fill-opacity="0.9"/>
<path d="M586.757 976.5L579.385 971.338L580.169 962.372L588.326 958.568L595.698 963.73L594.914 972.696L586.757 976.5Z" fill="#F54721"/>
<path d="M312.335 1046.38L306.488 1047.73L302.396 1043.34L304.151 1037.6L309.997 1036.25L314.089 1040.64L312.335 1046.38Z" fill="#C9FCBE" fill-opacity="0.85"/>
<path d="M248.865 872.207L243.019 866.742L237.367 872.408L239.177 864.612L231.444 862.55L239.1 860.22L237.019 852.492L242.866 857.958L248.518 852.292L246.707 860.087L254.441 862.149L246.784 864.479L248.865 872.207Z" fill="#F54721" fill-opacity="0.75"/>
<path d="M243.241 679.761L241.923 674.474L236.487 674.094L241.108 671.206L239.79 665.919L243.964 669.422L248.585 666.534L246.544 671.586L250.718 675.089L245.282 674.709L243.241 679.761Z" fill="#03A3F5"/>
<path d="M484.452 955.101L483.952 947.811L476.649 948.075L482.712 943.997L478.832 937.805L485.396 941.016L488.818 934.56L489.319 941.85L496.621 941.586L490.558 945.664L494.438 951.856L487.875 948.645L484.452 955.101Z" fill="#DCBCFA" fill-opacity="0.35"/>
<path d="M498.478 499.221L504.649 500.054L509.298 495.913L508.464 502.083L512.606 506.732L506.435 505.899L501.786 510.04L502.62 503.87L498.478 499.221Z" fill="#FC9E1C" fill-opacity="0.6"/>
<path d="M61.1675 465.773L55.572 467.691L57.3086 473.346L52.8491 469.46L48.8202 473.791L49.9562 467.986L44.1908 466.662L49.7863 464.743L48.0497 459.089L52.5092 462.975L56.5381 458.644L55.4021 464.449L61.1675 465.773Z" fill="#F62584" fill-opacity="0.85"/>
<path d="M179.213 504.906L178.858 509.98L183.574 511.885L178.639 513.115L178.284 518.189L175.589 513.876L170.654 515.106L173.923 511.21L171.228 506.897L175.944 508.802L179.213 504.906Z" fill="#F54721" fill-opacity="0.35"/>
<path d="M12.9792 889.147L16.534 895.063L23.2593 893.511L18.7311 898.72L22.2859 904.636L15.9325 901.939L11.4043 907.148L12.0058 900.273L5.65236 897.576L12.3776 896.023L12.9792 889.147Z" fill="#4BC8EF" fill-opacity="0.9"/>
<rect x="76.7227" y="629.284" width="33.4" height="9.92" transform="rotate(3 76.7227 629.284)" fill="#480CA7" fill-opacity="0.85"/>
<rect x="37.7227" y="426.284" width="15.4" height="9.92" transform="rotate(-34 37.7227 426.284)" fill="#9DED1A"/>
<rect x="215.723" y="759.284" width="26.4" height="10.92" transform="rotate(-93 215.723 759.284)" fill="#9DED1A" fill-opacity="0.6"/>
<rect x="651.266" y="727.687" width="25.4" height="9.92" transform="rotate(103 651.266 727.687)" fill="#03A3F5" fill-opacity="0.45"/>
<rect x="253.723" y="637.284" width="11.4" height="10.92" transform="rotate(-173 253.723 637.284)" fill="#480CA7" fill-opacity="0.9"/>
<rect x="18.7227" y="792.284" width="30.4" height="9.92" transform="rotate(94 18.7227 792.284)" fill="#480CA7" fill-opacity="0.75"/>
<rect x="492.723" y="1042.28" width="42.4" height="9.92" transform="rotate(10 492.723 1042.28)" fill="#9DED1A" fill-opacity="0.35"/>
<circle cx="150.223" cy="925.784" r="3.5" fill="#C9FCBE"/>
<circle cx="487.223" cy="963.784" r="6.5" fill="#DCBCFA" fill-opacity="0.45"/>
<circle cx="286.527" cy="273.769" r="9" fill="#DCBCFA" fill-opacity="0.6"/>
<circle cx="237.766" cy="81.1865" r="5.5" fill="#480CA7" fill-opacity="0.6"/>
<circle cx="209.266" cy="1203.69" r="7" fill="#FFED36" fill-opacity="0.75"/>
<circle cx="646.266" cy="662.687" r="4" fill="#03A3F5" fill-opacity="0.45"/>
<circle cx="609.266" cy="584.687" r="5" fill="#C9FCBE" fill-opacity="0.75"/>
<circle cx="389.223" cy="395.784" r="4.5" fill="#9AF5FC" fill-opacity="0.65"/>
<path d="M47.7748 371.646L53.6223 367.702L59.1805 372.044L56.7681 378.672L49.719 378.426L47.7748 371.646Z" fill="#FC9E1C" fill-opacity="0.6"/>
<path d="M514.288 779.405L505.79 779.257L501.669 771.822L506.047 764.537L514.545 764.685L518.666 772.119L514.288 779.405Z" fill="#9DED1A" fill-opacity="0.45"/>
<path d="M252.331 485.124L262.133 481.361L270.293 487.969L268.651 498.34L258.848 502.103L250.688 495.495L252.331 485.124Z" fill="#9DED1A" fill-opacity="0.65"/>
<path d="M196.764 361.242L179.496 369.294L181.157 350.314L196.764 361.242Z" fill="#DCBCFA" fill-opacity="0.85"/>
<path d="M158.723 1047.78L152.849 1055.87L143.346 1052.78V1042.79L152.849 1039.7L158.723 1047.78Z" fill="#03A3F5" fill-opacity="0.75"/>
<path d="M515.804 141.522L528.507 145.896L524.133 158.599L511.43 154.225L515.804 141.522Z" fill="#F62584" fill-opacity="0.65"/>
<path d="M112.693 825.202L101.28 828.91L92.3627 820.881L94.8576 809.143L106.27 805.435L115.188 813.464L112.693 825.202Z" fill="#BA3E03" fill-opacity="0.75"/>
<path d="M475.454 565.246L471.34 572.372L463.291 570.661L462.431 562.478L469.948 559.13L475.454 565.246Z" fill="#F62584" fill-opacity="0.9"/>
<path d="M54.5968 467.648L48.8066 467.142L46.5355 472.492L45.228 466.829L39.4378 466.322L44.42 463.328L43.1125 457.665L47.4991 461.478L52.4812 458.485L50.2102 463.835L54.5968 467.648Z" fill="#F54721" fill-opacity="0.9"/>
<path d="M514.316 432.805L520.308 431.311L520.739 425.15L524.011 430.388L530.003 428.894L526.034 433.624L529.306 438.862L523.58 436.548L519.611 441.279L520.042 435.118L514.316 432.805Z" fill="#03A3F5" fill-opacity="0.9"/>
<path d="M49.7639 632.62L43.5811 639.092L44.4691 647.998L37.9977 641.815L29.0917 642.703L35.2745 636.231L34.3865 627.325L40.8579 633.508L49.7639 632.62Z" fill="#BA3E03" fill-opacity="0.85"/>
<path d="M383.983 724.233L384.804 719.582L380.634 717.365L385.31 716.707L386.13 712.057L388.201 716.301L392.877 715.644L389.48 718.925L391.55 723.169L387.381 720.952L383.983 724.233Z" fill="#755FFE" fill-opacity="0.45"/>
<path d="M203.316 750.805L209.665 748.947L212.388 742.919L214.245 749.268L220.274 751.991L213.925 753.848L211.202 759.877L209.345 753.528L203.316 750.805Z" fill="#FC9E1C" fill-opacity="0.9"/>
<path d="M475.944 774.868L470.9 782.727L473.583 791.673L465.723 786.629L456.777 789.311L461.822 781.452L459.139 772.506L466.999 777.551L475.944 774.868Z" fill="#DCBCFA" fill-opacity="0.9"/>
<path d="M127.457 141.496L121.652 141.8L120.148 147.414L118.065 141.988L112.261 142.292L116.778 138.635L114.695 133.208L119.569 136.374L124.086 132.716L122.582 138.33L127.457 141.496Z" fill="#9AF5FC" fill-opacity="0.9"/>
<path d="M378.002 1201.81L377.893 1210.76L384.617 1216.67L375.667 1216.56L369.759 1223.28L369.868 1214.33L363.144 1208.42L372.094 1208.53L378.002 1201.81Z" fill="#DCBCFA" fill-opacity="0.35"/>
<rect x="575.723" y="240.284" width="11.4" height="9.92" transform="rotate(63 575.723 240.284)" fill="#DCBCFA" fill-opacity="0.9"/>
<rect x="653.266" y="792.687" width="33.4" height="5.92" transform="rotate(-24 653.266 792.687)" fill="#BA3E03" fill-opacity="0.85"/>
<rect x="520.723" y="168.284" width="18.4" height="8.92" transform="rotate(37 520.723 168.284)" fill="#F62584" fill-opacity="0.45"/>
<rect x="93.7227" y="641.284" width="28.4" height="9.92" transform="rotate(21 93.7227 641.284)" fill="#F54721" fill-opacity="0.45"/>
<rect x="374.723" y="674.284" width="8.4" height="9.92" transform="rotate(64 374.723 674.284)" fill="#9AF5FC" fill-opacity="0.65"/>
<rect x="464.723" y="820.284" width="26.4" height="7.92" transform="rotate(127 464.723 820.284)" fill="#9DED1A"/>
<circle cx="88.2227" cy="455.784" r="5.5" fill="#755FFE" fill-opacity="0.35"/>
<circle cx="439.223" cy="618.784" r="3.5" fill="#FFED36"/>
<circle cx="248.027" cy="273.269" r="5.5" fill="#9DED1A" fill-opacity="0.35"/>
<circle cx="666.266" cy="471.687" r="4" fill="#C9FCBE"/>
<circle cx="665.266" cy="860.687" r="4" fill="#F54721" fill-opacity="0.9"/>
<circle cx="144.027" cy="115.269" r="3.5" fill="#BA3E03"/>
<circle cx="92.0273" cy="190.269" r="3.5" fill="#BA3E03" fill-opacity="0.75"/>
<circle cx="468.223" cy="191.784" r="8.5" fill="#03A3F5" fill-opacity="0.9"/>
<path d="M609.074 148.128L621.441 153.377L616.191 165.744L603.824 160.495L609.074 148.128Z" fill="#9AF5FC"/>
<path d="M87.2254 204.002L89.9797 213.607L81.6957 219.195L73.8216 213.043L77.2392 203.653L87.2254 204.002Z" fill="#FFED36" fill-opacity="0.45"/>
<path d="M530.462 136.815L523.53 126.141L534.205 119.209L541.137 129.883L530.462 136.815Z" fill="#C9FCBE" fill-opacity="0.85"/>
<path d="M39.9727 406.923L49.1011 402.859L55.7873 410.284L50.7911 418.938L41.0171 416.861L39.9727 406.923Z" fill="#F54721" fill-opacity="0.9"/>
<path d="M239.706 683.744L248.229 687.188L244.785 695.711L236.262 692.267L239.706 683.744Z" fill="#FFED36" fill-opacity="0.65"/>
<path d="M489.902 127.372L487.993 135.64L479.726 133.731L481.634 125.464L489.902 127.372Z" fill="#9AF5FC" fill-opacity="0.45"/>
<path d="M333.849 108.028L322.56 105.834L318.816 94.9604L326.361 86.2813L337.65 88.4756L341.394 99.3491L333.849 108.028Z" fill="#4BC8EF" fill-opacity="0.75"/>
<path d="M198.49 156.893L210.328 158.981L208.241 170.819L196.403 168.731L198.49 156.893Z" fill="#480CA7" fill-opacity="0.35"/>
<path d="M558.35 374.306L564.479 373.012L563.383 366.845L567.568 371.505L572.361 367.473L570.418 373.427L576.307 375.562L570.179 376.856L571.274 383.023L567.089 378.363L562.296 382.395L564.239 376.441L558.35 374.306Z" fill="#FC9E1C" fill-opacity="0.9"/>
<path d="M368.01 149.448L362.699 143.935L357.017 149.064L359.136 141.708L351.853 139.352L359.283 137.509L357.682 130.024L362.993 135.537L368.675 130.407L366.556 137.763L373.839 140.12L366.409 141.962L368.01 149.448Z" fill="#DCBCFA" fill-opacity="0.6"/>
<path d="M611.273 537.268L608.87 528.887L600.157 528.583L607.385 523.707L604.981 515.327L611.852 520.694L619.08 515.819L616.098 524.012L622.968 529.379L614.255 529.075L611.273 537.268Z" fill="#FC9E1C" fill-opacity="0.75"/>
<path d="M615.159 101.471L617.289 105.852L621.737 103.865L619.008 107.9L622.953 110.759L618.093 110.413L617.59 115.258L615.46 110.877L611.013 112.864L613.742 108.829L609.797 105.97L614.656 106.316L615.159 101.471Z" fill="#4BC8EF" fill-opacity="0.85"/>
<path d="M161.288 696.163L162.626 690.401L156.911 688.877L162.57 687.155L161.031 681.443L165.353 685.483L169.53 681.295L168.192 687.057L173.908 688.581L168.249 690.303L169.787 696.015L165.466 691.975L161.288 696.163Z" fill="#C9FCBE" fill-opacity="0.75"/>
<path d="M589.063 1059.79L593.472 1058.78L592.603 1054.34L595.684 1057.65L599.094 1054.68L597.766 1059.01L602.045 1060.47L597.636 1061.49L598.505 1065.92L595.424 1062.61L592.014 1065.58L593.342 1061.26L589.063 1059.79Z" fill="#F62584"/>
<path d="M597.955 120.598L591.409 121.554L587.874 127.145L586.918 120.599L581.327 117.064L587.873 116.108L591.408 110.517L592.364 117.063L597.955 120.598Z" fill="#480CA7" fill-opacity="0.35"/>
</g>
<defs>
<filter id="filter0_d_9002_261" x="0.265625" y="0.686523" width="708" height="1208" filterUnits="userSpaceOnUse" color-interpolation-filters="sRGB">
<feFlood flood-opacity="0" result="BackgroundImageFix"/>
<feColorMatrix in="SourceAlpha" type="matrix" values="0 0 0 0 0 0 0 0 0 0 0 0 0 0 0 0 0 0 127 0" result="hardAlpha"/>
<feOffset dy="4"/>
<feGaussianBlur stdDeviation="2"/>
<feComposite in2="hardAlpha" operator="out"/>
<feColorMatrix type="matrix" values="0 0 0 0 0 0 0 0 0 0 0 0 0 0 0 0 0 0 0.25 0"/>
<feBlend mode="normal" in2="BackgroundImageFix" result="effect1_dropShadow_9002_261"/>
<feBlend mode="normal" in="SourceGraphic" in2="effect1_dropShadow_9002_261" result="shape"/>
</filter>
<clipPath id="clip0_9002_261">
<rect width="700" height="1200" fill="white" transform="translate(4.26562 0.686523)"/>
</clipPath>
</defs>
</svg>
