<svg width="27" height="28" viewBox="0 0 27 28" fill="none" xmlns="http://www.w3.org/2000/svg">
<path d="M24.0336 4.06599C22.4925 3.94187 20.9779 3.64769 19.5335 3.19091C17.7899 2.64102 16.1666 1.86276 14.7046 0.877223C13.8489 0.30004 12.6528 0.30004 11.7971 0.877223C10.3367 1.86155 8.71198 2.63981 6.96817 3.19091C5.52393 3.64769 4.00928 3.94187 2.46803 4.06599C1.2513 4.16405 0.333984 5.01432 0.333984 6.04209V15.8593C0.333984 20.0226 3.06976 23.7662 7.47439 25.6292L12.2003 27.6277C12.5291 27.7667 12.8902 27.835 13.2498 27.835C13.6108 27.835 13.9704 27.7655 14.3006 27.6277L19.0266 25.6292C23.4298 23.7661 26.167 20.0223 26.167 15.8593L26.1685 6.04209C26.1685 5.01308 25.2512 4.16405 24.0344 4.06599H24.0336ZM18.785 12.221L12.9142 17.2753C12.6941 17.4653 12.3917 17.572 12.0776 17.572H12.0747C11.7577 17.572 11.4553 17.4628 11.2366 17.2716L7.71414 14.2033C7.2621 13.8098 7.27382 13.1817 7.73909 12.7994C8.20436 12.417 8.9485 12.4258 9.39907 12.8205L12.085 15.159L17.1134 10.8308C17.5683 10.4385 18.3096 10.4336 18.7734 10.8184C19.2357 11.2032 19.243 11.8312 18.788 12.2222L18.785 12.221Z" fill="#888888"/>
</svg>
