<svg width="37" height="38" viewBox="0 0 37 38" fill="none" xmlns="http://www.w3.org/2000/svg">
<rect x="0.462891" y="0.0107422" width="36.5192" height="37.2344" rx="18.2596" fill="#01C8A9"/>
<path d="M29.7441 13.8222L15.8855 25.5352C15.7231 25.6788 15.528 25.793 15.3119 25.8711C15.0959 25.9491 14.8633 25.9894 14.6284 25.9894C14.3935 25.9894 14.161 25.9491 13.9449 25.8711C13.7289 25.793 13.5337 25.6788 13.3713 25.5352L7.69912 20.7676C7.53404 20.6275 7.4032 20.4613 7.31407 20.2784C7.22495 20.0956 7.17929 19.8997 7.17969 19.7019C7.18051 19.3024 7.36892 18.9196 7.70347 18.6376C8.03803 18.3557 8.49133 18.1977 8.96365 18.1983C9.43597 18.199 9.88862 18.3584 10.222 18.6413L14.6328 22.3642L27.2212 11.6959C27.5546 11.413 28.0072 11.2536 28.4795 11.2529C28.9519 11.2522 29.4052 11.4103 29.7397 11.6922C30.0743 11.9742 30.2627 12.357 30.2635 12.7565C30.2643 13.1559 30.0775 13.5393 29.7441 13.8222Z" fill="white"/>
</svg>
