<svg width="33" height="33" viewBox="0 0 33 33" fill="none" xmlns="http://www.w3.org/2000/svg">
<path d="M27.3742 10.8829C28.725 13.547 29.0816 16.6054 28.38 19.5088C27.6784 22.4122 25.9646 24.9703 23.5464 26.7236C21.1281 28.4768 18.164 29.3104 15.1863 29.0746C12.2087 28.8388 9.41273 27.549 7.30064 25.4369C5.18854 23.3248 3.89874 20.5288 3.66292 17.5512C3.42709 14.5736 4.26069 11.6094 6.01399 9.19119C7.76728 6.77296 10.3254 5.05911 13.2288 4.35751C16.1321 3.65591 19.1906 4.01253 21.8546 5.36331L24.3897 2.82826C21.0374 0.828483 17.0698 0.123145 13.2337 0.845036C9.39759 1.56693 5.95772 3.66624 3.56168 6.74776C1.16565 9.82927 -0.021254 13.6804 0.224431 17.5761C0.470116 21.4717 2.13144 25.1432 4.89563 27.8993C7.65982 30.6554 11.3362 32.3059 15.2326 32.5401C19.1289 32.7744 22.9766 31.5762 26.051 29.1711C29.1255 26.766 31.2147 23.32 31.9253 19.4818C32.6359 15.6436 31.9189 11.678 29.9093 8.33166L27.3742 10.8829Z" fill="#B5B5B5"/>
<path d="M31.3395 5.65402L27.549 5.18831L27.0833 1.39789L23.0337 5.44749V8.19717L21.1385 10.0924L19.0206 12.1941L17.1821 14.0326C16.601 13.7988 15.9571 13.7729 15.3592 13.9593C14.7612 14.1456 14.246 14.5328 13.9007 15.0553C13.5554 15.5778 13.4012 16.2035 13.4641 16.8267C13.5271 17.4498 13.8034 18.032 14.2463 18.4749C14.6891 18.9177 15.2714 19.194 15.8945 19.257C16.5176 19.32 17.1433 19.1657 17.6658 18.8204C18.1883 18.4751 18.5755 17.9599 18.7619 17.362C18.9482 16.7641 18.9223 16.1201 18.6885 15.5391L20.5432 13.7168L23.6938 10.5662L24.5402 9.71982H27.2899L31.3395 5.65402Z" fill="#B5B5B5"/>
<path d="M18.2106 11.7619L21.4503 8.52226C19.4596 7.21899 17.0563 6.70026 14.7052 7.06641C12.3541 7.43255 10.2224 8.65755 8.72225 10.5045C7.22211 12.3514 6.46017 14.689 6.58381 17.0652C6.70745 19.4414 7.70788 21.6873 9.3916 23.3686C11.0753 25.0498 13.3227 26.047 15.6991 26.1671C18.0754 26.2873 20.4119 25.5219 22.2567 24.0191C24.1014 22.5163 25.3233 20.3827 25.686 18.0311C26.0487 15.6795 25.5264 13.277 24.2203 11.2881L20.9806 14.5278C21.452 15.6402 21.522 16.8819 21.1786 18.0402C20.8351 19.1986 20.0996 20.2014 19.0981 20.8771C18.0965 21.5528 16.8912 21.8592 15.6885 21.7439C14.4859 21.6286 13.3608 21.0987 12.5058 20.245C11.6509 19.3914 11.1194 18.267 11.0023 17.0645C10.8853 15.862 11.1899 14.6563 11.8641 13.6537C12.5383 12.6512 13.5401 11.9142 14.6979 11.5691C15.8558 11.224 17.0976 11.2921 18.2106 11.7619Z" fill="#B5B5B5"/>
</svg>
