<svg width="38" height="33" viewBox="0 0 38 33" fill="none" xmlns="http://www.w3.org/2000/svg">
<path d="M37.0998 15.6705C36.8737 15.9982 36.4998 16.192 36.1029 16.1874C35.8475 16.1874 35.5983 16.1105 35.3891 15.9659L33.6414 14.7228V28.8767C33.6414 30.9152 31.9876 32.569 29.9491 32.569H23.7954V22.7229C23.7954 22.3968 23.6661 22.0829 23.4354 21.8522C23.2046 21.6214 22.8908 21.4922 22.5646 21.4922H15.1801C14.5001 21.4922 13.9493 22.0429 13.9493 22.723V32.569H7.79556C5.75711 32.569 4.10329 30.9152 4.10329 28.8767V14.7228L2.35562 15.9659C1.8018 16.3536 1.03869 16.2213 0.64796 15.6705C0.255658 15.1198 0.38027 14.3567 0.927958 13.9597L17.4449 2.15669C18.3018 1.55364 19.4433 1.55364 20.3002 2.15669L25.0264 5.52897V3.03051C25.031 1.67207 26.1294 0.573608 27.4879 0.569H31.1801C32.5386 0.573616 33.637 1.67207 33.6416 3.03051V11.695L36.817 13.9596C37.0816 14.1489 37.2601 14.435 37.3139 14.7565C37.3662 15.0765 37.289 15.4059 37.0998 15.6705Z" fill="#4A5151"/>
</svg>
