<svg width="28" height="33" viewBox="0 0 28 33" fill="none" xmlns="http://www.w3.org/2000/svg">
<path d="M4.42975 0.565094C4.38493 0.567254 4.3414 0.582372 4.30282 0.605265C4.30282 0.605265 2.45716 1.72472 1.84945 4.44324C1.23543 7.18992 2.41848 10.9191 6.30294 13.1782C8.87372 14.6734 11.0315 14.6961 11.3834 14.6893C12.3004 15.6493 13.0453 16.669 13.3946 18.2315V24.5638C11.5585 24.5789 9.92824 25.6405 9.06363 27.2456C8.46614 26.9057 7.80981 26.6628 7.11922 26.663C5.39785 26.6673 3.95581 27.83 3.42749 29.443C3.17331 29.3641 2.9161 29.2914 2.64903 29.2911C1.18835 29.2913 -0.00262451 30.4809 -0.00255986 31.9406C-0.00264606 31.9449 -0.00264606 31.9492 -0.00255986 31.9535C0.00390512 32.0818 0.0215618 32.2116 0.0474217 32.3374C0.0747901 32.4698 0.19099 32.5647 0.325871 32.5651H27.0778C27.2483 32.5667 27.382 32.4191 27.364 32.2492C27.2554 31.1754 26.3523 30.3538 25.2726 30.342C25.2712 30.342 25.2705 30.342 25.2683 30.342C25.0469 30.3423 24.8387 30.4184 24.6291 30.486C24.405 28.654 22.9444 27.1923 21.0599 27.1916C19.9192 27.193 18.9608 27.8782 18.2646 28.7607C17.8767 26.5636 16.1628 24.8395 13.9671 24.5957V18.2166C14.9791 15.0736 17.5913 12.9243 20.3572 11.3275C19.096 12.2182 17.7766 13.4035 16.6944 14.8072C18.691 14.961 20.111 14.5138 21.237 13.7905C22.5122 12.9714 23.4106 11.8302 24.4443 10.8509C25.0813 10.2247 25.8226 9.74177 26.6538 9.42914C26.8367 9.38401 26.9265 9.17644 26.8341 9.01176C26.8341 9.01176 25.9779 7.52176 23.8462 6.99623C22.5852 6.68519 21.3267 7.01135 20.6055 7.27412C19.0679 7.83535 17.7534 8.96055 16.8971 10.3744C15.768 12.2384 15.6477 13.8268 15.6364 14.2659C14.8544 15.1217 14.1936 16.0065 13.7421 17.1173C12.3804 14.0746 9.39517 12.2324 7.64488 9.49722C8.72123 11.032 10.3173 12.3837 11.8244 13.6265C12.0205 10.9499 11.4122 9.09739 10.4402 7.6413C9.37223 6.04161 7.89411 4.91758 6.61368 3.61249C5.06034 2.02926 4.72858 0.783486 4.72826 0.782298C4.70606 0.694613 4.64378 0.622478 4.56016 0.588138C4.519 0.57086 4.47436 0.56207 4.42975 0.565094ZM16.3413 14.4181C16.3348 14.4246 16.3262 14.4289 16.3197 14.4354V14.4397C16.3262 14.4311 16.3348 14.4268 16.3413 14.4181Z" fill="#B5B5B5"/>
</svg>
